{
.appVersion = "3151";
.formatVersion = 3;
customParameters = (
{
name = vendorID;
value = COMM;
},
{
name = panose;
value = (
2,
13,
10,
4,
3,
5,
2,
5,
2,
3
);
},
{
name = unicodeRanges;
value = (
0,
1,
2
);
},
{
name = codePageRanges;
value = (
"1252",
"1250",
"1254",
"1257",
"bit 29"
);
},
{
name = fsType;
value = (
2
);
},
{
name = glyphOrder;
value = (
.notdef,
Eth,
eth,
Lslash,
lslash,
Scaron,
scaron,
Yacute,
yacute,
Thorn,
thorn,
Zcaron,
zcaron,
onehalf,
onequarter,
onesuperior,
threequarters,
threesuperior,
twosuperior,
brokenbar,
minus,
multiply,
space,
exclam,
quotedbl,
numbersign,
dollar,
percent,
ampersand,
quotesingle,
parenleft,
parenright,
asterisk,
plus,
comma,
hyphen,
period,
slash,
zero,
one,
two,
three,
four,
five,
six,
seven,
eight,
nine,
colon,
semicolon,
less,
equal,
greater,
question,
at,
A,
B,
C,
D,
E,
F,
G,
H,
I,
J,
K,
L,
M,
N,
O,
P,
Q,
R,
S,
T,
U,
V,
W,
X,
Y,
Z,
bracketleft,
backslash,
bracketright,
asciicircum,
underscore,
grave,
a,
b,
c,
d,
e,
f,
g,
h,
i,
j,
k,
l,
m,
n,
o,
p,
q,
r,
s,
t,
u,
v,
w,
x,
y,
z,
braceleft,
bar,
braceright,
asciitilde,
Adieresis,
Aring,
Ccedilla,
Eacute,
Ntilde,
Odieresis,
Udieresis,
aacute,
agrave,
acircumflex,
adieresis,
atilde,
aring,
ccedilla,
eacute,
egrave,
ecircumflex,
edieresis,
iacute,
igrave,
icircumflex,
idieresis,
ntilde,
oacute,
ograve,
ocircumflex,
odieresis,
otilde,
uacute,
ugrave,
ucircumflex,
udieresis,
dagger,
degree,
cent,
sterling,
section,
bullet,
paragraph,
germandbls,
registered,
copyright,
trademark,
acute,
dieresis,
notequal,
AE,
Oslash,
infinity,
plusminus,
lessequal,
greaterequal,
yen,
mu,
partialdiff,
summation,
product,
pi,
integral,
ordfeminine,
ordmasculine,
Omega,
ae,
oslash,
questiondown,
exclamdown,
logicalnot,
radical,
florin,
approxequal,
Delta,
guillemotleft,
guillemotright,
ellipsis,
uni00A0,
Agrave,
Atilde,
Otilde,
OE,
oe,
endash,
emdash,
quotedblleft,
quotedblright,
quoteleft,
quoteright,
divide,
lozenge,
ydieresis,
Ydieresis,
fraction,
Euro,
guilsinglleft,

glyphs = (
{
glyphname = Eth;
kernRight = Eth;
layers = (
{
hints = (
{
horizontal = 1;
place = (0, 173);
place = (0, 173);
type = Stem;
},
{
horizontal = 1;
place = (287, 157);
place = (287, 157);
type = Stem;
},
{
horizontal = 1;
place = (542, 173);
place = (542, 173);
type = Stem;
},
{
place = (51, 209);
place = (51, 209);
type = Stem;
},
{
place = (518, 212);
place = (518, 212);
type = Stem;
}
);
layerId = m01;
shapes = (
{
closed = 1;
nodes = (
(5,287,l),
(51,287,l),
(51,0,l),
(372,0,ls),
(594,0,o),
(730,128,o),
(730,356,cs),
(730,583,o),
(587,715,o),
(381,715,cs),
(51,715,l),
(51,444,l),
(5,444,l)
);
},
{
closed = 1;
nodes = (
(260,173,l),
(260,287,l),
(407,287,l),
(407,444,l),
(260,444,l),
(260,542,l),
(355,542,ls),
(455,542,o),
(518,474,o),
(518,356,cs),
(518,235,o),
(451,173,o),
(355,173,cs)
);
}
);
width = 745;
}
);
note = Eth;
unicode = 208;
},
{
glyphname = eth;
layers = (
{
hints = (
{
horizontal = 1;
place = (-16, 126);
place = (-16, 126);
type = Stem;
},
{
horizontal = 1;
place = (391, 122);
place = (391, 122);
type = Stem;
},
{
horizontal = 1;
place = (573, 142);
place = (573, 142);
type = Stem;
},
{
place = (13, 192);
place = (13, 192);
type = Stem;
},
{
place = (379, 190);
place = (379, 190);
type = Stem;
},
{
horizontal = 1;
place = (709, -20);
target = down;
type = TopGhost;
},
{
horizontal = 1;
place = (620, 95);
place = (620, 95);
type = Stem;
}
);
layerId = m01;
shapes = (
{
closed = 1;
nodes = (
(121,528,l),
(252,573,l),
(282,545,o),
(310,515,o),
(332,484,c),
(331,484,l),
(306,503,o),
(286,513,o),
(246,513,cs),
(106,513,o),
(13,409,o),
(13,254,cs),
(13,99,o),
(117,-16,o),
(293,-16,cs),
(501,-16,o),
(569,126,o),
(569,282,cs),
(569,440,o),
(502,553,o),
(422,631,c),
(484,653,l),
(458,709,l),
(368,678,l),
(349,692,o),
(331,704,o),
(313,715,c),
(69,715,l),
(108,688,o),
(154,656,o),
(199,620,c),
(95,584,l)
);
},
{
closed = 1;
nodes = (
(233,110,o),
(205,166,o),
(205,252,cs),
(205,338,o),
(233,391,o),
(291,391,cs),
(349,391,o),
(379,338,o),
(379,252,cs),
(379,166,o),
(349,110,o),
(291,110,cs)
);
}
);
width = 586;
}
);
note = eth;
unicode = 240;
},
{
glyphname = Lslash;
layers = (
{
hints = (
{
horizontal = 1;
place = (0, 179);
place = (0, 179);
type = Stem;
},
{
horizontal = 1;
place = (715, -20);
target = down;
type = TopGhost;
},
{
place = (53, 209);
place = (53, 209);
type = Stem;
}
);
layerId = m01;
shapes = (
{
closed = 1;
nodes = (
(-4,181,l),
(53,211,l),
(53,0,l),
(568,0,l),
(568,179,l),
(262,179,l),
(262,322,l),
(445,419,l),
(445,556,l),
(262,459,l),
(262,715,l),
(53,715,l),
(53,348,l),
(-4,318,l)
);
}
);
width = 580;
}
);
note = Lslash;
unicode = 321;
},
{
glyphname = lslash;
layers = (
{
hints = (
{
horizontal = 1;
place = (0, 21);
target = up;
type = BottomGhost;
},
{
horizontal = 1;
place = (518, -20);
target = down;
type = TopGhost;
},
{
horizontal = 1;
place = (715, -20);
target = down;
type = TopGhost;
},
{
place = (49, 194);
place = (49, 194);
type = Stem;
}
);
layerId = m01;
shapes = (
{
closed = 1;
nodes = (
(1,169,l),
(49,203,l),
(49,0,l),
(243,0,l),
(243,343,l),
(296,381,l),
(296,518,l),
(243,480,l),
(243,715,l),
(49,715,l),
(49,340,l),
(1,306,l)
);
}
);
width = 292;
}
);
note = lslash;
unicode = 322;
},
{
glyphname = Scaron;
kernLeft = Scaron;
kernRight = Scaron;
layers = (
{
hints = (
{
horizontal = 1;
place = (-17, 161);
place = (-17, 161);
type = Stem;
},
{
horizontal = 1;
place = (574, 154);
place = (574, 154);
type = Stem;
},
{
place = (30, 206);
place = (30, 206);
type = Stem;
},
{
place = (431, 213);
place = (431, 213);
type = Stem;
},
{
horizontal = 1;
place = (746, 137);
place = (746, 137);
type = Stem;
}
);
layerId = m01;
shapes = (
{
closed = 1;
nodes = (
(505,-17,o),
(644,66,o),
(644,222,cs),
(644,374,o),
(524,421,o),
(404,450,cs),
(297,476,o),
(236,482,o),
(236,524,cs),
(236,553,o),
(268,574,o),
(314,574,cs),
(371,574,o),
(399,549,o),
(405,510,c),
(612,510,l),
(609,666,o),
(473,728,o),
(325,728,cs),
(164,728,o),
(30,666,o),
(30,502,cs),
(30,350,o),
(175,309,o),
(295,279,cs),
(383,257,o),
(431,246,o),
(431,203,cs),
(431,160,o),
(381,144,o),
(340,144,cs),
(271,144,o),
(227,171,o),
(220,228,c),
(6,228,l),
(9,63,o),
(150,-17,o),
(336,-17,cs)
);
},
{
closed = 1;
nodes = (
(526,883,l),
(365,883,l),
(323,832,l),
(321,832,l),
(279,883,l),
(123,883,l),
(240,746,l),
(407,746,l)
);
}
);
width = 658;
}
);
note = Scaron;
unicode = 352;
},
{
glyphname = scaron;
kernLeft = scaron;
kernRight = scaron;
layers = (
{
hints = (
{
horizontal = 1;
place = (-17, 115);
place = (-17, 115);
type = Stem;
},
{
horizontal = 1;
place = (368, 158);
place = (368, 158);
type = Stem;
},
{
horizontal = 1;
place = (566, 149);
place = (566, 149);
type = Stem;
},
{
place = (17, 179);
place = (17, 179);
type = Stem;
},
{
place = (327, 185);
place = (327, 185);
type = Stem;
},
{
horizontal = 1;
place = (414, 112);
place = (414, 112);
type = Stem;
},
{
horizontal = 1;
place = (-17, 182);
place = (-17, 182);
type = Stem;
},
{
horizontal = 1;
place = (566, 86);
place = (566, 86);
type = Stem;
}
);
layerId = m01;
shapes = (
{
closed = 1;
nodes = (
(401,-17,o),
(512,36,o),
(512,158,cs),
(512,300,o),
(394,321,o),
(301,334,cs),
(243,342,o),
(196,348,o),
(196,377,cs),
(196,403,o),
(222,414,o),
(250,414,cs),
(281,414,o),
(309,406,o),
(314,368,c),
(492,368,l),
(485,468,o),
(404,526,o),
(249,526,cs),
(124,526,o),
(17,468,o),
(17,363,cs),
(17,235,o),
(116,212,o),
(202,199,cs),
(268,189,o),
(327,184,o),
(327,142,cs),
(327,111,o),
(299,98,o),
(262,98,cs),
(214,98,o),
(188,123,o),
(185,165,c),
(4,165,l),
(5,48,o),
(110,-17,o),
(261,-17,cs)
);
},
{
closed = 1;
nodes = (
(174,566,l),
(341,566,l),
(460,715,l),
(299,715,l),
(257,652,l),
(255,652,l),
(213,715,l),
(57,715,l)
);
}
);
width = 523;
}
);
note = scaron;
unicode = 353;
},
{
glyphname = Yacute;
kernLeft = Yacute;
kernRight = Yacute;
layers = (
{
hints = (
{
horizontal = 1;
place = (0, 21);
target = up;
type = BottomGhost;
},
{
horizontal = 1;
place = (715, -20);
target = down;
type = TopGhost;
},
{
horizontal = 1;
place = (746, 135);
place = (746, 135);
type = Stem;
},
{
place = (243, 209);
place = (243, 209);
type = Stem;
}
);
layerId = m01;
shapes = (
{
closed = 1;
nodes = (
(243,0,l),
(452,0,l),
(452,251,l),
(698,715,l),
(476,715,l),
(400,556,ls),
(374,502,o),
(351,441,o),
(351,441,c),
(349,441,l),
(349,441,o),
(327,502,o),
(301,556,cs),
(225,715,l),
(-2,715,l),
(243,251,l)
);
},
{
closed = 1;
nodes = (
(532,881,l),
(317,881,l),
(274,746,l),
(416,746,l)
);
}
);
width = 696;
}
);
note = Yacute;
unicode = 221;
},
{
glyphname = yacute;
kernLeft = yacute;
kernRight = yacute;
layers = (
{
hints = (
{
horizontal = 1;
place = (-169, 146);
place = (-169, 146);
type = Stem;
},
{
horizontal = 1;
place = (510, -20);
target = down;
type = TopGhost;
},
{
horizontal = 1;
place = (566, 155);
place = (566, 155);
type = Stem;
},
{
place = (-7, 575);
place = (-7, 575);
type = Stem;
}
);
layerId = m01;
shapes = (
{
closed = 1;
nodes = (
(57,-169,l),
(188,-169,ls),
(291,-169,o),
(351,-126,o),
(394,0,cs),
(568,510,l),
(380,510,l),
(318,305,ls),
(302,253,o),
(287,181,o),
(287,181,c),
(285,181,l),
(285,181,o),
(271,253,o),
(255,305,cs),
(192,510,l),
(-7,510,l),
(156,88,ls),
(168,58,o),
(179,31,o),
(179,15,cs),
(179,-12,o),
(162,-23,o),
(120,-23,cs),
(57,-23,l)
);
},
{
closed = 1;
nodes = (
(209,566,l),
(351,566,l),
(484,721,l),
(267,721,l)
);
}
);
width = 561;
}
);
note = yacute;
unicode = 253;
},
{
glyphname = Thorn;
layers = (
{
hints = (
{
horizontal = 1;
place = (0, 21);
target = up;
type = BottomGhost;
},
{
horizontal = 1;
place = (128, 162);
place = (128, 162);
type = Stem;
},
{
horizontal = 1;
place = (452, 173);
place = (452, 173);
type = Stem;
},
{
horizontal = 1;
place = (715, -20);
target = down;
type = TopGhost;
},
{
place = (43, 209);
place = (43, 209);
type = Stem;
},
{
place = (448, 208);
place = (448, 208);
type = Stem;
}
);
layerId = m01;
shapes = (
{
closed = 1;
nodes = (
(43,0,l),
(252,0,l),
(252,128,l),
(410,128,ls),
(554,128,o),
(656,232,o),
(656,370,cs),
(656,449,o),
(627,514,o),
(576,559,cs),
(529,601,o),
(463,625,o),
(372,625,cs),
(252,625,l),
(252,715,l),
(43,715,l)
);
},
{
closed = 1;
nodes = (
(363,452,ls),
(417,452,o),
(448,421,o),
(448,373,cs),
(448,324,o),
(416,290,o),
(365,290,cs),
(252,290,l),
(252,452,l)
);
}
);
width = 666;
}
);
note = Thorn;
unicode = 222;
},
{
glyphname = thorn;
kernRight = thorn;
layers = (
{
hints = (
{
horizontal = 1;
place = (-169, 21);
target = up;
type = BottomGhost;
},
{
horizontal = 1;
place = (-17, 139);
place = (-17, 139);
type = Stem;
},
{
horizontal = 1;
place = (382, 144);
place = (382, 144);
type = Stem;
},
{
horizontal = 1;
place = (715, -20);
target = down;
type = TopGhost;
},
{
place = (34, 189);
place = (34, 189);
type = Stem;
},
{
place = (400, 192);
place = (400, 192);
type = Stem;
}
);
layerId = m01;
shapes = (
{
closed = 1;
nodes = (
(504,-17,o),
(592,89,o),
(592,256,cs),
(592,404,o),
(513,526,o),
(376,526,cs),
(306,526,o),
(262,502,o),
(226,457,c),
(223,457,l),
(223,715,l),
(34,715,l),
(34,-169,l),
(223,-169,l),
(223,48,l),
(226,48,l),
(260,6,o),
(307,-17,o),
(368,-17,cs)
);
},
{
closed = 1;
nodes = (
(254,122,o),
(216,176,o),
(216,251,cs),
(216,325,o),
(254,382,o),
(312,382,cs),
(368,382,o),
(400,331,o),
(400,251,cs),
(400,171,o),
(368,122,o),
(312,122,cs)
);
}
);
width = 605;
}
);
note = thorn;
unicode = 254;
},
{
glyphname = Zcaron;
kernLeft = Zcaron;
kernRight = Zcaron;
layers = (
{
hints = (
{
horizontal = 1;
place = (0, 179);
place = (0, 179);
type = Stem;
},
{
horizontal = 1;
place = (536, 179);
place = (536, 179);
type = Stem;
},
{
horizontal = 1;
place = (746, 137);
place = (746, 137);
type = Stem;
},
{
place = (24, 621);
place = (24, 621);
type = Stem;
}
);
layerId = m01;
shapes = (
{
closed = 1;
nodes = (
(24,0,l),
(645,0,l),
(645,179,l),
(372,179,ls),
(328,179,o),
(288,175,o),
(288,175,c),
(288,178,l),
(288,178,o),
(328,215,o),
(361,253,cs),
(626,558,l),
(626,715,l),
(50,715,l),
(50,536,l),
(280,536,ls),
(312,536,o),
(348,540,o),
(348,540,c),
(348,537,l),
(348,537,o),
(315,507,o),
(291,479,cs),
(24,172,l)
);
},
{
closed = 1;
nodes = (
(551,883,l),
(390,883,l),
(348,832,l),
(346,832,l),
(304,883,l),
(148,883,l),
(265,746,l),
(432,746,l)
);
}
);
width = 669;
}
);
note = Zcaron;
unicode = 381;
},
{
glyphname = zcaron;
kernLeft = zcaron;
kernRight = zcaron;
layers = (
{
hints = (
{
horizontal = 1;
place = (0, 143);
place = (0, 143);
type = Stem;
},
{
horizontal = 1;
place = (368, 142);
place = (368, 142);
type = Stem;
},
{
horizontal = 1;
place = (566, 149);
place = (566, 149);
type = Stem;
},
{
place = (21, 483);
place = (21, 483);
type = Stem;
},
{
horizontal = 1;
place = (566, 86);
place = (566, 86);
type = Stem;
}
);
layerId = m01;
shapes = (
{
closed = 1;
nodes = (
(191,566,l),
(358,566,l),
(477,715,l),
(316,715,l),
(274,652,l),
(272,652,l),
(230,715,l),
(74,715,l)
);
},
{
closed = 1;
nodes = (
(21,0,l),
(504,0,l),
(504,143,l),
(336,143,ls),
(290,143,o),
(253,141,o),
(253,141,c),
(253,144,l),
(253,144,o),
(287,175,o),
(318,206,cs),
(487,379,l),
(487,510,l),
(39,510,l),
(39,368,l),
(178,368,ls),
(210,368,o),
(251,370,o),
(251,370,c),
(251,367,l),
(251,367,o),
(225,344,o),
(200,319,cs),
(21,137,l)
);
}
);
width = 525;
}
);
note = zcaron;
unicode = 382;
},
{
glyphname = onehalf;
layers = (
{
hints = (
{
horizontal = 1;
place = (0, 100);
place = (0, 100);
type = Stem;
},
{
horizontal = 1;
place = (307, 98);
place = (307, 98);
type = Stem;
},
{
horizontal = 1;
place = (536, 92);
place = (536, 92);
type = Stem;
},
{
horizontal = 1;
place = (719, -20);
target = down;
type = TopGhost;
},
{
place = (110, 138);
place = (110, 138);
type = Stem;
},
{
horizontal = 1;
place = (715, -20);
target = down;
type = TopGhost;
},
{
place = (472, 123);
place = (472, 123);
type = Stem;
},
{
place = (692, 128);
place = (692, 128);
type = Stem;
}
);
layerId = m01;
shapes = (
{
closed = 1;
nodes = (
(140,719,l),
(128,663,o),
(86,631,o),
(19,628,c),
(19,536,l),
(110,536,l),
(110,318,l),
(248,318,l),
(248,719,l)
);
},
{
closed = 1;
nodes = (
(75,0,l),
(189,0,l),
(720,715,l),
(607,715,l)
);
},
{
closed = 1;
nodes = (
(692,250,o),
(679,237,o),
(656,222,cs),
(610,193,o),
(558,170,o),
(517,130,cs),
(484,98,o),
(466,57,o),
(466,0,c),
(819,0,l),
(819,100,l),
(651,100,l),
(651,101,l),
(680,127,o),
(739,146,o),
(783,186,cs),
(808,208,o),
(820,235,o),
(820,279,cs),
(820,347,o),
(761,405,o),
(652,405,cs),
(550,405,o),
(472,351,o),
(472,242,c),
(595,242,l),
(595,283,o),
(617,307,o),
(649,307,cs),
(680,307,o),
(692,293,o),
(692,271,cs)
);
}
);
width = 849;
}
);
note = onehalf;
unicode = 189;
},
{
glyphname = onequarter;
layers = (
{
hints = (
{
horizontal = 1;
place = (81, 90);
place = (81, 90);
type = Stem;
},
{
horizontal = 1;
place = (536, 92);
place = (536, 92);
type = Stem;
},
{
horizontal = 1;
place = (719, -20);
target = down;
type = TopGhost;
},
{
place = (110, 138);
place = (110, 138);
type = Stem;
},
{
place = (399, 94);
place = (399, 94);
type = Stem;
},
{
place = (591, 132);
place = (591, 132);
type = Stem;
},
{
horizontal = 1;
place = (0, 171);
place = (0, 171);
type = Stem;
},
{
horizontal = 1;
place = (715, -20);
target = down;
type = TopGhost;
}
);
layerId = m01;
shapes = (
{
closed = 1;
nodes = (
(399,180,l),
(399,81,l),
(591,81,l),
(591,0,l),
(723,0,l),
(723,81,l),
(780,81,l),
(780,171,l),
(723,171,l),
(723,401,l),
(592,401,l)
);
},
{
closed = 1;
nodes = (
(75,0,l),
(189,0,l),
(720,715,l),
(607,715,l)
);
},
{
closed = 1;
nodes = (
(140,719,l),
(128,663,o),
(86,631,o),
(19,628,c),
(19,536,l),
(110,536,l),
(110,318,l),
(248,318,l),
(248,719,l)
);
},
{
closed = 1;
nodes = (
(591,171,l),
(493,171,l),
(493,172,l),
(590,282,l),
(591,282,l)
);
}
);
width = 803;
}
);
note = onequarter;
unicode = 188;
},
{
glyphname = onesuperior;
layers = (
{
hints = (
{
horizontal = 1;
place = (506, 92);
place = (506, 92);
type = Stem;
},
{
horizontal = 1;
place = (689, -20);
target = down;
type = TopGhost;
},
{
place = (115, 138);
place = (115, 138);
type = Stem;
}
);
layerId = m01;
shapes = (
{
closed = 1;
nodes = (
(115,288,l),
(253,288,l),
(253,689,l),
(145,689,l),
(133,633,o),
(91,601,o),
(24,598,c),
(24,506,l),
(115,506,l)
);
}
);
width = 295;
}
);
note = onesuperior;
unicode = 185;
},
{
glyphname = threequarters;
layers = (
{
hints = (
{
horizontal = 1;
place = (81, 90);
place = (81, 90);
type = Stem;
},
{
horizontal = 1;
place = (308, 92);
place = (308, 92);
type = Stem;
},
{
horizontal = 1;
place = (590, 133);
place = (590, 133);
type = Stem;
},
{
place = (487, 94);
place = (487, 94);
type = Stem;
},
{
place = (679, 132);
place = (679, 132);
type = Stem;
},
{
horizontal = 1;
place = (0, 171);
place = (0, 171);
type = Stem;
},
{
place = (246, 126);
place = (246, 126);
type = Stem;
},
{
horizontal = 1;
place = (481, 80);
place = (481, 80);
type = Stem;
},
{
horizontal = 1;
place = (633, 90);
place = (633, 90);
type = Stem;
},
{
place = (253, 129);
place = (253, 129);
type = Stem;
},
{
horizontal = 1;
place = (715, -20);
target = down;
type = TopGhost;
}
);
layerId = m01;
shapes = (
{
closed = 1;
nodes = (
(487,180,l),
(487,81,l),
(679,81,l),
(679,0,l),
(811,0,l),
(811,81,l),
(868,81,l),
(868,171,l),
(811,171,l),
(811,401,l),
(680,401,l)
);
},
{
closed = 1;
nodes = (
(151,590,l),
(154,613,o),
(167,633,o),
(202,633,cs),
(230,633,o),
(246,619,o),
(246,598,cs),
(246,572,o),
(224,561,o),
(187,561,cs),
(168,561,l),
(168,481,l),
(191,481,ls),
(228,481,o),
(253,472,o),
(253,441,cs),
(253,416,o),
(236,400,o),
(203,400,cs),
(162,400,o),
(145,422,o),
(142,452,c),
(20,452,l),
(21,369,o),
(85,308,o),
(211,308,cs),
(307,308,o),
(382,346,o),
(382,435,cs),
(382,486,o),
(353,515,o),
(317,530,c),
(317,531,l),
(348,547,o),
(372,570,o),
(372,607,cs),
(372,681,o),
(304,723,o),
(208,723,cs),
(98,723,o),
(35,664,o),
(32,590,c)
);
},
{
closed = 1;
nodes = (
(161,0,l),
(275,0,l),
(806,715,l),
(693,715,l)
);
},
{
closed = 1;
nodes = (
(679,171,l),
(581,171,l),
(581,172,l),
(678,282,l),
(679,282,l)
);
}
);
width = 891;
}
);
note = threequarters;
unicode = 190;
},
{
glyphname = threesuperior;
layers = (
{
hints = (
{
horizontal = 1;
place = (278, 92);
place = (278, 92);
type = Stem;
},
{
horizontal = 1;
place = (560, 133);
place = (560, 133);
type = Stem;
},
{
place = (256, 132);
place = (256, 132);
type = Stem;
},
{
place = (249, 129);
place = (249, 129);
type = Stem;
},
{
horizontal = 1;
place = (451, 80);
place = (451, 80);
type = Stem;
},
{
horizontal = 1;
place = (603, 90);
place = (603, 90);
type = Stem;
}
);
layerId = m01;
shapes = (
{
closed = 1;
nodes = (
(309,278,o),
(388,316,o),
(388,405,cs),
(388,456,o),
(359,485,o),
(323,500,c),
(323,501,l),
(354,517,o),
(378,540,o),
(378,577,cs),
(378,651,o),
(307,693,o),
(211,693,cs),
(101,693,o),
(38,634,o),
(35,560,c),
(155,560,l),
(158,583,o),
(170,603,o),
(205,603,cs),
(233,603,o),
(249,589,o),
(249,568,cs),
(249,542,o),
(227,531,o),
(190,531,cs),
(171,531,l),
(171,451,l),
(194,451,ls),
(231,451,o),
(256,442,o),
(256,411,cs),
(256,386,o),
(239,370,o),
(206,370,cs),
(165,370,o),
(149,392,o),
(146,422,c),
(23,422,l),
(24,339,o),
(87,278,o),
(213,278,cs)
);
}
);
width = 426;
}
);
note = threesuperior;
unicode = 179;
},
{
glyphname = twosuperior;
layers = (
{
hints = (
{
horizontal = 1;
place = (288, 100);
place = (288, 100);
type = Stem;
},
{
horizontal = 1;
place = (595, 98);
place = (595, 98);
type = Stem;
},
{
place = (34, 123);
place = (34, 123);
type = Stem;
},
{
place = (251, 131);
place = (251, 131);
type = Stem;
},
{
horizontal = 1;
place = (530, 163);
place = (530, 163);
type = Stem;
}
);
layerId = m01;
shapes = (
{
closed = 1;
nodes = (
(381,288,l),
(381,388,l),
(213,388,l),
(213,389,l),
(242,415,o),
(301,431,o),
(345,471,cs),
(370,493,o),
(382,520,o),
(382,564,cs),
(382,632,o),
(323,693,o),
(214,693,cs),
(112,693,o),
(34,639,o),
(34,530,c),
(157,530,l),
(157,571,o),
(177,595,o),
(209,595,cs),
(240,595,o),
(251,581,o),
(251,559,cs),
(251,538,o),
(238,525,o),
(215,510,cs),
(169,481,o),
(120,458,o),
(79,418,cs),
(46,386,o),
(28,345,o),
(28,288,c)
);
}
);
width = 418;
}
);
note = twosuperior;
unicode = 178;
},
{
glyphname = brokenbar;
layers = (
{
hints = (
{
horizontal = 1;
place = (-144, 898);
place = (-144, 898);
type = Stem;
},
{
place = (51, 115);
place = (51, 115);
type = Stem;
}
);
layerId = m01;
shapes = (
{
closed = 1;
nodes = (
(51,-144,l),
(166,-144,l),
(166,229,l),
(51,229,l)
);
},
{
closed = 1;
nodes = (
(51,392,l),
(166,392,l),
(166,754,l),
(51,754,l)
);
}
);
width = 217;
}
);
note = brokenbar;
unicode = 166;
},
{
glyphname = minus;
kernLeft = minus;
kernRight = minus;
layers = (
{
hints = (
{
horizontal = 1;
place = (249, 163);
place = (249, 163);
type = Stem;
},
{
place = (45, 473);
place = (45, 473);
type = Stem;
}
);
layerId = m01;
shapes = (
{
closed = 1;
nodes = (
(45,249,l),
(518,249,l),
(518,412,l),
(45,412,l)
);
}
);
width = 563;
}
);
note = minus;
unicode = 8722;
},
{
glyphname = multiply;
layers = (
{
hints = (
{
horizontal = 1;
place = (79, 500);
place = (79, 500);
type = Stem;
},
{
place = (27, 498);
place = (27, 498);
type = Stem;
}
);
layerId = m01;
shapes = (
{
closed = 1;
nodes = (
(142,79,l),
(277,216,l),
(410,81,l),
(525,192,l),
(389,330,l),
(525,468,l),
(410,579,l),
(276,444,l),
(144,579,l),
(29,468,l),
(164,330,l),
(27,191,l)
);
}
);
width = 563;
}
);
note = multiply;
unicode = 215;
},
{
glyphname = exclam;
layers = (
{
hints = (
{
horizontal = 1;
place = (0, 191);
place = (0, 191);
type = Stem;
},
{
horizontal = 1;
place = (715, -20);
target = down;
type = TopGhost;
},
{
place = (39, 195);
place = (39, 195);
type = Stem;
}
);
layerId = m01;
shapes = (
{
closed = 1;
nodes = (
(86,258,l),
(187,258,l),
(234,534,l),
(234,715,l),
(39,715,l),
(39,534,l)
);
},
{
closed = 1;
nodes = (
(39,0,l),
(234,0,l),
(234,191,l),
(39,191,l)
);
}
);
width = 273;
}
);
note = exclam;
unicode = 33;
},
{
glyphname = quotedbl;
kernLeft = quotedbl;
kernRight = quotedbl;
layers = (
{
hints = (
{
horizontal = 1;
place = (428, 287);
place = (428, 287);
type = Stem;
},
{
place = (40, 164);
place = (40, 164);
type = Stem;
},
{
place = (263, 164);
place = (263, 164);
type = Stem;
}
);
layerId = m01;
shapes = (
{
closed = 1;
nodes = (
(263,428,l),
(427,428,l),
(427,715,l),
(263,715,l)
);
},
{
closed = 1;
nodes = (
(40,428,l),
(204,428,l),
(204,715,l),
(40,715,l)
);
}
);
width = 467;
}
);
note = quotedbl;
unicode = 34;
},
{
glyphname = numbersign;
layers = (
{
hints = (
{
horizontal = 1;
place = (0, 21);
target = up;
type = BottomGhost;
},
{
horizontal = 1;
place = (162, 146);
place = (162, 146);
type = Stem;
},
{
horizontal = 1;
place = (390, 146);
place = (390, 146);
type = Stem;
},
{
horizontal = 1;
place = (686, -20);
target = down;
type = TopGhost;
},
{
place = (21, 572);
place = (21, 572);
type = Stem;
}
);
layerId = m01;
shapes = (
{
closed = 1;
nodes = (
(61,390,l),
(149,390,l),
(135,308,l),
(47,308,l),
(21,162,l),
(110,162,l),
(82,0,l),
(197,0,l),
(225,162,l),
(323,162,l),
(295,0,l),
(410,0,l),
(438,162,l),
(526,162,l),
(552,308,l),
(463,308,l),
(477,390,l),
(567,390,l),
(593,536,l),
(503,536,l),
(529,686,l),
(414,686,l),
(388,536,l),
(290,536,l),
(316,686,l),
(201,686,l),
(175,536,l),
(87,536,l)
);
},
{
closed = 1;
nodes = (
(264,390,l),
(362,390,l),
(348,308,l),
(250,308,l)
);
}
);
width = 606;
}
);
note = numbersign;
unicode = 35;
},
{
glyphname = dollar;
layers = (
{
hints = (
{
horizontal = 1;
place = (-15, 21);
target = up;
type = BottomGhost;
},
{
horizontal = 1;
place = (698, -20);
target = down;
type = TopGhost;
},
{
place = (281, 62);
place = (281, 62);
type = Stem;
},
{
place = (405, 194);
place = (405, 194);
type = Stem;
},
{
horizontal = 1;
place = (483, 214);
place = (483, 214);
type = Stem;
},
{
place = (28, 190);
place = (28, 190);
type = Stem;
},
{
place = (9, 196);
place = (9, 196);
type = Stem;
}
);
layerId = m01;
shapes = (
{
closed = 1;
nodes = (
(281,-109,l),
(343,-109,l),
(343,-15,l),
(487,-8,o),
(599,65,o),
(599,201,cs),
(599,333,o),
(506,386,o),
(372,425,cs),
(343,433,l),
(343,551,l),
(382,544,o),
(399,524,o),
(405,483,c),
(587,483,l),
(581,623,o),
(488,688,o),
(343,697,c),
(343,760,l),
(281,760,l),
(281,698,l),
(140,692,o),
(28,628,o),
(28,499,cs),
(28,348,o),
(129,315,o),
(277,272,c),
(278,271,o),
(279,271,o),
(281,271,c),
(281,138,l),
(237,147,o),
(210,175,o),
(205,227,c),
(9,227,l),
(12,78,o),
(113,-4,o),
(281,-15,c)
);
},
{
closed = 1;
nodes = (
(405,161,o),
(377,143,o),
(343,137,c),
(343,251,l),
(387,236,o),
(405,223,o),
(405,192,cs)
);
},
{
closed = 1;
nodes = (
(218,527,o),
(237,548,o),
(281,553,c),
(281,451,l),
(236,465,o),
(218,476,o),
(218,503,cs)
);
}
);
width = 632;
}
);
note = dollar;
unicode = 36;
},
{
glyphname = percent;
kernLeft = percent;
layers = (
{
hints = (
{
horizontal = 1;
place = (-17, 96);
place = (-17, 96);
type = Stem;
},
{
horizontal = 1;
place = (297, 96);
place = (297, 96);
type = Stem;
},
{
horizontal = 1;
place = (605, 94);
place = (605, 94);
type = Stem;
},
{
place = (20, 140);
place = (20, 140);
type = Stem;
},
{
place = (262, 140);
place = (262, 140);
type = Stem;
},
{
place = (497, 140);
place = (497, 140);
type = Stem;
},
{
place = (739, 140);
place = (739, 140);
type = Stem;
},
{
horizontal = 1;
place = (291, 94);
place = (291, 94);
type = Stem;
},
{
horizontal = 1;
place = (0, 21);
target = up;
type = BottomGhost;
},
{
horizontal = 1;
place = (686, -20);
target = down;
type = TopGhost;
}
);
layerId = m01;
shapes = (
{
closed = 1;
nodes = (
(320,297,o),
(402,376,o),
(402,498,cs),
(402,619,o),
(324,699,o),
(210,699,cs),
(100,699,o),
(20,619,o),
(20,498,cs),
(20,376,o),
(102,297,o),
(210,297,cs)
);
},
{
closed = 1;
nodes = (
(797,-17,o),
(879,62,o),
(879,184,cs),
(879,305,o),
(801,385,o),
(687,385,cs),
(577,385,o),
(497,305,o),
(497,184,cs),
(497,62,o),
(579,-17,o),
(687,-17,cs)
);
},
{
closed = 1;
nodes = (
(204,0,l),
(306,0,l),
(694,686,l),
(592,686,l)
);
},
{
closed = 1;
nodes = (
(173,393,o),
(160,436,o),
(160,498,cs),
(160,559,o),
(173,605,o),
(211,605,cs),
(248,605,o),
(262,559,o),
(262,498,cs),
(262,436,o),
(248,393,o),
(211,393,cs)
);
},
{
closed = 1;
nodes = (
(650,79,o),
(637,122,o),
(637,184,cs),
(637,245,o),
(650,291,o),
(688,291,cs),
(725,291,o),
(739,245,o),
(739,184,cs),
(739,122,o),
(725,79,o),
(688,79,cs)
);
}
);
width = 899;
}
);
note = percent;
unicode = 37;
},
{
glyphname = ampersand;
kernLeft = ampersand;
kernRight = ampersand;
layers = (
{
hints = (
{
horizontal = 1;
place = (-9, 149);
place = (-9, 149);
type = Stem;
},
{
horizontal = 1;
place = (600, 128);
place = (600, 128);
type = Stem;
},
{
place = (24, 195);
place = (24, 195);
type = Stem;
},
{
place = (405, 162);
place = (405, 162);
type = Stem;
},
{
horizontal = 1;
place = (0, 21);
target = up;
type = BottomGhost;
},
{
horizontal = 1;
place = (0, 161);
place = (0, 161);
type = Stem;
},
{
place = (132, 172);
place = (132, 172);
type = Stem;
}
);
layerId = m01;
shapes = (
{
closed = 1;
nodes = (
(359,-9,o),
(420,11,o),
(474,43,c),
(507,0,l),
(740,0,l),
(607,161,l),
(656,223,o),
(687,291,o),
(695,349,c),
(533,349,l),
(527,327,o),
(518,305,o),
(507,284,c),
(430,378,l),
(500,408,o),
(567,457,o),
(567,548,cs),
(567,661,o),
(476,728,o),
(350,728,cs),
(212,728,o),
(132,650,o),
(132,545,cs),
(132,493,o),
(155,448,o),
(183,416,c),
(100,381,o),
(24,328,o),
(24,211,cs),
(24,85,o),
(120,-9,o),
(294,-9,cs)
);
},
{
closed = 1;
nodes = (
(253,140,o),
(219,169,o),
(219,215,cs),
(219,252,o),
(233,281,o),
(272,304,c),
(383,160,l),
(358,147,o),
(331,140,o),
(304,140,cs)
);
},
{
closed = 1;
nodes = (
(304,578,o),
(322,600,o),
(355,600,cs),
(387,600,o),
(405,575,o),
(405,547,cs),
(405,515,o),
(387,488,o),
(351,469,c),
(325,490,o),
(304,516,o),
(304,548,cs)
);
}
);
width = 737;
}
);
note = ampersand;
unicode = 38;
},
{
glyphname = quotesingle;
kernLeft = quotedbl;
kernRight = quotedbl;
layers = (
{
hints = (
{
horizontal = 1;
place = (428, 287);
place = (428, 287);
type = Stem;
},
{
place = (40, 164);
place = (40, 164);
type = Stem;
}
);
layerId = m01;
shapes = (
{
closed = 1;
nodes = (
(40,428,l),
(204,428,l),
(204,715,l),
(40,715,l)
);
}
);
width = 244;
}
);
note = quotesingle;
unicode = 39;
},
{
glyphname = parenleft;
kernRight = parenleft;
layers = (
{
hints = (
{
horizontal = 1;
place = (-144, 898);
place = (-144, 898);
type = Stem;
},
{
place = (46, 180);
place = (46, 180);
type = Stem;
}
);
layerId = m01;
shapes = (
{
closed = 1;
nodes = (
(314,-144,l),
(275,-43,o),
(226,99,o),
(226,282,cs),
(226,482,o),
(267,636,o),
(314,754,c),
(154,754,l),
(93,651,o),
(46,474,o),
(46,282,cs),
(46,104,o),
(98,-46,o),
(154,-144,c)
);
}
);
width = 335;
}
);
note = parenleft;
unicode = 40;
},
{
glyphname = parenright;
kernLeft = parenright;
layers = (
{
hints = (
{
horizontal = 1;
place = (-144, 898);
place = (-144, 898);
type = Stem;
},
{
place = (109, 180);
place = (109, 180);
type = Stem;
}
);
layerId = m01;
shapes = (
{
closed = 1;
nodes = (
(181,-144,l),
(242,-41,o),
(289,136,o),
(289,328,cs),
(289,506,o),
(237,656,o),
(181,754,c),
(21,754,l),
(60,653,o),
(109,511,o),
(109,328,cs),
(109,128,o),
(68,-26,o),
(21,-144,c)
);
}
);
width = 335;
}
);
note = parenright;
unicode = 41;
},
{
glyphname = asterisk;
kernLeft = asterisk;
kernRight = asterisk;
layers = (
{
hints = (
{
horizontal = 1;
place = (524, -20);
target = down;
type = TopGhost;
},
{
horizontal = 1;
place = (715, -20);
target = down;
type = TopGhost;
},
{
place = (185, 110);
place = (185, 110);
type = Stem;
}
);
layerId = m01;
shapes = (
{
closed = 1;
nodes = (
(161,315,l),
(241,425,l),
(321,315,l),
(404,377,l),
(324,482,l),
(451,524,l),
(414,622,l),
(295,579,l),
(295,715,l),
(185,715,l),
(185,579,l),
(66,622,l),
(29,524,l),
(156,482,l),
(76,377,l)
);
}
);
width = 480;
}
);
note = asterisk;
unicode = 42;
},
{
glyphname = plus;
kernLeft = minus;
kernRight = minus;
layers = (
{
hints = (
{
horizontal = 1;
place = (249, 163);
place = (249, 163);
type = Stem;
},
{
place = (194, 175);
place = (194, 175);
type = Stem;
}
);
layerId = m01;
shapes = (
{
closed = 1;
nodes = (
(45,249,l),
(194,249,l),
(194,83,l),
(369,83,l),
(369,249,l),
(518,249,l),
(518,412,l),
(369,412,l),
(369,576,l),
(194,576,l),
(194,412,l),
(45,412,l)
);
}
);
width = 563;
}
);
note = plus;
unicode = 43;
},
{
glyphname = comma;
kernLeft = comma;
kernRight = comma;
layers = (
{
hints = (
{
horizontal = 1;
place = (0, 191);
place = (0, 191);
type = Stem;
},
{
place = (28, 195);
place = (28, 195);
type = Stem;
}
);
layerId = m01;
shapes = (
{
closed = 1;
nodes = (
(30,-191,l),
(87,-192,o),
(138,-172,o),
(173,-135,cs),
(206,-100,o),
(223,-56,o),
(223,18,cs),
(223,191,l),
(28,191,l),
(28,0,l),
(114,0,l),
(114,-52,o),
(88,-96,o),
(30,-102,c)
);
}
);
width = 251;
}
);
note = comma;
unicode = 44;
},
{
glyphname = hyphen;
kernLeft = hyphen;
kernRight = hyphen;
layers = (
{
hints = (
{
horizontal = 1;
place = (173, 163);
place = (173, 163);
type = Stem;
},
{
place = (29, 273);
place = (29, 273);
type = Stem;
}
);
layerId = m01;
shapes = (
{
closed = 1;
nodes = (
(29,173,l),
(302,173,l),
(302,336,l),
(29,336,l)
);
}
);
width = 331;
}
);
note = hyphen;
unicode = 45;
},
{
glyphname = period;
kernLeft = comma;
kernRight = comma;
layers = (
{
hints = (
{
horizontal = 1;
place = (0, 191);
place = (0, 191);
type = Stem;
},
{
place = (28, 195);
place = (28, 195);
type = Stem;
}
);
layerId = m01;
shapes = (
{
closed = 1;
nodes = (
(28,0,l),
(223,0,l),
(223,191,l),
(28,191,l)
);
}
);
width = 251;
}
);
note = period;
unicode = 46;
},
{
glyphname = slash;
kernLeft = slash;
kernRight = slash;
layers = (
{
hints = (
{
horizontal = 1;
place = (0, 21);
target = up;
type = BottomGhost;
},
{
horizontal = 1;
place = (715, -20);
target = down;
type = TopGhost;
},
{
place = (10, 427);
place = (10, 427);
type = Stem;
}
);
layerId = m01;
shapes = (
{
closed = 1;
nodes = (
(10,0,l),
(183,0,l),
(437,715,l),
(264,715,l)
);
}
);
width = 459;
}
);
note = slash;
unicode = 47;
},
{
glyphname = zero;
kernLeft = zero;
kernRight = zero;
layers = (
{
hints = (
{
horizontal = 1;
place = (-16, 148);
place = (-16, 148);
type = Stem;
},
{
horizontal = 1;
place = (553, 146);
place = (553, 146);
type = Stem;
},
{
place = (17, 205);
place = (17, 205);
type = Stem;
},
{
place = (452, 205);
place = (452, 205);
type = Stem;
}
);
layerId = m01;
shapes = (
{
closed = 1;
nodes = (
(521,-16,o),
(657,123,o),
(657,341,cs),
(657,558,o),
(528,699,o),
(336,699,cs),
(151,699,o),
(17,558,o),
(17,341,cs),
(17,123,o),
(155,-16,o),
(336,-16,cs)
);
},
{
closed = 1;
nodes = (
(254,132,o),
(222,218,o),
(222,341,cs),
(222,463,o),
(254,553,o),
(337,553,cs),
(420,553,o),
(452,463,o),
(452,341,cs),
(452,218,o),
(420,132,o),
(337,132,cs)
);
}
);
width = 674;
}
);
note = zero;
unicode = 48;
},
{
glyphname = one;
kernLeft = one;
layers = (
{
hints = (
{
horizontal = 1;
place = (0, 21);
target = up;
type = BottomGhost;
},
{
horizontal = 1;
place = (398, 137);
place = (398, 137);
type = Stem;
},
{
horizontal = 1;
place = (691, -20);
target = down;
type = TopGhost;
},
{
place = (164, 200);
place = (164, 200);
type = Stem;
}
);
layerId = m01;
shapes = (
{
closed = 1;
nodes = (
(164,0,l),
(364,0,l),
(364,691,l),
(215,691,l),
(195,594,o),
(123,539,o),
(24,535,c),
(24,398,l),
(164,398,l)
);
}
);
width = 420;
}
);
note = one;
unicode = 49;
},
{
glyphname = two;
kernLeft = two;
kernRight = two;
layers = (
{
hints = (
{
horizontal = 1;
place = (0, 165);
place = (0, 165);
type = Stem;
},
{
horizontal = 1;
place = (542, 157);
place = (542, 157);
type = Stem;
},
{
place = (28, 188);
place = (28, 188);
type = Stem;
},
{
place = (396, 197);
place = (396, 197);
type = Stem;
}
);
layerId = m01;
shapes = (
{
closed = 1;
nodes = (
(589,0,l),
(589,165,l),
(309,165,l),
(309,167,l),
(382,225,o),
(469,265,o),
(537,331,cs),
(576,369,o),
(593,418,o),
(593,479,cs),
(593,604,o),
(500,699,o),
(318,699,cs),
(187,699,o),
(100,648,o),
(62,580,cs),
(36,534,o),
(28,499,o),
(28,418,c),
(216,418,l),
(216,463,o),
(224,489,o),
(242,512,cs),
(258,533,o),
(281,542,o),
(314,542,cs),
(368,542,o),
(396,514,o),
(396,471,cs),
(396,434,o),
(374,406,o),
(336,380,cs),
(261,329,o),
(162,265,o),
(95,204,cs),
(37,151,o),
(17,98,o),
(17,0,c)
);
}
);
width = 614;
}
);
note = two;
unicode = 50;
},
{
glyphname = three;
kernLeft = three;
kernRight = three;
layers = (
{
hints = (
{
horizontal = 1;
place = (-17, 149);
place = (-17, 149);
type = Stem;
},
{
horizontal = 1;
place = (285, 130);
place = (285, 130);
type = Stem;
},
{
horizontal = 1;
place = (551, 148);
place = (551, 148);
type = Stem;
},
{
place = (411, 200);
place = (411, 200);
type = Stem;
},
{
place = (399, 194);
place = (399, 194);
type = Stem;
}
);
layerId = m01;
shapes = (
{
closed = 1;
nodes = (
(473,-17,o),
(611,49,o),
(611,201,cs),
(611,290,o),
(564,340,o),
(501,366,c),
(501,368,l),
(556,394,o),
(593,434,o),
(593,498,cs),
(593,626,o),
(479,699,o),
(319,699,cs),
(138,699,o),
(33,599,o),
(33,463,c),
(217,463,l),
(222,509,o),
(247,551,o),
(316,551,cs),
(369,551,o),
(399,525,o),
(399,485,cs),
(399,438,o),
(360,415,o),
(297,415,cs),
(263,415,l),
(263,285,l),
(303,285,ls),
(368,285,o),
(411,264,o),
(411,210,cs),
(411,167,o),
(380,132,o),
(317,132,cs),
(239,132,o),
(203,177,o),
(201,240,c),
(12,240,l),
(12,157,o),
(41,90,o),
(97,45,cs),
(149,3,o),
(222,-17,o),
(326,-17,cs)
);
}
);
width = 630;
}
);
note = three;
unicode = 51;
},
{
glyphname = four;
kernLeft = four;
kernRight = four;
layers = (
{
hints = (
{
horizontal = 1;
place = (0, 21);
target = up;
type = BottomGhost;
},
{
horizontal = 1;
place = (154, 147);
place = (154, 147);
type = Stem;
},
{
horizontal = 1;
place = (691, -20);
target = down;
type = TopGhost;
},
{
place = (340, 194);
place = (340, 194);
type = Stem;
}
);
layerId = m01;
shapes = (
{
closed = 1;
nodes = (
(340,0,l),
(534,0,l),
(534,154,l),
(628,154,l),
(628,301,l),
(534,301,l),
(534,691,l),
(341,691,l),
(18,317,l),
(18,154,l),
(340,154,l)
);
},
{
closed = 1;
nodes = (
(162,303,l),
(338,506,l),
(340,506,l),
(340,301,l),
(162,301,l)
);
}
);
width = 644;
}
);
note = four;
unicode = 52;
},
{
glyphname = five;
kernLeft = five;
kernRight = five;
layers = (
{
hints = (
{
horizontal = 1;
place = (-17, 154);
place = (-17, 154);
type = Stem;
},
{
horizontal = 1;
place = (341, 130);
place = (341, 130);
type = Stem;
},
{
horizontal = 1;
place = (528, 157);
place = (528, 157);
type = Stem;
},
{
place = (407, 199);
place = (407, 199);
type = Stem;
},
{
horizontal = 1;
place = (300, 132);
place = (300, 132);
type = Stem;
}
);
layerId = m01;
shapes = (
{
closed = 1;
nodes = (
(495,-17,o),
(606,79,o),
(606,240,cs),
(606,381,o),
(507,471,o),
(365,471,cs),
(304,471,o),
(261,451,o),
(241,432,c),
(239,432,l),
(261,528,l),
(560,528,l),
(560,685,l),
(114,685,l),
(41,300,l),
(226,300,l),
(242,324,o),
(274,341,o),
(310,341,cs),
(370,341,o),
(407,301,o),
(407,242,cs),
(407,177,o),
(370,137,o),
(311,137,cs),
(261,137,o),
(219,163,o),
(208,211,c),
(13,211,l),
(31,52,o),
(155,-17,o),
(316,-17,cs)
);
}
);
width = 627;
}
);
note = five;
unicode = 53;
},
{
glyphname = six;
kernLeft = six;
kernRight = six;
layers = (
{
hints = (
{
horizontal = 1;
place = (-16, 143);
place = (-16, 143);
type = Stem;
},
{
horizontal = 1;
place = (333, 139);
place = (333, 139);
type = Stem;
},
{
horizontal = 1;
place = (563, 136);
place = (563, 136);
type = Stem;
},
{
place = (18, 205);
place = (18, 205);
type = Stem;
},
{
place = (435, 190);
place = (435, 190);
type = Stem;
},
{
horizontal = 1;
place = (509, 190);
place = (509, 190);
type = Stem;
}
);
layerId = m01;
shapes = (
{
closed = 1;
nodes = (
(507,-16,o),
(625,80,o),
(625,230,cs),
(625,379,o),
(507,472,o),
(370,472,cs),
(301,472,o),
(254,449,o),
(216,413,c),
(214,413,l),
(224,511,o),
(269,563,o),
(337,563,cs),
(388,563,o),
(407,536,o),
(416,509,c),
(608,509,l),
(582,629,o),
(485,699,o),
(337,699,cs),
(235,699,o),
(154,663,o),
(100,601,cs),
(44,537,o),
(18,444,o),
(18,341,cs),
(18,119,o),
(130,-16,o),
(336,-16,cs)
);
},
{
closed = 1;
nodes = (
(266,127,o),
(223,171,o),
(223,230,cs),
(223,289,o),
(266,333,o),
(329,333,cs),
(393,333,o),
(435,289,o),
(435,230,cs),
(435,171,o),
(393,127,o),
(329,127,cs)
);
}
);
width = 641;
}
);
note = six;
unicode = 54;
},
{
glyphname = seven;
kernLeft = seven;
kernRight = seven;
layers = (
{
hints = (
{
horizontal = 1;
place = (0, 21);
target = up;
type = BottomGhost;
},
{
horizontal = 1;
place = (515, 170);
place = (515, 170);
type = Stem;
},
{
place = (111, 205);
place = (111, 205);
type = Stem;
},
{
horizontal = 1;
place = (537, 148);
place = (537, 148);
type = Stem;
}
);
layerId = m01;
shapes = (
{
closed = 1;
nodes = (
(316,0,l),
(320,221,o),
(424,420,o),
(541,537,c),
(541,685,l),
(15,685,l),
(15,515,l),
(335,515,l),
(335,513,l),
(244,423,o),
(121,246,o),
(111,0,c)
);
}
);
width = 559;
}
);
note = seven;
unicode = 55;
},
{
glyphname = eight;
kernLeft = eight;
kernRight = eight;
layers = (
{
hints = (
{
horizontal = 1;
place = (-17, 140);
place = (-17, 140);
type = Stem;
},
{
horizontal = 1;
place = (298, 119);
place = (298, 119);
type = Stem;
},
{
horizontal = 1;
place = (570, 129);
place = (570, 129);
type = Stem;
},
{
place = (14, 194);
place = (14, 194);
type = Stem;
},
{
place = (412, 195);
place = (412, 195);
type = Stem;
},
{
place = (41, 179);
place = (41, 179);
type = Stem;
},
{
place = (399, 179);
place = (399, 179);
type = Stem;
}
);
layerId = m01;
shapes = (
{
closed = 1;
nodes = (
(493,-17,o),
(607,69,o),
(607,196,cs),
(607,270,o),
(569,331,o),
(494,362,c),
(494,365,l),
(547,397,o),
(578,447,o),
(578,503,cs),
(578,620,o),
(479,699,o),
(309,699,cs),
(140,699,o),
(41,611,o),
(41,499,cs),
(41,439,o),
(69,389,o),
(127,358,c),
(127,355,l),
(54,321,o),
(14,264,o),
(14,193,cs),
(14,71,o),
(125,-17,o),
(309,-17,cs)
);
},
{
closed = 1;
nodes = (
(252,123,o),
(208,157,o),
(208,210,cs),
(208,263,o),
(252,298,o),
(311,298,cs),
(370,298,o),
(412,263,o),
(412,210,cs),
(412,157,o),
(370,123,o),
(311,123,cs)
);
},
{
closed = 1;
nodes = (
(254,417,o),
(220,449,o),
(220,493,cs),
(220,537,o),
(254,570,o),
(309,570,cs),
(364,570,o),
(399,537,o),
(399,493,cs),
(399,449,o),
(364,417,o),
(309,417,cs)
);
}
);
width = 621;
}
);
note = eight;
unicode = 56;
},
{
glyphname = nine;
kernLeft = nine;
kernRight = nine;
layers = (
{
hints = (
{
horizontal = 1;
place = (-16, 136);
place = (-16, 136);
type = Stem;
},
{
horizontal = 1;
place = (207, 139);
place = (207, 139);
type = Stem;
},
{
horizontal = 1;
place = (556, 143);
place = (556, 143);
type = Stem;
},
{
place = (16, 190);
place = (16, 190);
type = Stem;
},
{
place = (418, 200);
place = (418, 200);
type = Stem;
}
);
layerId = m01;
shapes = (
{
closed = 1;
nodes = (
(411,-16,o),
(484,14,o),
(538,76,cs),
(593,140,o),
(618,239,o),
(618,342,cs),
(618,475,o),
(587,572,o),
(513,632,cs),
(464,672,o),
(390,699,o),
(310,699,cs),
(138,699,o),
(16,601,o),
(16,451,cs),
(16,302,o),
(134,207,o),
(271,207,cs),
(338,207,o),
(385,233,o),
(419,266,c),
(421,266,l),
(416,167,o),
(373,120,o),
(306,120,cs),
(254,120,o),
(228,149,o),
(218,176,c),
(30,176,l),
(53,59,o),
(158,-16,o),
(310,-16,cs)
);
},
{
closed = 1;
nodes = (
(248,346,o),
(206,392,o),
(206,451,cs),
(206,510,o),
(248,556,o),
(312,556,cs),
(375,556,o),
(418,510,o),
(418,451,cs),
(418,392,o),
(375,346,o),
(312,346,cs)
);
}
);
width = 636;
}
);
note = nine;
unicode = 57;
},
{
glyphname = colon;
kernLeft = colon;
kernRight = colon;
layers = (
{
hints = (
{
horizontal = 1;
place = (0, 191);
place = (0, 191);
type = Stem;
},
{
horizontal = 1;
place = (319, 191);
place = (319, 191);
type = Stem;
},
{
place = (31, 195);
place = (31, 195);
type = Stem;
}
);
layerId = m01;
shapes = (
{
closed = 1;
nodes = (
(31,319,l),
(226,319,l),
(226,510,l),
(31,510,l)
);
},
{
closed = 1;
nodes = (
(31,0,l),
(226,0,l),
(226,191,l),
(31,191,l)
);
}
);
width = 257;
}
);
note = colon;
unicode = 58;
},
{
glyphname = semicolon;
kernLeft = colon;
kernRight = colon;
layers = (
{
hints = (
{
horizontal = 1;
place = (0, 191);
place = (0, 191);
type = Stem;
},
{
horizontal = 1;
place = (319, 191);
place = (319, 191);
type = Stem;
},
{
place = (31, 195);
place = (31, 195);
type = Stem;
}
);
layerId = m01;
shapes = (
{
closed = 1;
nodes = (
(33,-191,l),
(90,-192,o),
(141,-172,o),
(176,-135,cs),
(209,-100,o),
(226,-56,o),
(226,18,cs),
(226,191,l),
(31,191,l),
(31,0,l),
(117,0,l),
(117,-52,o),
(91,-96,o),
(33,-102,c)
);
},
{
closed = 1;
nodes = (
(31,319,l),
(226,319,l),
(226,510,l),
(31,510,l)
);
}
);
width = 257;
}
);
note = semicolon;
unicode = 59;
},
{
glyphname = less;
layers = (
{
hints = (
{
horizontal = 1;
place = (45, 526);
place = (45, 526);
type = Stem;
},
{
place = (41, 413);
place = (41, 413);
type = Stem;
}
);
layerId = m01;
shapes = (
{
closed = 1;
nodes = (
(454,45,l),
(454,226,l),
(306,276,ls),
(265,290,o),
(211,305,o),
(211,305,c),
(211,307,l),
(211,307,o),
(266,326,o),
(306,341,cs),
(454,398,l),
(454,571,l),
(41,398,l),
(41,218,l)
);
}
);
width = 503;
}
);
note = less;
unicode = 60;
},
{
glyphname = equal;
layers = (
{
hints = (
{
horizontal = 1;
place = (115, 156);
place = (115, 156);
type = Stem;
},
{
horizontal = 1;
place = (345, 156);
place = (345, 156);
type = Stem;
},
{
place = (45, 473);
place = (45, 473);
type = Stem;
}
);
layerId = m01;
shapes = (
{
closed = 1;
nodes = (
(45,345,l),
(518,345,l),
(518,501,l),
(45,501,l)
);
},
{
closed = 1;
nodes = (
(45,115,l),
(518,115,l),
(518,271,l),
(45,271,l)
);
}
);
width = 563;
}
);
note = equal;
unicode = 61;
},
{
glyphname = greater;
layers = (
{
hints = (
{
horizontal = 1;
place = (45, 526);
place = (45, 526);
type = Stem;
},
{
place = (49, 413);
place = (49, 413);
type = Stem;
}
);
layerId = m01;
shapes = (
{
closed = 1;
nodes = (
(49,45,l),
(462,218,l),
(462,398,l),
(49,571,l),
(49,390,l),
(197,340,ls),
(238,326,o),
(292,311,o),
(292,311,c),
(292,309,l),
(292,309,o),
(237,290,o),
(197,275,cs),
(49,218,l)
);
}
);
width = 503;
}
);
note = greater;
unicode = 62;
},
{
glyphname = question;
kernLeft = question;
layers = (
{
hints = (
{
horizontal = 1;
place = (0, 191);
place = (0, 191);
type = Stem;
},
{
horizontal = 1;
place = (573, 155);
place = (573, 155);
type = Stem;
},
{
place = (169, 195);
place = (169, 195);
type = Stem;
},
{
place = (188, 167);
place = (188, 167);
type = Stem;
},
{
place = (10, 192);
place = (10, 192);
type = Stem;
},
{
place = (343, 207);
place = (343, 207);
type = Stem;
}
);
layerId = m01;
shapes = (
{
closed = 1;
nodes = (
(355,258,l),
(355,287,o),
(357,303,o),
(370,321,cs),
(384,340,o),
(411,351,o),
(456,376,cs),
(502,402,o),
(550,440,o),
(550,528,cs),
(550,652,o),
(439,728,o),
(294,728,cs),
(124,728,o),
(12,641,o),
(10,491,c),
(202,491,l),
(202,542,o),
(234,573,o),
(279,573,cs),
(314,573,o),
(343,554,o),
(343,521,cs),
(343,459,o),
(268,453,o),
(222,403,cs),
(188,366,o),
(188,345,o),
(188,258,c)
);
},
{
closed = 1;
nodes = (
(169,0,l),
(364,0,l),
(364,191,l),
(169,191,l)
);
}
);
width = 568;
}
);
note = question;
unicode = 63;
},
{
glyphname = at;
kernLeft = at;
kernRight = at;
layers = (
{
hints = (
{
horizontal = 1;
place = (-109, 96);
place = (-109, 96);
type = Stem;
},
{
horizontal = 1;
place = (84, 118);
place = (84, 118);
type = Stem;
},
{
horizontal = 1;
place = (400, 105);
place = (400, 105);
type = Stem;
},
{
horizontal = 1;
place = (619, 95);
place = (619, 95);
type = Stem;
},
{
place = (33, 113);
place = (33, 113);
type = Stem;
},
{
place = (231, 160);
place = (231, 160);
type = Stem;
},
{
place = (781, 111);
place = (781, 111);
type = Stem;
},
{
horizontal = 1;
place = (76, 97);
place = (76, 97);
type = Stem;
}
);
layerId = m01;
shapes = (
{
closed = 1;
nodes = (
(451,84,o),
(494,112,o),
(522,159,c),
(524,159,l),
(547,102,o),
(604,76,o),
(677,76,cs),
(796,76,o),
(892,164,o),
(892,334,cs),
(892,576,o),
(704,714,o),
(479,714,cs),
(254,714,o),
(33,562,o),
(33,281,cs),
(33,42,o),
(213,-109,o),
(451,-109,cs),
(528,-109,o),
(601,-97,o),
(666,-68,c),
(631,22,l),
(578,2,o),
(515,-13,o),
(455,-13,cs),
(257,-13,o),
(146,110,o),
(146,283,cs),
(146,496,o),
(298,619,o),
(479,619,cs),
(657,619,o),
(781,525,o),
(781,332,cs),
(781,209,o),
(731,173,o),
(692,173,cs),
(665,173,o),
(652,194,o),
(657,238,cs),
(688,505,l),
(539,505,l),
(532,446,l),
(530,446,l),
(510,491,o),
(478,517,o),
(422,517,cs),
(301,517,o),
(231,416,o),
(231,280,cs),
(231,159,o),
(294,84,o),
(393,84,cs)
);
},
{
closed = 1;
nodes = (
(407,202,o),
(391,238,o),
(391,284,cs),
(391,350,o),
(422,400,o),
(465,400,cs),
(499,400,o),
(519,364,o),
(519,318,cs),
(519,249,o),
(487,202,o),
(444,202,cs)
);
}
);
width = 916;
}
);
note = at;
unicode = 64;
},
{
glyphname = A;
kernLeft = A;
kernRight = A;
layers = (
{
hints = (
{
horizontal = 1;
place = (0, 21);
target = up;
type = BottomGhost;
},
{
horizontal = 1;
place = (105, 144);
place = (105, 144);
type = Stem;
},
{
horizontal = 1;
place = (715, -20);
target = down;
type = TopGhost;
},
{
place = (-4, 742);
place = (-4, 742);
type = Stem;
}
);
layerId = m01;
shapes = (
{
closed = 1;
nodes = (
(-4,0,l),
(204,0,l),
(239,105,l),
(481,105,l),
(516,0,l),
(738,0,l),
(473,715,l),
(260,715,l)
);
},
{
closed = 1;
nodes = (
(333,389,ls),
(345,424,o),
(360,481,o),
(360,481,c),
(362,481,l),
(362,481,o),
(378,424,o),
(389,389,cs),
(434,249,l),
(286,249,l)
);
}
);
width = 734;
}
);
note = A;
unicode = 65;
},
{
glyphname = B;
layers = (
{
hints = (
{
horizontal = 1;
place = (0, 164);
place = (0, 164);
type = Stem;
},
{
horizontal = 1;
place = (303, 134);
place = (303, 134);
type = Stem;
},
{
horizontal = 1;
place = (553, 162);
place = (553, 162);
type = Stem;
},
{
place = (43, 205);
place = (43, 205);
type = Stem;
},
{
place = (473, 202);
place = (473, 202);
type = Stem;
},
{
place = (445, 196);
place = (445, 196);
type = Stem;
}
);
layerId = m01;
shapes = (
{
closed = 1;
nodes = (
(43,0,l),
(420,0,ls),
(494,0,o),
(550,15,o),
(593,45,cs),
(644,81,o),
(675,139,o),
(675,216,cs),
(675,297,o),
(630,363,o),
(552,388,c),
(552,391,l),
(612,417,o),
(641,460,o),
(641,528,cs),
(641,587,o),
(616,636,o),
(573,669,cs),
(535,698,o),
(483,715,o),
(413,715,cs),
(43,715,l)
);
},
{
closed = 1;
nodes = (
(248,164,l),
(248,303,l),
(396,303,ls),
(439,303,o),
(473,280,o),
(473,234,cs),
(473,191,o),
(442,164,o),
(397,164,cs)
);
},
{
closed = 1;
nodes = (
(248,437,l),
(248,553,l),
(377,553,ls),
(417,553,o),
(445,531,o),
(445,494,cs),
(445,456,o),
(418,437,o),
(378,437,cs)
);
}
);
width = 685;
}
);
note = B;
unicode = 66;
},
{
glyphname = C;
kernLeft = C;
kernRight = C;
layers = (
{
hints = (
{
horizontal = 1;
place = (-17, 171);
place = (-17, 171);
type = Stem;
},
{
horizontal = 1;
place = (556, 172);
place = (556, 172);
type = Stem;
},
{
place = (15, 212);
place = (15, 212);
type = Stem;
}
);
layerId = m01;
shapes = (
{
closed = 1;
nodes = (
(481,-17,o),
(557,9,o),
(618,68,cs),
(669,117,o),
(705,187,o),
(711,266,c),
(500,266,l),
(493,202,o),
(449,154,o),
(376,154,cs),
(283,154,o),
(227,238,o),
(227,355,cs),
(227,472,o),
(275,556,o),
(374,556,cs),
(442,556,o),
(489,506,o),
(494,450,c),
(703,450,l),
(694,541,o),
(651,621,o),
(577,672,cs),
(525,708,o),
(455,728,o),
(377,728,cs),
(162,728,o),
(15,569,o),
(15,355,cs),
(15,141,o),
(159,-17,o),
(377,-17,cs)
);
}
);
width = 719;
}
);
note = C;
unicode = 67;
},
{
glyphname = D;
kernRight = Eth;
layers = (
{
hints = (
{
horizontal = 1;
place = (0, 173);
place = (0, 173);
type = Stem;
},
{
horizontal = 1;
place = (542, 173);
place = (542, 173);
type = Stem;
},
{
place = (43, 209);
place = (43, 209);
type = Stem;
},
{
place = (510, 212);
place = (510, 212);
type = Stem;
}
);
layerId = m01;
shapes = (
{
closed = 1;
nodes = (
(43,0,l),
(364,0,ls),
(586,0,o),
(722,128,o),
(722,356,cs),
(722,583,o),
(579,715,o),
(373,715,cs),
(43,715,l)
);
},
{
closed = 1;
nodes = (
(252,173,l),
(252,542,l),
(347,542,ls),
(447,542,o),
(510,474,o),
(510,356,cs),
(510,235,o),
(443,173,o),
(347,173,cs)
);
}
);
width = 737;
}
);
note = D;
unicode = 68;
},
{
glyphname = E;
kernRight = E;
layers = (
{
hints = (
{
horizontal = 1;
place = (0, 179);
place = (0, 179);
type = Stem;
},
{
horizontal = 1;
place = (291, 157);
place = (291, 157);
type = Stem;
},
{
horizontal = 1;
place = (545, 170);
place = (545, 170);
type = Stem;
},
{
place = (43, 209);
place = (43, 209);
type = Stem;
}
);
layerId = m01;
shapes = (
{
closed = 1;
nodes = (
(43,0,l),
(610,0,l),
(610,179,l),
(252,179,l),
(252,291,l),
(543,291,l),
(543,448,l),
(252,448,l),
(252,545,l),
(600,545,l),
(600,715,l),
(43,715,l)
);
}
);
width = 637;
}
);
note = E;
unicode = 69;
},
{
glyphname = F;
kernRight = F;
layers = (
{
hints = (
{
horizontal = 1;
place = (0, 21);
target = up;
type = BottomGhost;
},
{
horizontal = 1;
place = (260, 162);
place = (260, 162);
type = Stem;
},
{
horizontal = 1;
place = (539, 176);
place = (539, 176);
type = Stem;
},
{
place = (43, 209);
place = (43, 209);
type = Stem;
}
);
layerId = m01;
shapes = (
{
closed = 1;
nodes = (
(43,0,l),
(252,0,l),
(252,260,l),
(535,260,l),
(535,422,l),
(252,422,l),
(252,539,l),
(594,539,l),
(594,715,l),
(43,715,l)
);
}
);
width = 610;
}
);
note = F;
unicode = 70;
},
{
glyphname = G;
kernLeft = C;
kernRight = G;
layers = (
{
hints = (
{
horizontal = 1;
place = (0, 21);
target = up;
type = BottomGhost;
},
{
horizontal = 1;
place = (240, 148);
place = (240, 148);
type = Stem;
},
{
horizontal = 1;
place = (556, 172);
place = (556, 172);
type = Stem;
},
{
place = (15, 212);
place = (15, 212);
type = Stem;
},
{
place = (417, 295);
place = (417, 295);
type = Stem;
},
{
horizontal = 1;
place = (-17, 168);
place = (-17, 168);
type = Stem;
}
);
layerId = m01;
shapes = (
{
closed = 1;
nodes = (
(573,0,l),
(712,0,l),
(712,388,l),
(417,388,l),
(417,240,l),
(512,240,l),
(499,192,o),
(462,151,o),
(386,151,cs),
(285,151,o),
(227,238,o),
(227,355,cs),
(227,472,o),
(278,556,o),
(378,556,cs),
(442,556,o),
(485,518,o),
(496,472,c),
(698,472,l),
(675,631,o),
(557,728,o),
(370,728,cs),
(149,728,o),
(15,566,o),
(15,355,cs),
(15,244,o),
(48,148,o),
(114,78,cs),
(172,16,o),
(254,-17,o),
(350,-17,cs),
(437,-17,o),
(510,11,o),
(555,76,c),
(557,76,l)
);
}
);
width = 740;
}
);
note = G;
unicode = 71;
},
{
glyphname = H;
kernRight = H;
layers = (
{
hints = (
{
horizontal = 1;
place = (0, 21);
target = up;
type = BottomGhost;
},
{
horizontal = 1;
place = (280, 173);
place = (280, 173);
type = Stem;
},
{
horizontal = 1;
place = (715, -20);
target = down;
type = TopGhost;
},
{
place = (43, 209);
place = (43, 209);
type = Stem;
},
{
place = (472, 209);
place = (472, 209);
type = Stem;
}
);
layerId = m01;
shapes = (
{
closed = 1;
nodes = (
(43,0,l),
(252,0,l),
(252,280,l),
(472,280,l),
(472,0,l),
(681,0,l),
(681,715,l),
(472,715,l),
(472,453,l),
(252,453,l),
(252,715,l),
(43,715,l)
);
}
);
width = 724;
}
);
note = H;
unicode = 72;
},
{
glyphname = I;
kernRight = H;
layers = (
{
hints = (
{
horizontal = 1;
place = (0, 21);
target = up;
type = BottomGhost;
},
{
horizontal = 1;
place = (715, -20);
target = down;
type = TopGhost;
},
{
place = (43, 209);
place = (43, 209);
type = Stem;
}
);
layerId = m01;
shapes = (
{
closed = 1;
nodes = (
(43,0,l),
(252,0,l),
(252,715,l),
(43,715,l)
);
}
);
width = 295;
}
);
note = I;
unicode = 73;
},
{
glyphname = J;
kernLeft = J;
kernRight = J;
layers = (
{
hints = (
{
horizontal = 1;
place = (-13, 174);
place = (-13, 174);
type = Stem;
},
{
horizontal = 1;
place = (715, -20);
target = down;
type = TopGhost;
},
{
place = (8, 193);
place = (8, 193);
type = Stem;
},
{
place = (327, 209);
place = (327, 209);
type = Stem;
}
);
layerId = m01;
shapes = (
{
closed = 1;
nodes = (
(369,-13,o),
(444,18,o),
(487,68,cs),
(521,108,o),
(536,157,o),
(536,224,cs),
(536,715,l),
(327,715,l),
(327,231,ls),
(327,190,o),
(310,161,o),
(265,161,cs),
(225,161,o),
(201,184,o),
(201,233,cs),
(201,290,l),
(8,290,l),
(8,235,ls),
(8,102,o),
(85,-13,o),
(274,-13,cs)
);
}
);
width = 574;
}
);
note = J;
unicode = 74;
},
{
glyphname = K;
kernRight = K;
layers = (
{
hints = (
{
horizontal = 1;
place = (0, 21);
target = up;
type = BottomGhost;
},
{
horizontal = 1;
place = (715, -20);
target = down;
type = TopGhost;
},
{
place = (43, 209);
place = (43, 209);
type = Stem;
}
);
layerId = m01;
shapes = (
{
closed = 1;
nodes = (
(43,0,l),
(252,0,l),
(252,231,l),
(298,283,l),
(480,0,l),
(723,0,l),
(441,427,l),
(708,715,l),
(468,715,l),
(252,481,l),
(252,715,l),
(43,715,l)
);
}
);
width = 719;
}
);
note = K;
unicode = 75;
},
{
glyphname = L;
kernRight = L;
layers = (
{
hints = (
{
horizontal = 1;
place = (0, 179);
place = (0, 179);
type = Stem;
},
{
horizontal = 1;
place = (715, -20);
target = down;
type = TopGhost;
},
{
place = (43, 209);
place = (43, 209);
type = Stem;
}
);
layerId = m01;
shapes = (
{
closed = 1;
nodes = (
(43,0,l),
(558,0,l),
(558,179,l),
(252,179,l),
(252,715,l),
(43,715,l)
);
}
);
width = 570;
}
);
note = L;
unicode = 76;
},
{
glyphname = M;
kernRight = H;
layers = (
{
hints = (
{
horizontal = 1;
place = (0, 21);
target = up;
type = BottomGhost;
},
{
horizontal = 1;
place = (715, -20);
target = down;
type = TopGhost;
},
{
place = (43, 184);
place = (43, 184);
type = Stem;
},
{
place = (622, 189);
place = (622, 189);
type = Stem;
}
);
layerId = m01;
shapes = (
{
closed = 1;
nodes = (
(43,0,l),
(227,0,l),
(227,448,l),
(229,448,l),
(348,0,l),
(501,0,l),
(620,448,l),
(622,448,l),
(622,0,l),
(811,0,l),
(811,715,l),
(537,715,l),
(427,315,l),
(425,315,l),
(315,715,l),
(43,715,l)
);
}
);
width = 854;
}
);
note = M;
unicode = 77;
},
{
glyphname = N;
kernRight = H;
layers = (
{
hints = (
{
horizontal = 1;
place = (0, 21);
target = up;
type = BottomGhost;
},
{
horizontal = 1;
place = (715, -20);
target = down;
type = TopGhost;
},
{
place = (43, 202);
place = (43, 202);
type = Stem;
},
{
place = (488, 202);
place = (488, 202);
type = Stem;
}
);
layerId = m01;
shapes = (
{
closed = 1;
nodes = (
(43,0,l),
(245,0,l),
(245,405,l),
(247,405,l),
(474,0,l),
(690,0,l),
(690,715,l),
(488,715,l),
(488,313,l),
(486,313,l),
(252,715,l),
(43,715,l)
);
}
);
width = 733;
}
);
note = N;
unicode = 78;
},
{
glyphname = O;
kernLeft = C;
kernRight = O;
layers = (
{
hints = (
{
horizontal = 1;
place = (-17, 167);
place = (-17, 167);
type = Stem;
},
{
horizontal = 1;
place = (561, 167);
place = (561, 167);
type = Stem;
},
{
place = (15, 212);
place = (15, 212);
type = Stem;
},
{
place = (529, 212);
place = (529, 212);
type = Stem;
}
);
layerId = m01;
shapes = (
{
closed = 1;
nodes = (
(599,-17,o),
(741,141,o),
(741,355,cs),
(741,569,o),
(599,728,o),
(377,728,cs),
(155,728,o),
(15,569,o),
(15,355,cs),
(15,141,o),
(155,-17,o),
(377,-17,cs)
);
},
{
closed = 1;
nodes = (
(278,150,o),
(227,238,o),
(227,355,cs),
(227,472,o),
(278,561,o),
(378,561,cs),
(478,561,o),
(529,472,o),
(529,355,cs),
(529,238,o),
(478,150,o),
(378,150,cs)
);
}
);
width = 756;
}
);
note = O;
unicode = 79;
},
{
glyphname = P;
kernRight = P;
layers = (
{
hints = (
{
horizontal = 1;
place = (0, 21);
target = up;
type = BottomGhost;
},
{
horizontal = 1;
place = (218, 162);
place = (218, 162);
type = Stem;
},
{
horizontal = 1;
place = (542, 173);
place = (542, 173);
type = Stem;
},
{
place = (43, 209);
place = (43, 209);
type = Stem;
},
{
place = (448, 208);
place = (448, 208);
type = Stem;
}
);
layerId = m01;
shapes = (
{
closed = 1;
nodes = (
(43,0,l),
(252,0,l),
(252,218,l),
(410,218,ls),
(554,218,o),
(656,322,o),
(656,460,cs),
(656,539,o),
(627,604,o),
(576,649,cs),
(529,691,o),
(463,715,o),
(372,715,cs),
(43,715,l)
);
},
{
closed = 1;
nodes = (
(252,542,l),
(363,542,ls),
(417,542,o),
(448,511,o),
(448,463,cs),
(448,414,o),
(416,380,o),
(365,380,cs),
(252,380,l)
);
}
);
width = 666;
}
);
note = P;
unicode = 80;
},
{
glyphname = Q;
kernLeft = C;
kernRight = Q;
layers = (
{
hints = (
{
horizontal = 1;
place = (-17, 167);
place = (-17, 167);
type = Stem;
},
{
horizontal = 1;
place = (561, 167);
place = (561, 167);
type = Stem;
},
{
place = (15, 212);
place = (15, 212);
type = Stem;
},
{
place = (529, 212);
place = (529, 212);
type = Stem;
}
);
layerId = m01;
shapes = (
{
closed = 1;
nodes = (
(650,-73,l),
(740,18,l),
(655,103,l),
(710,168,o),
(741,255,o),
(741,355,cs),
(741,569,o),
(599,728,o),
(377,728,cs),
(155,728,o),
(15,569,o),
(15,355,cs),
(15,141,o),
(155,-17,o),
(377,-17,cs),
(444,-17,o),
(503,-3,o),
(554,23,c)
);
},
{
closed = 1;
nodes = (
(278,150,o),
(227,238,o),
(227,355,cs),
(227,472,o),
(278,561,o),
(378,561,cs),
(478,561,o),
(529,472,o),
(529,355,cs),
(529,314,o),
(523,278,o),
(511,247,c),
(444,314,l),
(354,223,l),
(421,156,l),
(408,152,o),
(393,150,o),
(378,150,cs)
);
}
);
width = 756;
}
);
note = Q;
unicode = 81;
},
{
glyphname = R;
kernRight = R;
layers = (
{
hints = (
{
horizontal = 1;
place = (0, 11);
place = (0, 11);
type = Stem;
},
{
horizontal = 1;
place = (249, 149);
place = (249, 149);
type = Stem;
},
{
horizontal = 1;
place = (551, 164);
place = (551, 164);
type = Stem;
},
{
place = (43, 209);
place = (43, 209);
type = Stem;
},
{
place = (457, 211);
place = (457, 211);
type = Stem;
}
);
layerId = m01;
shapes = (
{
closed = 1;
nodes = (
(43,0,l),
(252,0,l),
(252,249,l),
(349,249,ls),
(410,249,o),
(434,221,o),
(447,166,cs),
(462,102,o),
(454,14,o),
(474,0,c),
(680,0,l),
(680,11,l),
(654,18,o),
(670,121,o),
(651,207,cs),
(639,263,o),
(609,303,o),
(551,325,c),
(551,328,l),
(626,362,o),
(668,420,o),
(668,502,cs),
(668,648,o),
(544,715,o),
(398,715,cs),
(43,715,l)
);
},
{
closed = 1;
nodes = (
(252,551,l),
(367,551,ls),
(427,551,o),
(457,521,o),
(457,474,cs),
(457,424,o),
(424,398,o),
(364,398,cs),
(252,398,l)
);
}
);
width = 691;
}
);
note = R;
unicode = 82;
},
{
glyphname = S;
kernLeft = Scaron;
kernRight = Scaron;
layers = (
{
hints = (
{
horizontal = 1;
place = (-17, 161);
place = (-17, 161);
type = Stem;
},
{
horizontal = 1;
place = (574, 154);
place = (574, 154);
type = Stem;
},
{
place = (30, 206);
place = (30, 206);
type = Stem;
},
{
place = (431, 213);
place = (431, 213);
type = Stem;
}
);
layerId = m01;
shapes = (
{
closed = 1;
nodes = (
(505,-17,o),
(644,66,o),
(644,222,cs),
(644,374,o),
(524,421,o),
(404,450,cs),
(297,476,o),
(236,482,o),
(236,524,cs),
(236,553,o),
(268,574,o),
(314,574,cs),
(371,574,o),
(399,549,o),
(405,510,c),
(612,510,l),
(609,666,o),
(473,728,o),
(325,728,cs),
(164,728,o),
(30,666,o),
(30,502,cs),
(30,350,o),
(175,309,o),
(295,279,cs),
(383,257,o),
(431,246,o),
(431,203,cs),
(431,160,o),
(381,144,o),
(340,144,cs),
(271,144,o),
(227,171,o),
(220,228,c),
(6,228,l),
(9,63,o),
(150,-17,o),
(336,-17,cs)
);
}
);
width = 658;
}
);
note = S;
unicode = 83;
},
{
glyphname = T;
kernLeft = T;
kernRight = T;
layers = (
{
hints = (
{
horizontal = 1;
place = (0, 21);
target = up;
type = BottomGhost;
},
{
horizontal = 1;
place = (537, 178);
place = (537, 178);
type = Stem;
},
{
place = (217, 209);
place = (217, 209);
type = Stem;
}
);
layerId = m01;
shapes = (
{
closed = 1;
nodes = (
(15,537,l),
(217,537,l),
(217,0,l),
(426,0,l),
(426,537,l),
(631,537,l),
(631,715,l),
(15,715,l)
);
}
);
width = 646;
}
);
note = T;
unicode = 84;
},
{
glyphname = U;
kernLeft = U;
kernRight = U;
layers = (
{
hints = (
{
horizontal = 1;
place = (-13, 167);
place = (-13, 167);
type = Stem;
},
{
horizontal = 1;
place = (715, -20);
target = down;
type = TopGhost;
},
{
place = (38, 209);
place = (38, 209);
type = Stem;
},
{
place = (467, 209);
place = (467, 209);
type = Stem;
}
);
layerId = m01;
shapes = (
{
closed = 1;
nodes = (
(571,-13,o),
(676,97,o),
(676,273,cs),
(676,715,l),
(467,715,l),
(467,265,ls),
(467,200,o),
(431,154,o),
(360,154,cs),
(283,154,o),
(247,195,o),
(247,261,cs),
(247,715,l),
(38,715,l),
(38,273,ls),
(38,94,o),
(142,-13,o),
(357,-13,cs)
);
}
);
width = 714;
}
);
note = U;
unicode = 85;
},
{
glyphname = V;
kernLeft = V;
kernRight = V;
layers = (
{
hints = (
{
horizontal = 1;
place = (0, 21);
target = up;
type = BottomGhost;
},
{
horizontal = 1;
place = (715, -20);
target = down;
type = TopGhost;
},
{
place = (-5, 693);
place = (-5, 693);
type = Stem;
}
);
layerId = m01;
shapes = (
{
closed = 1;
nodes = (
(224,0,l),
(458,0,l),
(688,715,l),
(476,715,l),
(380,379,ls),
(363,318,o),
(345,240,o),
(345,240,c),
(343,240,l),
(343,240,o),
(326,318,o),
(308,379,cs),
(210,715,l),
(-5,715,l)
);
}
);
width = 683;
}
);
note = V;
unicode = 86;
},
{
glyphname = W;
kernLeft = W;
kernRight = W;
layers = (
{
hints = (
{
horizontal = 1;
place = (0, 21);
target = up;
type = BottomGhost;
},
{
horizontal = 1;
place = (715, -20);
target = down;
type = TopGhost;
},
{
place = (-5, 974);
place = (-5, 974);
type = Stem;
}
);
layerId = m01;
shapes = (
{
closed = 1;
nodes = (
(178,0,l),
(392,0,l),
(454,303,ls),
(467,365,o),
(479,442,o),
(479,442,c),
(481,442,l),
(481,442,o),
(493,365,o),
(506,303,cs),
(570,0,l),
(781,0,l),
(969,715,l),
(755,715,l),
(703,472,ls),
(686,392,o),
(667,271,o),
(667,271,c),
(665,271,l),
(665,271,o),
(647,379,o),
(629,462,cs),
(574,715,l),
(385,715,l),
(330,460,ls),
(312,378,o),
(293,271,o),
(293,271,c),
(291,271,l),
(291,271,o),
(273,392,o),
(256,470,cs),
(204,715,l),
(-5,715,l)
);
}
);
width = 964;
}
);
note = W;
unicode = 87;
},
{
glyphname = X;
kernLeft = X;
kernRight = X;
layers = (
{
hints = (
{
horizontal = 1;
place = (0, 21);
target = up;
type = BottomGhost;
},
{
horizontal = 1;
place = (524, -20);
target = down;
type = TopGhost;
},
{
horizontal = 1;
place = (715, -20);
target = down;
type = TopGhost;
},
{
place = (-2, 739);
place = (-2, 739);
type = Stem;
}
);
layerId = m01;
shapes = (
{
closed = 1;
nodes = (
(-2,0,l),
(233,0,l),
(363,223,l),
(365,223,l),
(488,0,l),
(737,0,l),
(499,378,l),
(714,715,l),
(487,715,l),
(374,524,l),
(372,524,l),
(261,715,l),
(20,715,l),
(241,376,l)
);
}
);
width = 735;
}
);
note = X;
unicode = 88;
},
{
glyphname = Y;
kernLeft = Yacute;
kernRight = Yacute;
layers = (
{
hints = (
{
horizontal = 1;
place = (0, 21);
target = up;
type = BottomGhost;
},
{
horizontal = 1;
place = (715, -20);
target = down;
type = TopGhost;
},
{
place = (243, 209);
place = (243, 209);
type = Stem;
}
);
layerId = m01;
shapes = (
{
closed = 1;
nodes = (
(243,0,l),
(452,0,l),
(452,251,l),
(698,715,l),
(476,715,l),
(400,556,ls),
(374,502,o),
(351,441,o),
(351,441,c),
(349,441,l),
(349,441,o),
(327,502,o),
(301,556,cs),
(225,715,l),
(-2,715,l),
(243,251,l)
);
}
);
width = 696;
}
);
note = Y;
unicode = 89;
},
{
glyphname = Z;
kernLeft = Zcaron;
kernRight = Zcaron;
layers = (
{
hints = (
{
horizontal = 1;
place = (0, 179);
place = (0, 179);
type = Stem;
},
{
horizontal = 1;
place = (536, 179);
place = (536, 179);
type = Stem;
},
{
place = (24, 621);
place = (24, 621);
type = Stem;
}
);
layerId = m01;
shapes = (
{
closed = 1;
nodes = (
(24,0,l),
(645,0,l),
(645,179,l),
(372,179,ls),
(328,179,o),
(288,175,o),
(288,175,c),
(288,178,l),
(288,178,o),
(328,215,o),
(361,253,cs),
(626,558,l),
(626,715,l),
(50,715,l),
(50,536,l),
(280,536,ls),
(312,536,o),
(348,540,o),
(348,540,c),
(348,537,l),
(348,537,o),
(315,507,o),
(291,479,cs),
(24,172,l)
);
}
);
width = 669;
}
);
note = Z;
unicode = 90;
},
{
glyphname = bracketleft;
kernRight = bracketleft;
layers = (
{
hints = (
{
horizontal = 1;
place = (-144, 143);
place = (-144, 143);
type = Stem;
},
{
horizontal = 1;
place = (609, 145);
place = (609, 145);
type = Stem;
},
{
place = (51, 177);
place = (51, 177);
type = Stem;
}
);
layerId = m01;
shapes = (
{
closed = 1;
nodes = (
(51,-144,l),
(379,-144,l),
(379,-1,l),
(228,-1,l),
(228,609,l),
(379,609,l),
(379,754,l),
(51,754,l)
);
}
);
width = 414;
}
);
note = bracketleft;
unicode = 91;
},
{
glyphname = backslash;
kernLeft = backslash;
kernRight = backslash;
layers = (
{
hints = (
{
horizontal = 1;
place = (0, 21);
target = up;
type = BottomGhost;
},
{
horizontal = 1;
place = (715, -20);
target = down;
type = TopGhost;
},
{
place = (10, 427);
place = (10, 427);
type = Stem;
}
);
layerId = m01;
shapes = (
{
closed = 1;
nodes = (
(264,0,l),
(437,0,l),
(183,715,l),
(10,715,l)
);
}
);
width = 459;
}
);
note = backslash;
unicode = 92;
},
{
glyphname = bracketright;
kernLeft = bracketright;
layers = (
{
hints = (
{
horizontal = 1;
place = (-144, 143);
place = (-144, 143);
type = Stem;
},
{
horizontal = 1;
place = (609, 145);
place = (609, 145);
type = Stem;
},
{
place = (186, 177);
place = (186, 177);
type = Stem;
}
);
layerId = m01;
shapes = (
{
closed = 1;
nodes = (
(35,-144,l),
(363,-144,l),
(363,754,l),
(35,754,l),
(35,609,l),
(186,609,l),
(186,-1,l),
(35,-1,l)
);
}
);
width = 414;
}
);
note = bracketright;
unicode = 93;
},
{
glyphname = asciicircum;
layers = (
{
hints = (
{
horizontal = 1;
place = (422, 293);
place = (422, 293);
type = Stem;
},
{
place = (3, 478);
place = (3, 478);
type = Stem;
}
);
layerId = m01;
shapes = (
{
closed = 1;
nodes = (
(3,422,l),
(164,422,l),
(240,552,l),
(241,552,l),
(314,422,l),
(481,422,l),
(304,715,l),
(180,715,l)
);
}
);
width = 484;
}
);
note = asciicircum;
unicode = 94;
},
{
glyphname = underscore;
layers = (
{
hints = (
{
horizontal = 1;
place = (-169, 116);
place = (-169, 116);
type = Stem;
},
{
place = (-3, 443);
place = (-3, 443);
type = Stem;
}
);
layerId = m01;
shapes = (
{
closed = 1;
nodes = (
(-3,-169,l),
(440,-169,l),
(440,-53,l),
(-3,-53,l)
);
}
);
width = 437;
}
);
note = underscore;
unicode = 95;
},
{
glyphname = grave;
layers = (
{
hints = (
{
horizontal = 1;
place = (566, 155);
place = (566, 155);
type = Stem;
},
{
place = (66, 275);
place = (66, 275);
type = Stem;
}
);
layerId = m01;
shapes = (
{
closed = 1;
nodes = (
(199,566,l),
(341,566,l),
(283,721,l),
(66,721,l)
);
}
);
width = 500;
}
);
note = grave;
unicode = 96;
},
{
glyphname = a;
kernLeft = a;
kernRight = a;
layers = (
{
hints = (
{
horizontal = 1;
place = (0, 8);
place = (0, 8);
type = Stem;
},
{
horizontal = 1;
place = (403, 123);
place = (403, 123);
type = Stem;
},
{
place = (338, 183);
place = (338, 183);
type = Stem;
},
{
horizontal = 1;
place = (342, 184);
place = (342, 184);
type = Stem;
},
{
horizontal = 1;
place = (-13, 112);
place = (-13, 112);
type = Stem;
},
{
place = (11, 182);
place = (11, 182);
type = Stem;
}
);
layerId = m01;
shapes = (
{
closed = 1;
nodes = (
(540,0,l),
(540,8,l),
(524,18,o),
(521,41,o),
(521,84,cs),
(521,339,ls),
(521,407,o),
(495,459,o),
(442,492,cs),
(403,516,o),
(353,526,o),
(275,526,cs),
(115,526,o),
(37,443,o),
(33,342,c),
(212,342,l),
(217,379,o),
(238,403,o),
(279,403,cs),
(320,403,o),
(333,382,o),
(333,354,cs),
(333,322,o),
(304,309,o),
(196,297,cs),
(98,286,o),
(11,253,o),
(11,140,cs),
(11,40,o),
(83,-13,o),
(181,-13,cs),
(247,-13,o),
(301,9,o),
(335,56,c),
(337,56,l),
(341,28,o),
(347,12,o),
(354,0,c)
);
},
{
closed = 1;
nodes = (
(221,99,o),
(193,114,o),
(193,148,cs),
(193,178,o),
(210,194,o),
(265,206,cs),
(297,213,o),
(320,221,o),
(338,230,c),
(338,185,ls),
(338,124,o),
(296,99,o),
(252,99,cs)
);
}
);
width = 559;
}
);
note = a;
unicode = 97;
},
{
glyphname = b;
kernLeft = b;
kernRight = thorn;
layers = (
{
hints = (
{
horizontal = 1;
place = (-17, 144);
place = (-17, 144);
type = Stem;
},
{
horizontal = 1;
place = (389, 137);
place = (389, 137);
type = Stem;
},
{
horizontal = 1;
place = (715, -20);
target = down;
type = TopGhost;
},
{
place = (34, 189);
place = (34, 189);
type = Stem;
},
{
place = (400, 192);
place = (400, 192);
type = Stem;
},
{
horizontal = 1;
place = (0, 127);
place = (0, 127);
type = Stem;
}
);
layerId = m01;
shapes = (
{
closed = 1;
nodes = (
(509,-17,o),
(592,82,o),
(592,256,cs),
(592,404,o),
(513,526,o),
(376,526,cs),
(307,526,o),
(262,502,o),
(226,457,c),
(223,457,l),
(223,715,l),
(34,715,l),
(34,0,l),
(214,0,l),
(214,66,l),
(216,66,l),
(250,8,o),
(310,-17,o),
(374,-17,cs)
);
},
{
closed = 1;
nodes = (
(254,127,o),
(216,183,o),
(216,258,cs),
(216,332,o),
(254,389,o),
(312,389,cs),
(369,389,o),
(400,338,o),
(400,258,cs),
(400,178,o),
(370,127,o),
(312,127,cs)
);
}
);
width = 605;
}
);
note = b;
unicode = 98;
},
{
glyphname = c;
kernLeft = c;
kernRight = c;
layers = (
{
hints = (
{
horizontal = 1;
place = (-16, 133);
place = (-16, 133);
type = Stem;
},
{
horizontal = 1;
place = (393, 132);
place = (393, 132);
type = Stem;
},
{
place = (13, 192);
place = (13, 192);
type = Stem;
},
{
place = (367, 182);
place = (367, 182);
type = Stem;
}
);
layerId = m01;
shapes = (
{
closed = 1;
nodes = (
(446,-16,o),
(549,80,o),
(549,206,c),
(367,206,l),
(362,148,o),
(339,117,o),
(293,117,cs),
(235,117,o),
(205,169,o),
(205,254,cs),
(205,340,o),
(233,393,o),
(291,393,cs),
(332,393,o),
(354,367,o),
(364,321,c),
(546,321,l),
(533,440,o),
(437,525,o),
(293,525,cs),
(125,525,o),
(13,409,o),
(13,254,cs),
(13,99,o),
(125,-16,o),
(293,-16,cs)
);
}
);
width = 559;
}
);
note = c;
unicode = 99;
},
{
glyphname = d;
kernLeft = d;
layers = (
{
hints = (
{
horizontal = 1;
place = (-17, 143);
place = (-17, 143);
type = Stem;
},
{
horizontal = 1;
place = (390, 136);
place = (390, 136);
type = Stem;
},
{
horizontal = 1;
place = (715, -20);
target = down;
type = TopGhost;
},
{
place = (13, 192);
place = (13, 192);
type = Stem;
},
{
place = (386, 189);
place = (386, 189);
type = Stem;
},
{
horizontal = 1;
place = (0, 126);
place = (0, 126);
type = Stem;
}
);
layerId = m01;
shapes = (
{
closed = 1;
nodes = (
(306,-17,o),
(360,14,o),
(393,71,c),
(395,71,l),
(395,0,l),
(575,0,l),
(575,715,l),
(386,715,l),
(386,456,l),
(383,456,l),
(350,499,o),
(314,526,o),
(241,526,cs),
(105,526,o),
(13,416,o),
(13,256,cs),
(13,80,o),
(111,-17,o),
(243,-17,cs)
);
},
{
closed = 1;
nodes = (
(241,126,o),
(205,181,o),
(205,259,cs),
(205,337,o),
(242,390,o),
(297,390,cs),
(353,390,o),
(391,332,o),
(391,259,cs),
(391,185,o),
(353,126,o),
(297,126,cs)
);
}
);
width = 609;
}
);
note = d;
unicode = 100;
},
{
glyphname = e;
kernLeft = c;
kernRight = e;
layers = (
{
hints = (
{
horizontal = 1;
place = (-14, 128);
place = (-14, 128);
type = Stem;
},
{
horizontal = 1;
place = (209, 100);
place = (209, 100);
type = Stem;
},
{
horizontal = 1;
place = (400, 127);
place = (400, 127);
type = Stem;
},
{
place = (13, 549);
place = (13, 549);
type = Stem;
},
{
horizontal = 1;
place = (-14, 166);
place = (-14, 166);
type = Stem;
}
);
layerId = m01;
shapes = (
{
closed = 1;
nodes = (
(357,-14,o),
(408,-1,o),
(455,29,cs),
(505,61,o),
(541,106,o),
(552,152,c),
(369,152,l),
(355,127,o),
(331,114,o),
(298,114,cs),
(241,114,o),
(209,150,o),
(198,209,c),
(562,209,l),
(564,310,o),
(535,401,o),
(473,458,cs),
(426,501,o),
(365,527,o),
(285,527,cs),
(124,527,o),
(13,410,o),
(13,256,cs),
(13,100,o),
(125,-14,o),
(292,-14,cs)
);
},
{
closed = 1;
nodes = (
(334,400,o),
(366,366,o),
(374,309,c),
(198,309,l),
(208,365,o),
(237,400,o),
(289,400,cs)
);
}
);
width = 575;
}
);
note = e;
unicode = 101;
},
{
glyphname = f;
kernLeft = f;
kernRight = f;
layers = (
{
hints = (
{
horizontal = 1;
place = (0, 21);
target = up;
type = BottomGhost;
},
{
horizontal = 1;
place = (396, 114);
place = (396, 114);
type = Stem;
},
{
horizontal = 1;
place = (584, 129);
place = (584, 129);
type = Stem;
},
{
place = (70, 189);
place = (70, 189);
type = Stem;
},
{
horizontal = 1;
place = (584, 125);
place = (584, 125);
type = Stem;
}
);
layerId = m01;
shapes = (
{
closed = 1;
nodes = (
(7,396,l),
(70,396,l),
(70,0,l),
(259,0,l),
(259,396,l),
(359,396,l),
(359,510,l),
(259,510,l),
(259,523,ls),
(259,584,o),
(300,585,o),
(359,584,c),
(359,709,l),
(264,719,o),
(162,713,o),
(114,667,cs),
(85,639,o),
(70,597,o),
(70,538,cs),
(70,510,l),
(7,510,l)
);
}
);
width = 368;
}
);
note = f;
unicode = 102;
},
{
glyphname = g;
kernLeft = g;
kernRight = g;
layers = (
{
hints = (
{
horizontal = 1;
place = (-178, 169);
place = (-178, 169);
type = Stem;
},
{
horizontal = 1;
place = (25, 132);
place = (25, 132);
type = Stem;
},
{
horizontal = 1;
place = (389, 121);
place = (389, 121);
type = Stem;
},
{
place = (13, 184);
place = (13, 184);
type = Stem;
},
{
place = (369, 180);
place = (369, 180);
type = Stem;
},
{
horizontal = 1;
place = (-178, 126);
place = (-178, 126);
type = Stem;
},
{
horizontal = 1;
place = (389, 137);
place = (389, 137);
type = Stem;
}
);
layerId = m01;
shapes = (
{
closed = 1;
nodes = (
(360,-178,o),
(427,-162,o),
(474,-122,cs),
(519,-84,o),
(549,-21,o),
(549,61,cs),
(549,510,l),
(369,510,l),
(369,454,l),
(366,454,l),
(337,498,o),
(293,526,o),
(221,526,cs),
(96,526,o),
(13,412,o),
(13,266,cs),
(13,106,o),
(114,25,o),
(230,25,cs),
(289,25,o),
(329,49,o),
(359,83,c),
(363,83,l),
(363,37,ls),
(363,-16,o),
(342,-52,o),
(281,-52,cs),
(236,-52,o),
(212,-30,o),
(205,-9,c),
(23,-9,l),
(41,-122,o),
(141,-178,o),
(284,-178,cs)
);
},
{
closed = 1;
nodes = (
(231,157,o),
(197,206,o),
(197,274,cs),
(197,343,o),
(231,389,o),
(284,389,cs),
(339,389,o),
(371,338,o),
(371,274,cs),
(371,207,o),
(339,157,o),
(284,157,cs)
);
}
);
width = 583;
}
);
note = g;
unicode = 103;
},
{
glyphname = h;
kernLeft = b;
kernRight = h;
layers = (
{
hints = (
{
horizontal = 1;
place = (0, 21);
target = up;
type = BottomGhost;
},
{
horizontal = 1;
place = (372, 154);
place = (372, 154);
type = Stem;
},
{
horizontal = 1;
place = (715, -20);
target = down;
type = TopGhost;
},
{
place = (34, 189);
place = (34, 189);
type = Stem;
},
{
place = (371, 189);
place = (371, 189);
type = Stem;
}
);
layerId = m01;
shapes = (
{
closed = 1;
nodes = (
(223,715,l),
(34,715,l),
(34,0,l),
(223,0,l),
(223,275,ls),
(223,330,o),
(252,372,o),
(300,372,cs),
(349,372,o),
(371,337,o),
(371,284,cs),
(371,0,l),
(560,0,l),
(560,330,ls),
(560,447,o),
(499,526,o),
(381,526,cs),
(310,526,o),
(264,496,o),
(226,452,c),
(223,452,l)
);
}
);
width = 590;
}
);
note = h;
unicode = 104;
},
{
glyphname = i;
kernLeft = b;
layers = (
{
hints = (
{
horizontal = 1;
place = (0, 21);
target = up;
type = BottomGhost;
},
{
horizontal = 1;
place = (510, -20);
target = down;
type = TopGhost;
},
{
horizontal = 1;
place = (572, 143);
place = (572, 143);
type = Stem;
},
{
place = (34, 189);
place = (34, 189);
type = Stem;
}
);
layerId = m01;
shapes = (
{
closed = 1;
nodes = (
(34,0,l),
(223,0,l),
(223,510,l),
(34,510,l)
);
},
{
closed = 1;
nodes = (
(34,572,l),
(223,572,l),
(223,715,l),
(34,715,l)
);
}
);
width = 257;
}
);
note = i;
unicode = 105;
},
{
glyphname = j;
kernLeft = j;
kernRight = j;
layers = (
{
hints = (
{
horizontal = 1;
place = (-174, 21);
target = up;
type = BottomGhost;
},
{
horizontal = 1;
place = (510, -20);
target = down;
type = TopGhost;
},
{
horizontal = 1;
place = (572, 143);
place = (572, 143);
type = Stem;
},
{
place = (34, 189);
place = (34, 189);
type = Stem;
},
{
horizontal = 1;
place = (-174, 139);
place = (-174, 139);
type = Stem;
}
);
layerId = m01;
shapes = (
{
closed = 1;
nodes = (
(107,-174,o),
(148,-163,o),
(179,-131,cs),
(205,-104,o),
(223,-63,o),
(223,13,cs),
(223,510,l),
(34,510,l),
(34,20,ls),
(34,-41,o),
(6,-36,o),
(-53,-35,c),
(-53,-164,l),
(-24,-170,o),
(22,-174,o),
(54,-174,cs)
);
},
{
closed = 1;
nodes = (
(34,572,l),
(223,572,l),
(223,715,l),
(34,715,l)
);
}
);
width = 257;
}
);
note = j;
unicode = 106;
},
{
glyphname = k;
kernLeft = b;
kernRight = k;
layers = (
{
hints = (
{
horizontal = 1;
place = (0, 21);
target = up;
type = BottomGhost;
},
{
horizontal = 1;
place = (510, -20);
target = down;
type = TopGhost;
},
{
horizontal = 1;
place = (715, -20);
target = down;
type = TopGhost;
},
{
place = (34, 186);
place = (34, 186);
type = Stem;
}
);
layerId = m01;
shapes = (
{
closed = 1;
nodes = (
(361,0,l),
(575,0,l),
(385,322,l),
(555,510,l),
(343,510,l),
(220,358,l),
(220,715,l),
(34,715,l),
(34,0,l),
(220,0,l),
(220,140,l),
(259,183,l)
);
}
);
width = 574;
}
);
note = k;
unicode = 107;
},
{
glyphname = l;
kernLeft = b;
layers = (
{
hints = (
{
horizontal = 1;
place = (0, 21);
target = up;
type = BottomGhost;
},
{
horizontal = 1;
place = (715, -20);
target = down;
type = TopGhost;
},
{
place = (34, 194);
place = (34, 194);
type = Stem;
}
);
layerId = m01;
shapes = (
{
closed = 1;
nodes = (
(34,0,l),
(228,0,l),
(228,715,l),
(34,715,l)
);
}
);
width = 262;
}
);
note = l;
unicode = 108;
},
{
glyphname = m;
kernLeft = m;
kernRight = h;
layers = (
{
hints = (
{
horizontal = 1;
place = (0, 21);
target = up;
type = BottomGhost;
},
{
horizontal = 1;
place = (372, 154);
place = (372, 154);
type = Stem;
},
{
place = (34, 189);
place = (34, 189);
type = Stem;
},
{
place = (359, 189);
place = (359, 189);
type = Stem;
},
{
place = (684, 189);
place = (684, 189);
type = Stem;
},
{
horizontal = 1;
place = (372, 138);
place = (372, 138);
type = Stem;
}
);
layerId = m01;
shapes = (
{
closed = 1;
nodes = (
(34,0,l),
(223,0,l),
(223,275,ls),
(223,330,o),
(247,372,o),
(294,372,cs),
(342,372,o),
(359,338,o),
(359,286,cs),
(359,0,l),
(548,0,l),
(548,275,ls),
(548,330,o),
(572,372,o),
(619,372,cs),
(667,372,o),
(684,338,o),
(684,286,cs),
(684,0,l),
(873,0,l),
(873,321,ls),
(873,438,o),
(819,526,o),
(694,526,cs),
(628,526,o),
(571,505,o),
(527,437,c),
(524,437,l),
(498,493,o),
(447,526,o),
(379,526,cs),
(302,526,o),
(253,493,o),
(217,434,c),
(214,434,l),
(214,510,l),
(34,510,l)
);
}
);
width = 903;
}
);
note = m;
unicode = 109;
},
{
glyphname = n;
kernLeft = m;
kernRight = h;
layers = (
{
hints = (
{
horizontal = 1;
place = (0, 21);
target = up;
type = BottomGhost;
},
{
horizontal = 1;
place = (372, 138);
place = (372, 138);
type = Stem;
},
{
place = (34, 189);
place = (34, 189);
type = Stem;
},
{
place = (371, 189);
place = (371, 189);
type = Stem;
},
{
horizontal = 1;
place = (372, 154);
place = (372, 154);
type = Stem;
}
);
layerId = m01;
shapes = (
{
closed = 1;
nodes = (
(214,510,l),
(34,510,l),
(34,0,l),
(223,0,l),
(223,275,ls),
(223,330,o),
(252,372,o),
(300,372,cs),
(349,372,o),
(371,337,o),
(371,284,cs),
(371,0,l),
(560,0,l),
(560,330,ls),
(560,447,o),
(499,526,o),
(381,526,cs),
(310,526,o),
(258,496,o),
(217,440,c),
(214,440,l)
);
}
);
width = 590;
}
);
note = n;
unicode = 110;
},
{
glyphname = o;
kernLeft = c;
kernRight = o;
layers = (
{
hints = (
{
horizontal = 1;
place = (-16, 126);
place = (-16, 126);
type = Stem;
},
{
horizontal = 1;
place = (398, 127);
place = (398, 127);
type = Stem;
},
{
place = (13, 192);
place = (13, 192);
type = Stem;
},
{
place = (379, 192);
place = (379, 192);
type = Stem;
}
);
layerId = m01;
shapes = (
{
closed = 1;
nodes = (
(463,-16,o),
(571,99,o),
(571,254,cs),
(571,409,o),
(463,525,o),
(293,525,cs),
(123,525,o),
(13,409,o),
(13,254,cs),
(13,99,o),
(123,-16,o),
(293,-16,cs)
);
},
{
closed = 1;
nodes = (
(233,110,o),
(205,168,o),
(205,254,cs),
(205,340,o),
(233,398,o),
(291,398,cs),
(349,398,o),
(379,340,o),
(379,254,cs),
(379,168,o),
(349,110,o),
(291,110,cs)
);
}
);
width = 584;
}
);
note = o;
unicode = 111;
},
{
glyphname = p;
kernLeft = p;
kernRight = thorn;
layers = (
{
hints = (
{
horizontal = 1;
place = (-169, 21);
target = up;
type = BottomGhost;
},
{
horizontal = 1;
place = (-17, 139);
place = (-17, 139);
type = Stem;
},
{
horizontal = 1;
place = (375, 151);
place = (375, 151);
type = Stem;
},
{
place = (34, 189);
place = (34, 189);
type = Stem;
},
{
place = (400, 192);
place = (400, 192);
type = Stem;
},
{
horizontal = 1;
place = (375, 135);
place = (375, 135);
type = Stem;
}
);
layerId = m01;
shapes = (
{
closed = 1;
nodes = (
(34,-169,l),
(223,-169,l),
(223,48,l),
(226,48,l),
(260,6,o),
(307,-17,o),
(368,-17,cs),
(504,-17,o),
(592,89,o),
(592,256,cs),
(592,404,o),
(513,526,o),
(376,526,cs),
(306,526,o),
(254,498,o),
(217,450,c),
(214,450,l),
(214,510,l),
(34,510,l)
);
},
{
closed = 1;
nodes = (
(254,122,o),
(216,174,o),
(216,248,cs),
(216,321,o),
(254,375,o),
(312,375,cs),
(368,375,o),
(400,326,o),
(400,248,cs),
(400,170,o),
(368,122,o),
(312,122,cs)
);
}
);
width = 605;
}
);
note = p;
unicode = 112;
},
{
glyphname = q;
kernLeft = d;
kernRight = q;
layers = (
{
hints = (
{
horizontal = 1;
place = (-169, 21);
target = up;
type = BottomGhost;
},
{
horizontal = 1;
place = (-17, 142);
place = (-17, 142);
type = Stem;
},
{
horizontal = 1;
place = (378, 148);
place = (378, 148);
type = Stem;
},
{
place = (382, 189);
place = (382, 189);
type = Stem;
},
{
horizontal = 1;
place = (378, 132);
place = (378, 132);
type = Stem;
},
{
place = (13, 192);
place = (13, 192);
type = Stem;
}
);
layerId = m01;
shapes = (
{
closed = 1;
nodes = (
(382,-169,l),
(571,-169,l),
(571,510,l),
(391,510,l),
(391,444,l),
(388,444,l),
(353,499,o),
(302,526,o),
(240,526,cs),
(90,526,o),
(13,404,o),
(13,256,cs),
(13,89,o),
(101,-17,o),
(235,-17,cs),
(298,-17,o),
(345,6,o),
(379,50,c),
(382,50,l)
);
},
{
closed = 1;
nodes = (
(237,125,o),
(205,173,o),
(205,251,cs),
(205,329,o),
(237,378,o),
(293,378,cs),
(351,378,o),
(389,324,o),
(389,251,cs),
(389,177,o),
(351,125,o),
(293,125,cs)
);
}
);
width = 605;
}
);
note = q;
unicode = 113;
},
{
glyphname = r;
kernLeft = m;
kernRight = r;
layers = (
{
hints = (
{
horizontal = 1;
place = (0, 21);
target = up;
type = BottomGhost;
},
{
horizontal = 1;
place = (359, 151);
place = (359, 151);
type = Stem;
},
{
place = (34, 189);
place = (34, 189);
type = Stem;
},
{
horizontal = 1;
place = (516, -20);
target = down;
type = TopGhost;
},
{
horizontal = 1;
place = (359, 162);
place = (359, 162);
type = Stem;
}
);
layerId = m01;
shapes = (
{
closed = 1;
nodes = (
(214,510,l),
(34,510,l),
(34,0,l),
(223,0,l),
(223,209,ls),
(223,324,o),
(288,374,o),
(399,355,c),
(403,355,l),
(403,516,l),
(397,519,o),
(387,521,o),
(372,521,cs),
(307,521,o),
(258,497,o),
(217,433,c),
(214,433,l)
);
}
);
width = 414;
}
);
note = r;
unicode = 114;
},
{
glyphname = s;
kernLeft = scaron;
kernRight = scaron;
layers = (
{
hints = (
{
horizontal = 1;
place = (-17, 115);
place = (-17, 115);
type = Stem;
},
{
horizontal = 1;
place = (368, 158);
place = (368, 158);
type = Stem;
},
{
place = (17, 179);
place = (17, 179);
type = Stem;
},
{
place = (327, 185);
place = (327, 185);
type = Stem;
},
{
horizontal = 1;
place = (414, 112);
place = (414, 112);
type = Stem;
},
{
horizontal = 1;
place = (-17, 182);
place = (-17, 182);
type = Stem;
}
);
layerId = m01;
shapes = (
{
closed = 1;
nodes = (
(401,-17,o),
(512,36,o),
(512,158,cs),
(512,300,o),
(394,321,o),
(301,334,cs),
(243,342,o),
(196,348,o),
(196,377,cs),
(196,403,o),
(222,414,o),
(250,414,cs),
(281,414,o),
(309,406,o),
(314,368,c),
(492,368,l),
(485,468,o),
(404,526,o),
(249,526,cs),
(124,526,o),
(17,468,o),
(17,363,cs),
(17,235,o),
(116,212,o),
(202,199,cs),
(268,189,o),
(327,184,o),
(327,142,cs),
(327,111,o),
(299,98,o),
(262,98,cs),
(214,98,o),
(188,123,o),
(185,165,c),
(4,165,l),
(5,48,o),
(110,-17,o),
(261,-17,cs)
);
}
);
width = 523;
}
);
note = s;
unicode = 115;
},
{
glyphname = t;
kernLeft = t;
kernRight = t;
layers = (
{
hints = (
{
horizontal = 1;
place = (-10, 151);
place = (-10, 151);
type = Stem;
},
{
horizontal = 1;
place = (396, 114);
place = (396, 114);
type = Stem;
},
{
place = (73, 185);
place = (73, 185);
type = Stem;
}
);
layerId = m01;
shapes = (
{
closed = 1;
nodes = (
(7,396,l),
(73,396,l),
(73,147,ls),
(73,25,o),
(136,-10,o),
(260,-10,cs),
(294,-10,o),
(324,-5,o),
(353,2,c),
(353,141,l),
(294,137,o),
(258,138,o),
(258,189,cs),
(258,396,l),
(355,396,l),
(355,510,l),
(258,510,l),
(258,675,l),
(73,675,l),
(73,510,l),
(7,510,l)
);
}
);
width = 370;
}
);
note = t;
unicode = 116;
},
{
glyphname = u;
kernLeft = u;
kernRight = u;
layers = (
{
hints = (
{
horizontal = 1;
place = (0, 145);
place = (0, 145);
type = Stem;
},
{
horizontal = 1;
place = (510, -20);
target = down;
type = TopGhost;
},
{
place = (30, 189);
place = (30, 189);
type = Stem;
},
{
place = (365, 189);
place = (365, 189);
type = Stem;
},
{
horizontal = 1;
place = (-16, 161);
place = (-16, 161);
type = Stem;
}
);
layerId = m01;
shapes = (
{
closed = 1;
nodes = (
(554,0,l),
(554,510,l),
(365,510,l),
(365,235,ls),
(365,180,o),
(336,145,o),
(287,145,cs),
(242,145,o),
(219,173,o),
(219,226,cs),
(219,510,l),
(30,510,l),
(30,181,ls),
(30,64,o),
(90,-16,o),
(212,-16,cs),
(282,-16,o),
(332,13,o),
(371,66,c),
(374,66,l),
(374,0,l)
);
}
);
width = 588;
}
);
note = u;
unicode = 117;
},
{
glyphname = v;
kernLeft = v;
kernRight = v;
layers = (
{
hints = (
{
horizontal = 1;
place = (0, 21);
target = up;
type = BottomGhost;
},
{
horizontal = 1;
place = (510, -20);
target = down;
type = TopGhost;
},
{
place = (-7, 571);
place = (-7, 571);
type = Stem;
}
);
layerId = m01;
shapes = (
{
closed = 1;
nodes = (
(168,0,l),
(389,0,l),
(564,510,l),
(374,510,l),
(316,314,ls),
(301,262,o),
(282,191,o),
(282,191,c),
(280,191,l),
(280,191,o),
(262,262,o),
(247,314,cs),
(189,510,l),
(-7,510,l)
);
}
);
width = 557;
}
);
note = v;
unicode = 118;
},
{
glyphname = w;
kernLeft = w;
kernRight = w;
layers = (
{
hints = (
{
horizontal = 1;
place = (0, 21);
target = up;
type = BottomGhost;
},
{
horizontal = 1;
place = (510, -20);
target = down;
type = TopGhost;
},
{
place = (-7, 834);
place = (-7, 834);
type = Stem;
}
);
layerId = m01;
shapes = (
{
closed = 1;
nodes = (
(156,0,l),
(335,0,l),
(387,212,ls),
(397,251,o),
(408,307,o),
(408,307,c),
(410,307,l),
(410,307,o),
(421,251,o),
(431,212,cs),
(483,0,l),
(665,0,l),
(827,510,l),
(636,510,l),
(587,325,ls),
(577,285,o),
(562,221,o),
(562,221,c),
(560,221,l),
(560,221,o),
(547,285,o),
(536,329,cs),
(492,510,l),
(332,510,l),
(288,329,ls),
(277,286,o),
(264,223,o),
(264,223,c),
(262,223,l),
(262,223,o),
(249,285,o),
(238,325,cs),
(188,510,l),
(-7,510,l)
);
}
);
width = 820;
}
);
note = w;
unicode = 119;
},
{
glyphname = x;
kernLeft = x;
kernRight = x;
layers = (
{
hints = (
{
horizontal = 1;
place = (0, 21);
target = up;
type = BottomGhost;
},
{
horizontal = 1;
place = (510, -20);
target = down;
type = TopGhost;
},
{
place = (6, 573);
place = (6, 573);
type = Stem;
}
);
layerId = m01;
shapes = (
{
closed = 1;
nodes = (
(6,0,l),
(212,0,l),
(288,136,l),
(290,136,l),
(362,0,l),
(579,0,l),
(413,269,l),
(559,510,l),
(358,510,l),
(299,394,l),
(297,394,l),
(237,510,l),
(20,510,l),
(175,265,l)
);
}
);
width = 585;
}
);
note = x;
unicode = 120;
},
{
glyphname = y;
kernLeft = yacute;
kernRight = yacute;
layers = (
{
hints = (
{
horizontal = 1;
place = (-169, 146);
place = (-169, 146);
type = Stem;
},
{
horizontal = 1;
place = (510, -20);
target = down;
type = TopGhost;
},
{
place = (-7, 575);
place = (-7, 575);
type = Stem;
}
);
layerId = m01;
shapes = (
{
closed = 1;
nodes = (
(57,-169,l),
(188,-169,ls),
(291,-169,o),
(351,-126,o),
(394,0,cs),
(568,510,l),
(380,510,l),
(318,305,ls),
(302,253,o),
(287,181,o),
(287,181,c),
(285,181,l),
(285,181,o),
(271,253,o),
(255,305,cs),
(192,510,l),
(-7,510,l),
(156,88,ls),
(168,58,o),
(179,31,o),
(179,15,cs),
(179,-12,o),
(162,-23,o),
(120,-23,cs),
(57,-23,l)
);
}
);
width = 561;
}
);
note = y;
unicode = 121;
},
{
glyphname = z;
kernLeft = zcaron;
kernRight = zcaron;
layers = (
{
hints = (
{
horizontal = 1;
place = (0, 143);
place = (0, 143);
type = Stem;
},
{
horizontal = 1;
place = (368, 142);
place = (368, 142);
type = Stem;
},
{
place = (21, 483);
place = (21, 483);
type = Stem;
}
);
layerId = m01;
shapes = (
{
closed = 1;
nodes = (
(21,0,l),
(504,0,l),
(504,143,l),
(336,143,ls),
(290,143,o),
(253,141,o),
(253,141,c),
(253,144,l),
(253,144,o),
(287,175,o),
(318,206,cs),
(487,379,l),
(487,510,l),
(39,510,l),
(39,368,l),
(178,368,ls),
(210,368,o),
(251,370,o),
(251,370,c),
(251,367,l),
(251,367,o),
(225,344,o),
(200,319,cs),
(21,137,l)
);
}
);
width = 525;
}
);
note = z;
unicode = 122;
},
{
glyphname = braceleft;
kernRight = bracketleft;
layers = (
{
hints = (
{
horizontal = 1;
place = (-144, 143);
place = (-144, 143);
type = Stem;
},
{
horizontal = 1;
place = (235, 140);
place = (235, 140);
type = Stem;
},
{
horizontal = 1;
place = (609, 145);
place = (609, 145);
type = Stem;
},
{
place = (109, 177);
place = (109, 177);
type = Stem;
},
{
place = (25, 191);
place = (25, 191);
type = Stem;
}
);
layerId = m01;
shapes = (
{
closed = 1;
nodes = (
(379,-144,l),
(379,-1,l),
(370,-1,ls),
(311,-1,o),
(286,8,o),
(286,56,cs),
(286,192,ls),
(286,262,o),
(262,285,o),
(216,304,c),
(216,307,l),
(262,326,o),
(286,349,o),
(286,419,cs),
(286,554,ls),
(286,602,o),
(311,609,o),
(370,609,cs),
(379,609,l),
(379,754,l),
(361,754,ls),
(188,754,o),
(109,713,o),
(109,553,cs),
(109,448,ls),
(109,401,o),
(86,378,o),
(25,375,c),
(25,235,l),
(86,232,o),
(109,209,o),
(109,162,cs),
(109,57,ls),
(109,-103,o),
(188,-144,o),
(361,-144,cs)
);
}
);
width = 414;
}
);
note = braceleft;
unicode = 123;
},
{
glyphname = bar;
layers = (
{
hints = (
{
horizontal = 1;
place = (-144, 898);
place = (-144, 898);
type = Stem;
},
{
place = (51, 115);
place = (51, 115);
type = Stem;
}
);
layerId = m01;
shapes = (
{
closed = 1;
nodes = (
(51,-144,l),
(166,-144,l),
(166,754,l),
(51,754,l)
);
}
);
width = 217;
}
);
note = bar;
unicode = 124;
},
{
glyphname = braceright;
kernLeft = bracketright;
layers = (
{
hints = (
{
horizontal = 1;
place = (-144, 143);
place = (-144, 143);
type = Stem;
},
{
horizontal = 1;
place = (235, 140);
place = (235, 140);
type = Stem;
},
{
horizontal = 1;
place = (609, 145);
place = (609, 145);
type = Stem;
},
{
place = (128, 177);
place = (128, 177);
type = Stem;
},
{
place = (198, 191);
place = (198, 191);
type = Stem;
}
);
layerId = m01;
shapes = (
{
closed = 1;
nodes = (
(35,-144,l),
(53,-144,ls),
(226,-144,o),
(305,-103,o),
(305,57,cs),
(305,162,ls),
(305,209,o),
(329,232,o),
(389,235,c),
(389,375,l),
(328,378,o),
(305,401,o),
(305,448,cs),
(305,553,ls),
(305,713,o),
(226,754,o),
(53,754,cs),
(35,754,l),
(35,609,l),
(44,609,ls),
(103,609,o),
(128,600,o),
(128,552,cs),
(128,418,ls),
(128,348,o),
(152,325,o),
(198,306,c),
(198,303,l),
(152,284,o),
(128,261,o),
(128,191,cs),
(128,54,ls),
(128,6,o),
(103,-1,o),
(44,-1,cs),
(35,-1,l)
);
}
);
width = 414;
}
);
note = braceright;
unicode = 125;
},
{
glyphname = asciitilde;
layers = (
{
hints = (
{
horizontal = 1;
place = (227, 195);
place = (227, 195);
type = Stem;
},
{
place = (15, 114);
place = (15, 114);
type = Stem;
},
{
place = (329, 115);
place = (329, 115);
type = Stem;
},
{
horizontal = 1;
place = (234, 188);
place = (234, 188);
type = Stem;
}
);
layerId = m01;
shapes = (
{
closed = 1;
nodes = (
(129,227,l),
(133,258,o),
(146,279,o),
(168,279,cs),
(189,279,o),
(201,272,o),
(234,255,cs),
(256,244,o),
(279,234,o),
(317,234,cs),
(400,234,o),
(444,306,o),
(444,422,c),
(329,422,l),
(327,394,o),
(319,375,o),
(293,375,cs),
(274,375,o),
(263,382,o),
(234,398,cs),
(209,412,o),
(188,422,o),
(151,422,cs),
(78,422,o),
(15,360,o),
(15,227,c)
);
}
);
width = 459;
}
);
note = asciitilde;
unicode = 126;
},
{
glyphname = Adieresis;
kernLeft = A;
kernRight = A;
layers = (
{
hints = (
{
horizontal = 1;
place = (0, 21);
target = up;
type = BottomGhost;
},
{
horizontal = 1;
place = (105, 144);
place = (105, 144);
type = Stem;
},
{
horizontal = 1;
place = (715, -20);
target = down;
type = TopGhost;
},
{
horizontal = 1;
place = (752, 143);
place = (752, 143);
type = Stem;
},
{
place = (164, 178);
place = (164, 178);
type = Stem;
},
{
place = (392, 178);
place = (392, 178);
type = Stem;
}
);
layerId = m01;
shapes = (
{
closed = 1;
nodes = (
(-4,0,l),
(204,0,l),
(239,105,l),
(481,105,l),
(516,0,l),
(738,0,l),
(473,715,l),
(260,715,l)
);
},
{
closed = 1;
nodes = (
(333,389,ls),
(345,424,o),
(360,481,o),
(360,481,c),
(362,481,l),
(362,481,o),
(378,424,o),
(389,389,cs),
(434,249,l),
(286,249,l)
);
},
{
closed = 1;
nodes = (
(392,752,l),
(570,752,l),
(570,895,l),
(392,895,l)
);
},
{
closed = 1;
nodes = (
(164,752,l),
(342,752,l),
(342,895,l),
(164,895,l)
);
}
);
width = 734;
}
);
note = Adieresis;
unicode = 196;
},
{
glyphname = Aring;
kernLeft = A;
kernRight = A;
layers = (
{
hints = (
{
horizontal = 1;
place = (0, 21);
target = up;
type = BottomGhost;
},
{
horizontal = 1;
place = (105, 144);
place = (105, 144);
type = Stem;
},
{
horizontal = 1;
place = (715, -20);
target = down;
type = TopGhost;
},
{
horizontal = 1;
place = (876, 64);
place = (876, 64);
type = Stem;
},
{
place = (260, 69);
place = (260, 69);
type = Stem;
},
{
place = (405, 69);
place = (405, 69);
type = Stem;
},
{
horizontal = 1;
place = (735, 64);
place = (735, 64);
type = Stem;
}
);
layerId = m01;
shapes = (
{
closed = 1;
nodes = (
(-4,0,l),
(204,0,l),
(239,105,l),
(481,105,l),
(516,0,l),
(738,0,l),
(473,715,l),
(260,715,l)
);
},
{
closed = 1;
nodes = (
(333,389,ls),
(345,424,o),
(360,481,o),
(360,481,c),
(362,481,l),
(362,481,o),
(378,424,o),
(389,389,cs),
(434,249,l),
(286,249,l)
);
},
{
closed = 1;
nodes = (
(425,735,o),
(474,779,o),
(474,837,cs),
(474,895,o),
(425,940,o),
(367,940,cs),
(309,940,o),
(260,895,o),
(260,837,cs),
(260,779,o),
(309,735,o),
(367,735,cs)
);
},
{
closed = 1;
nodes = (
(344,799,o),
(329,817,o),
(329,837,cs),
(329,857,o),
(344,876,o),
(367,876,cs),
(390,876,o),
(405,857,o),
(405,837,cs),
(405,817,o),
(390,799,o),
(367,799,cs)
);
}
);
width = 734;
}
);
note = Aring;
unicode = 197;
},
{
glyphname = Ccedilla;
kernLeft = C;
kernRight = C;
layers = (
{
hints = (
{
horizontal = 1;
place = (-193, 51);
place = (-193, 51);
type = Stem;
},
{
horizontal = 1;
place = (-15, 21);
target = up;
type = BottomGhost;
},
{
horizontal = 1;
place = (556, 172);
place = (556, 172);
type = Stem;
},
{
place = (15, 212);
place = (15, 212);
type = Stem;
},
{
place = (372, 106);
place = (372, 106);
type = Stem;
},
{
horizontal = 1;
place = (-90, 45);
place = (-90, 45);
type = Stem;
},
{
horizontal = 1;
place = (-15, 169);
place = (-15, 169);
type = Stem;
}
);
layerId = m01;
shapes = (
{
closed = 1;
nodes = (
(423,-193,o),
(478,-164,o),
(478,-115,cs),
(478,-64,o),
(434,-42,o),
(373,-45,c),
(373,-43,l),
(405,-16,l),
(495,-12,o),
(562,14,o),
(618,68,cs),
(669,117,o),
(705,187,o),
(711,266,c),
(500,266,l),
(493,202,o),
(449,154,o),
(376,154,cs),
(283,154,o),
(227,238,o),
(227,355,cs),
(227,472,o),
(275,556,o),
(374,556,cs),
(442,556,o),
(489,506,o),
(494,450,c),
(703,450,l),
(694,541,o),
(651,621,o),
(577,672,cs),
(525,708,o),
(455,728,o),
(377,728,cs),
(162,728,o),
(15,569,o),
(15,355,cs),
(15,152,o),
(144,0,o),
(342,-15,c),
(287,-71,l),
(305,-97,l),
(315,-93,o),
(327,-90,o),
(338,-90,cs),
(358,-90,o),
(372,-95,o),
(372,-114,cs),
(372,-135,o),
(348,-142,o),
(321,-142,cs),
(297,-142,o),
(272,-136,o),
(253,-127,c),
(232,-164,l),
(261,-182,o),
(301,-193,o),
(350,-193,cs)
);
}
);
width = 719;
}
);
note = Ccedilla;
unicode = 199;
},
{
glyphname = Eacute;
kernRight = E;
layers = (
{
hints = (
{
horizontal = 1;
place = (0, 179);
place = (0, 179);
type = Stem;
},
{
horizontal = 1;
place = (291, 157);
place = (291, 157);
type = Stem;
},
{
horizontal = 1;
place = (545, 170);
place = (545, 170);
type = Stem;
},
{
horizontal = 1;
place = (746, 135);
place = (746, 135);
type = Stem;
},
{
place = (43, 209);
place = (43, 209);
type = Stem;
}
);
layerId = m01;
shapes = (
{
closed = 1;
nodes = (
(43,0,l),
(610,0,l),
(610,179,l),
(252,179,l),
(252,291,l),
(543,291,l),
(543,448,l),
(252,448,l),
(252,545,l),
(600,545,l),
(600,715,l),
(43,715,l)
);
},
{
closed = 1;
nodes = (
(514,881,l),
(299,881,l),
(256,746,l),
(398,746,l)
);
}
);
width = 637;
}
);
note = Eacute;
unicode = 201;
},
{
glyphname = Ntilde;
kernRight = H;
layers = (
{
hints = (
{
horizontal = 1;
place = (0, 21);
target = up;
type = BottomGhost;
},
{
horizontal = 1;
place = (715, -20);
target = down;
type = TopGhost;
},
{
horizontal = 1;
place = (749, 147);
place = (749, 147);
type = Stem;
},
{
place = (43, 202);
place = (43, 202);
type = Stem;
},
{
place = (488, 202);
place = (488, 202);
type = Stem;
},
{
place = (191, 96);
place = (191, 96);
type = Stem;
},
{
place = (460, 96);
place = (460, 96);
type = Stem;
}
);
layerId = m01;
shapes = (
{
closed = 1;
nodes = (
(43,0,l),
(245,0,l),
(245,405,l),
(247,405,l),
(474,0,l),
(690,0,l),
(690,715,l),
(488,715,l),
(488,313,l),
(486,313,l),
(252,715,l),
(43,715,l)
);
},
{
closed = 1;
nodes = (
(287,744,l),
(290,771,o),
(302,786,o),
(321,786,cs),
(339,786,o),
(348,779,o),
(378,765,cs),
(398,756,o),
(420,749,o),
(447,749,cs),
(520,749,o),
(556,808,o),
(556,896,c),
(460,896,l),
(458,873,o),
(451,858,o),
(428,858,cs),
(412,858,o),
(403,864,o),
(378,877,cs),
(358,887,o),
(334,896,o),
(307,896,cs),
(243,896,o),
(191,847,o),
(191,744,c)
);
}
);
width = 733;
}
);
note = Ntilde;
unicode = 209;
},
{
glyphname = Odieresis;
kernLeft = C;
kernRight = O;
layers = (
{
hints = (
{
horizontal = 1;
place = (-17, 167);
place = (-17, 167);
type = Stem;
},
{
horizontal = 1;
place = (561, 167);
place = (561, 167);
type = Stem;
},
{
place = (15, 212);
place = (15, 212);
type = Stem;
},
{
place = (529, 212);
place = (529, 212);
type = Stem;
},
{
horizontal = 1;
place = (752, 143);
place = (752, 143);
type = Stem;
},
{
place = (175, 178);
place = (175, 178);
type = Stem;
},
{
place = (403, 178);
place = (403, 178);
type = Stem;
}
);
layerId = m01;
shapes = (
{
closed = 1;
nodes = (
(599,-17,o),
(741,141,o),
(741,355,cs),
(741,569,o),
(599,728,o),
(377,728,cs),
(155,728,o),
(15,569,o),
(15,355,cs),
(15,141,o),
(155,-17,o),
(377,-17,cs)
);
},
{
closed = 1;
nodes = (
(278,150,o),
(227,238,o),
(227,355,cs),
(227,472,o),
(278,561,o),
(378,561,cs),
(478,561,o),
(529,472,o),
(529,355,cs),
(529,238,o),
(478,150,o),
(378,150,cs)
);
},
{
closed = 1;
nodes = (
(403,752,l),
(581,752,l),
(581,895,l),
(403,895,l)
);
},
{
closed = 1;
nodes = (
(175,752,l),
(353,752,l),
(353,895,l),
(175,895,l)
);
}
);
width = 756;
}
);
note = Odieresis;
unicode = 214;
},
{
glyphname = Udieresis;
kernLeft = U;
kernRight = U;
layers = (
{
hints = (
{
horizontal = 1;
place = (-13, 167);
place = (-13, 167);
type = Stem;
},
{
horizontal = 1;
place = (715, -20);
target = down;
type = TopGhost;
},
{
horizontal = 1;
place = (752, 143);
place = (752, 143);
type = Stem;
},
{
place = (38, 209);
place = (38, 209);
type = Stem;
},
{
place = (467, 209);
place = (467, 209);
type = Stem;
},
{
place = (382, 178);
place = (382, 178);
type = Stem;
},
{
place = (154, 178);
place = (154, 178);
type = Stem;
}
);
layerId = m01;
shapes = (
{
closed = 1;
nodes = (
(571,-13,o),
(676,97,o),
(676,273,cs),
(676,715,l),
(467,715,l),
(467,265,ls),
(467,200,o),
(431,154,o),
(360,154,cs),
(283,154,o),
(247,195,o),
(247,261,cs),
(247,715,l),
(38,715,l),
(38,273,ls),
(38,94,o),
(142,-13,o),
(357,-13,cs)
);
},
{
closed = 1;
nodes = (
(382,752,l),
(560,752,l),
(560,895,l),
(382,895,l)
);
},
{
closed = 1;
nodes = (
(154,752,l),
(332,752,l),
(332,895,l),
(154,895,l)
);
}
);
width = 714;
}
);
note = Udieresis;
unicode = 220;
},
{
glyphname = aacute;
kernLeft = a;
kernRight = a;
layers = (
{
hints = (
{
horizontal = 1;
place = (0, 8);
place = (0, 8);
type = Stem;
},
{
horizontal = 1;
place = (403, 123);
place = (403, 123);
type = Stem;
},
{
horizontal = 1;
place = (566, 155);
place = (566, 155);
type = Stem;
},
{
place = (338, 183);
place = (338, 183);
type = Stem;
},
{
horizontal = 1;
place = (342, 184);
place = (342, 184);
type = Stem;
},
{
horizontal = 1;
place = (-13, 112);
place = (-13, 112);
type = Stem;
},
{
place = (11, 182);
place = (11, 182);
type = Stem;
}
);
layerId = m01;
shapes = (
{
closed = 1;
nodes = (
(540,0,l),
(540,8,l),
(524,18,o),
(521,41,o),
(521,84,cs),
(521,339,ls),
(521,407,o),
(495,459,o),
(442,492,cs),
(403,516,o),
(353,526,o),
(275,526,cs),
(115,526,o),
(37,443,o),
(33,342,c),
(212,342,l),
(217,379,o),
(238,403,o),
(279,403,cs),
(320,403,o),
(333,382,o),
(333,354,cs),
(333,322,o),
(304,309,o),
(196,297,cs),
(98,286,o),
(11,253,o),
(11,140,cs),
(11,40,o),
(83,-13,o),
(181,-13,cs),
(247,-13,o),
(301,9,o),
(335,56,c),
(337,56,l),
(341,28,o),
(347,12,o),
(354,0,c)
);
},
{
closed = 1;
nodes = (
(221,99,o),
(193,114,o),
(193,148,cs),
(193,178,o),
(210,194,o),
(265,206,cs),
(297,213,o),
(320,221,o),
(338,230,c),
(338,185,ls),
(338,124,o),
(296,99,o),
(252,99,cs)
);
},
{
closed = 1;
nodes = (
(208,566,l),
(350,566,l),
(483,721,l),
(266,721,l)
);
}
);
width = 559;
}
);
note = aacute;
unicode = 225;
},
{
glyphname = agrave;
kernLeft = a;
kernRight = a;
layers = (
{
hints = (
{
horizontal = 1;
place = (0, 8);
place = (0, 8);
type = Stem;
},
{
horizontal = 1;
place = (403, 123);
place = (403, 123);
type = Stem;
},
{
horizontal = 1;
place = (566, 155);
place = (566, 155);
type = Stem;
},
{
place = (338, 183);
place = (338, 183);
type = Stem;
},
{
horizontal = 1;
place = (342, 184);
place = (342, 184);
type = Stem;
},
{
horizontal = 1;
place = (-13, 112);
place = (-13, 112);
type = Stem;
},
{
place = (11, 182);
place = (11, 182);
type = Stem;
}
);
layerId = m01;
shapes = (
{
closed = 1;
nodes = (
(540,0,l),
(540,8,l),
(524,18,o),
(521,41,o),
(521,84,cs),
(521,339,ls),
(521,407,o),
(495,459,o),
(442,492,cs),
(403,516,o),
(353,526,o),
(275,526,cs),
(115,526,o),
(37,443,o),
(33,342,c),
(212,342,l),
(217,379,o),
(238,403,o),
(279,403,cs),
(320,403,o),
(333,382,o),
(333,354,cs),
(333,322,o),
(304,309,o),
(196,297,cs),
(98,286,o),
(11,253,o),
(11,140,cs),
(11,40,o),
(83,-13,o),
(181,-13,cs),
(247,-13,o),
(301,9,o),
(335,56,c),
(337,56,l),
(341,28,o),
(347,12,o),
(354,0,c)
);
},
{
closed = 1;
nodes = (
(221,99,o),
(193,114,o),
(193,148,cs),
(193,178,o),
(210,194,o),
(265,206,cs),
(297,213,o),
(320,221,o),
(338,230,c),
(338,185,ls),
(338,124,o),
(296,99,o),
(252,99,cs)
);
},
{
closed = 1;
nodes = (
(229,566,l),
(371,566,l),
(313,721,l),
(96,721,l)
);
}
);
width = 559;
}
);
note = agrave;
unicode = 224;
},
{
glyphname = acircumflex;
kernLeft = a;
kernRight = a;
layers = (
{
hints = (
{
horizontal = 1;
place = (0, 8);
place = (0, 8);
type = Stem;
},
{
horizontal = 1;
place = (403, 123);
place = (403, 123);
type = Stem;
},
{
horizontal = 1;
place = (566, 149);
place = (566, 149);
type = Stem;
},
{
place = (338, 183);
place = (338, 183);
type = Stem;
},
{
horizontal = 1;
place = (342, 184);
place = (342, 184);
type = Stem;
},
{
horizontal = 1;
place = (-13, 112);
place = (-13, 112);
type = Stem;
},
{
place = (11, 182);
place = (11, 182);
type = Stem;
},
{
horizontal = 1;
place = (629, 86);
place = (629, 86);
type = Stem;
}
);
layerId = m01;
shapes = (
{
closed = 1;
nodes = (
(540,0,l),
(540,8,l),
(524,18,o),
(521,41,o),
(521,84,cs),
(521,339,ls),
(521,407,o),
(495,459,o),
(442,492,cs),
(403,516,o),
(353,526,o),
(275,526,cs),
(115,526,o),
(37,443,o),
(33,342,c),
(212,342,l),
(217,379,o),
(238,403,o),
(279,403,cs),
(320,403,o),
(333,382,o),
(333,354,cs),
(333,322,o),
(304,309,o),
(196,297,cs),
(98,286,o),
(11,253,o),
(11,140,cs),
(11,40,o),
(83,-13,o),
(181,-13,cs),
(247,-13,o),
(301,9,o),
(335,56,c),
(337,56,l),
(341,28,o),
(347,12,o),
(354,0,c)
);
},
{
closed = 1;
nodes = (
(221,99,o),
(193,114,o),
(193,148,cs),
(193,178,o),
(210,194,o),
(265,206,cs),
(297,213,o),
(320,221,o),
(338,230,c),
(338,185,ls),
(338,124,o),
(296,99,o),
(252,99,cs)
);
},
{
closed = 1;
nodes = (
(84,566,l),
(245,566,l),
(287,629,l),
(289,629,l),
(331,566,l),
(487,566,l),
(370,715,l),
(203,715,l)
);
}
);
width = 559;
}
);
note = acircumflex;
unicode = 226;
},
{
glyphname = adieresis;
kernLeft = a;
kernRight = a;
layers = (
{
hints = (
{
horizontal = 1;
place = (0, 8);
place = (0, 8);
type = Stem;
},
{
horizontal = 1;
place = (403, 123);
place = (403, 123);
type = Stem;
},
{
horizontal = 1;
place = (572, 143);
place = (572, 143);
type = Stem;
},
{
place = (82, 178);
place = (82, 178);
type = Stem;
},
{
place = (338, 183);
place = (338, 183);
type = Stem;
},
{
horizontal = 1;
place = (342, 184);
place = (342, 184);
type = Stem;
},
{
horizontal = 1;
place = (-13, 112);
place = (-13, 112);
type = Stem;
},
{
place = (11, 182);
place = (11, 182);
type = Stem;
},
{
place = (310, 178);
place = (310, 178);
type = Stem;
}
);
layerId = m01;
shapes = (
{
closed = 1;
nodes = (
(540,0,l),
(540,8,l),
(524,18,o),
(521,41,o),
(521,84,cs),
(521,339,ls),
(521,407,o),
(495,459,o),
(442,492,cs),
(403,516,o),
(353,526,o),
(275,526,cs),
(115,526,o),
(37,443,o),
(33,342,c),
(212,342,l),
(217,379,o),
(238,403,o),
(279,403,cs),
(320,403,o),
(333,382,o),
(333,354,cs),
(333,322,o),
(304,309,o),
(196,297,cs),
(98,286,o),
(11,253,o),
(11,140,cs),
(11,40,o),
(83,-13,o),
(181,-13,cs),
(247,-13,o),
(301,9,o),
(335,56,c),
(337,56,l),
(341,28,o),
(347,12,o),
(354,0,c)
);
},
{
closed = 1;
nodes = (
(221,99,o),
(193,114,o),
(193,148,cs),
(193,178,o),
(210,194,o),
(265,206,cs),
(297,213,o),
(320,221,o),
(338,230,c),
(338,185,ls),
(338,124,o),
(296,99,o),
(252,99,cs)
);
},
{
closed = 1;
nodes = (
(310,572,l),
(488,572,l),
(488,715,l),
(310,715,l)
);
},
{
closed = 1;
nodes = (
(82,572,l),
(260,572,l),
(260,715,l),
(82,715,l)
);
}
);
width = 559;
}
);
note = adieresis;
unicode = 228;
},
{
glyphname = atilde;
kernLeft = a;
kernRight = a;
layers = (
{
hints = (
{
horizontal = 1;
place = (0, 8);
place = (0, 8);
type = Stem;
},
{
horizontal = 1;
place = (403, 123);
place = (403, 123);
type = Stem;
},
{
horizontal = 1;
place = (569, 147);
place = (569, 147);
type = Stem;
},
{
place = (338, 183);
place = (338, 183);
type = Stem;
},
{
horizontal = 1;
place = (342, 184);
place = (342, 184);
type = Stem;
},
{
horizontal = 1;
place = (-13, 112);
place = (-13, 112);
type = Stem;
},
{
place = (11, 182);
place = (11, 182);
type = Stem;
},
{
horizontal = 1;
place = (564, 152);
place = (564, 152);
type = Stem;
},
{
place = (103, 96);
place = (103, 96);
type = Stem;
},
{
horizontal = 1;
place = (606, 110);
place = (606, 110);
type = Stem;
},
{
place = (372, 96);
place = (372, 96);
type = Stem;
},
{
horizontal = 1;
place = (569, 109);
place = (569, 109);
type = Stem;
}
);
layerId = m01;
shapes = (
{
closed = 1;
nodes = (
(540,0,l),
(540,8,l),
(524,18,o),
(521,41,o),
(521,84,cs),
(521,339,ls),
(521,407,o),
(495,459,o),
(442,492,cs),
(403,516,o),
(353,526,o),
(275,526,cs),
(115,526,o),
(37,443,o),
(33,342,c),
(212,342,l),
(217,379,o),
(238,403,o),
(279,403,cs),
(320,403,o),
(333,382,o),
(333,354,cs),
(333,322,o),
(304,309,o),
(196,297,cs),
(98,286,o),
(11,253,o),
(11,140,cs),
(11,40,o),
(83,-13,o),
(181,-13,cs),
(247,-13,o),
(301,9,o),
(335,56,c),
(337,56,l),
(341,28,o),
(347,12,o),
(354,0,c)
);
},
{
closed = 1;
nodes = (
(221,99,o),
(193,114,o),
(193,148,cs),
(193,178,o),
(210,194,o),
(265,206,cs),
(297,213,o),
(320,221,o),
(338,230,c),
(338,185,ls),
(338,124,o),
(296,99,o),
(252,99,cs)
);
},
{
closed = 1;
nodes = (
(199,564,l),
(202,591,o),
(214,606,o),
(233,606,cs),
(251,606,o),
(260,599,o),
(290,585,cs),
(310,576,o),
(332,569,o),
(359,569,cs),
(432,569,o),
(468,628,o),
(468,716,c),
(372,716,l),
(370,693,o),
(363,678,o),
(340,678,cs),
(324,678,o),
(315,684,o),
(290,697,cs),
(270,707,o),
(246,716,o),
(219,716,cs),
(155,716,o),
(103,667,o),
(103,564,c)
);
}
);
width = 559;
}
);
note = atilde;
unicode = 227;
},
{
glyphname = aring;
kernLeft = a;
kernRight = a;
layers = (
{
hints = (
{
horizontal = 1;
place = (0, 8);
place = (0, 8);
type = Stem;
},
{
horizontal = 1;
place = (403, 123);
place = (403, 123);
type = Stem;
},
{
horizontal = 1;
place = (696, 64);
place = (696, 64);
type = Stem;
},
{
place = (178, 69);
place = (178, 69);
type = Stem;
},
{
place = (338, 183);
place = (338, 183);
type = Stem;
},
{
horizontal = 1;
place = (342, 184);
place = (342, 184);
type = Stem;
},
{
horizontal = 1;
place = (-13, 112);
place = (-13, 112);
type = Stem;
},
{
place = (11, 182);
place = (11, 182);
type = Stem;
},
{
horizontal = 1;
place = (555, 64);
place = (555, 64);
type = Stem;
},
{
place = (323, 69);
place = (323, 69);
type = Stem;
}
);
layerId = m01;
shapes = (
{
closed = 1;
nodes = (
(540,0,l),
(540,8,l),
(524,18,o),
(521,41,o),
(521,84,cs),
(521,339,ls),
(521,407,o),
(495,459,o),
(442,492,cs),
(403,516,o),
(353,526,o),
(275,526,cs),
(115,526,o),
(37,443,o),
(33,342,c),
(212,342,l),
(217,379,o),
(238,403,o),
(279,403,cs),
(320,403,o),
(333,382,o),
(333,354,cs),
(333,322,o),
(304,309,o),
(196,297,cs),
(98,286,o),
(11,253,o),
(11,140,cs),
(11,40,o),
(83,-13,o),
(181,-13,cs),
(247,-13,o),
(301,9,o),
(335,56,c),
(337,56,l),
(341,28,o),
(347,12,o),
(354,0,c)
);
},
{
closed = 1;
nodes = (
(221,99,o),
(193,114,o),
(193,148,cs),
(193,178,o),
(210,194,o),
(265,206,cs),
(297,213,o),
(320,221,o),
(338,230,c),
(338,185,ls),
(338,124,o),
(296,99,o),
(252,99,cs)
);
},
{
closed = 1;
nodes = (
(343,555,o),
(392,599,o),
(392,657,cs),
(392,715,o),
(343,760,o),
(285,760,cs),
(227,760,o),
(178,715,o),
(178,657,cs),
(178,599,o),
(227,555,o),
(285,555,cs)
);
},
{
closed = 1;
nodes = (
(262,619,o),
(247,637,o),
(247,657,cs),
(247,677,o),
(262,696,o),
(285,696,cs),
(308,696,o),
(323,677,o),
(323,657,cs),
(323,637,o),
(308,619,o),
(285,619,cs)
);
}
);
width = 559;
}
);
note = aring;
unicode = 229;
},
{
glyphname = ccedilla;
kernLeft = c;
kernRight = c;
layers = (
{
hints = (
{
horizontal = 1;
place = (-193, 51);
place = (-193, 51);
type = Stem;
},
{
horizontal = 1;
place = (-90, 45);
place = (-90, 45);
type = Stem;
},
{
horizontal = 1;
place = (-14, 21);
target = up;
type = BottomGhost;
},
{
horizontal = 1;
place = (393, 132);
place = (393, 132);
type = Stem;
},
{
place = (13, 192);
place = (13, 192);
type = Stem;
},
{
place = (288, 106);
place = (288, 106);
type = Stem;
},
{
place = (367, 182);
place = (367, 182);
type = Stem;
}
);
layerId = m01;
shapes = (
{
closed = 1;
nodes = (
(339,-193,o),
(394,-164,o),
(394,-115,cs),
(394,-64,o),
(350,-42,o),
(289,-45,c),
(289,-43,l),
(323,-15,l),
(459,-3,o),
(549,88,o),
(549,206,c),
(367,206,l),
(362,148,o),
(339,117,o),
(293,117,cs),
(235,117,o),
(205,169,o),
(205,254,cs),
(205,340,o),
(233,393,o),
(291,393,cs),
(332,393,o),
(354,367,o),
(364,321,c),
(546,321,l),
(533,440,o),
(437,525,o),
(293,525,cs),
(125,525,o),
(13,409,o),
(13,254,cs),
(13,109,o),
(110,0,o),
(259,-14,c),
(203,-71,l),
(221,-97,l),
(231,-93,o),
(243,-90,o),
(254,-90,cs),
(274,-90,o),
(288,-95,o),
(288,-114,cs),
(288,-135,o),
(264,-142,o),
(237,-142,cs),
(213,-142,o),
(188,-136,o),
(169,-127,c),
(148,-164,l),
(177,-182,o),
(217,-193,o),
(266,-193,cs)
);
}
);
width = 559;
}
);
note = ccedilla;
unicode = 231;
},
{
glyphname = eacute;
kernLeft = c;
kernRight = e;
layers = (
{
hints = (
{
horizontal = 1;
place = (-14, 128);
place = (-14, 128);
type = Stem;
},
{
horizontal = 1;
place = (209, 100);
place = (209, 100);
type = Stem;
},
{
horizontal = 1;
place = (400, 127);
place = (400, 127);
type = Stem;
},
{
horizontal = 1;
place = (566, 155);
place = (566, 155);
type = Stem;
},
{
place = (13, 549);
place = (13, 549);
type = Stem;
},
{
horizontal = 1;
place = (-14, 166);
place = (-14, 166);
type = Stem;
}
);
layerId = m01;
shapes = (
{
closed = 1;
nodes = (
(357,-14,o),
(408,-1,o),
(455,29,cs),
(505,61,o),
(541,106,o),
(552,152,c),
(369,152,l),
(355,127,o),
(331,114,o),
(298,114,cs),
(241,114,o),
(209,150,o),
(198,209,c),
(562,209,l),
(564,310,o),
(535,401,o),
(473,458,cs),
(426,501,o),
(365,527,o),
(285,527,cs),
(124,527,o),
(13,410,o),
(13,256,cs),
(13,100,o),
(125,-14,o),
(292,-14,cs)
);
},
{
closed = 1;
nodes = (
(334,400,o),
(366,366,o),
(374,309,c),
(198,309,l),
(208,365,o),
(237,400,o),
(289,400,cs)
);
},
{
closed = 1;
nodes = (
(210,566,l),
(352,566,l),
(485,721,l),
(268,721,l)
);
}
);
width = 575;
}
);
note = eacute;
unicode = 233;
},
{
glyphname = egrave;
kernLeft = c;
kernRight = e;
layers = (
{
hints = (
{
horizontal = 1;
place = (-14, 128);
place = (-14, 128);
type = Stem;
},
{
horizontal = 1;
place = (209, 100);
place = (209, 100);
type = Stem;
},
{
horizontal = 1;
place = (400, 127);
place = (400, 127);
type = Stem;
},
{
horizontal = 1;
place = (566, 155);
place = (566, 155);
type = Stem;
},
{
place = (13, 549);
place = (13, 549);
type = Stem;
},
{
horizontal = 1;
place = (-14, 166);
place = (-14, 166);
type = Stem;
}
);
layerId = m01;
shapes = (
{
closed = 1;
nodes = (
(357,-14,o),
(408,-1,o),
(455,29,cs),
(505,61,o),
(541,106,o),
(552,152,c),
(369,152,l),
(355,127,o),
(331,114,o),
(298,114,cs),
(241,114,o),
(209,150,o),
(198,209,c),
(562,209,l),
(564,310,o),
(535,401,o),
(473,458,cs),
(426,501,o),
(365,527,o),
(285,527,cs),
(124,527,o),
(13,410,o),
(13,256,cs),
(13,100,o),
(125,-14,o),
(292,-14,cs)
);
},
{
closed = 1;
nodes = (
(334,400,o),
(366,366,o),
(374,309,c),
(198,309,l),
(208,365,o),
(237,400,o),
(289,400,cs)
);
},
{
closed = 1;
nodes = (
(231,566,l),
(373,566,l),
(315,721,l),
(98,721,l)
);
}
);
width = 575;
}
);
note = egrave;
unicode = 232;
},
{
glyphname = ecircumflex;
kernLeft = c;
kernRight = e;
layers = (
{
hints = (
{
horizontal = 1;
place = (-14, 128);
place = (-14, 128);
type = Stem;
},
{
horizontal = 1;
place = (209, 100);
place = (209, 100);
type = Stem;
},
{
horizontal = 1;
place = (400, 127);
place = (400, 127);
type = Stem;
},
{
horizontal = 1;
place = (566, 149);
place = (566, 149);
type = Stem;
},
{
place = (13, 549);
place = (13, 549);
type = Stem;
},
{
horizontal = 1;
place = (-14, 166);
place = (-14, 166);
type = Stem;
},
{
horizontal = 1;
place = (629, 86);
place = (629, 86);
type = Stem;
}
);
layerId = m01;
shapes = (
{
closed = 1;
nodes = (
(357,-14,o),
(408,-1,o),
(455,29,cs),
(505,61,o),
(541,106,o),
(552,152,c),
(369,152,l),
(355,127,o),
(331,114,o),
(298,114,cs),
(241,114,o),
(209,150,o),
(198,209,c),
(562,209,l),
(564,310,o),
(535,401,o),
(473,458,cs),
(426,501,o),
(365,527,o),
(285,527,cs),
(124,527,o),
(13,410,o),
(13,256,cs),
(13,100,o),
(125,-14,o),
(292,-14,cs)
);
},
{
closed = 1;
nodes = (
(334,400,o),
(366,366,o),
(374,309,c),
(198,309,l),
(208,365,o),
(237,400,o),
(289,400,cs)
);
},
{
closed = 1;
nodes = (
(86,566,l),
(247,566,l),
(289,629,l),
(291,629,l),
(333,566,l),
(489,566,l),
(372,715,l),
(205,715,l)
);
}
);
width = 575;
}
);
note = ecircumflex;
unicode = 234;
},
{
glyphname = edieresis;
kernLeft = c;
kernRight = e;
layers = (
{
hints = (
{
horizontal = 1;
place = (-14, 128);
place = (-14, 128);
type = Stem;
},
{
horizontal = 1;
place = (209, 100);
place = (209, 100);
type = Stem;
},
{
horizontal = 1;
place = (400, 127);
place = (400, 127);
type = Stem;
},
{
horizontal = 1;
place = (572, 143);
place = (572, 143);
type = Stem;
},
{
place = (84, 178);
place = (84, 178);
type = Stem;
},
{
place = (312, 178);
place = (312, 178);
type = Stem;
},
{
horizontal = 1;
place = (-14, 166);
place = (-14, 166);
type = Stem;
}
);
layerId = m01;
shapes = (
{
closed = 1;
nodes = (
(357,-14,o),
(408,-1,o),
(455,29,cs),
(505,61,o),
(541,106,o),
(552,152,c),
(369,152,l),
(355,127,o),
(331,114,o),
(298,114,cs),
(241,114,o),
(209,150,o),
(198,209,c),
(562,209,l),
(564,310,o),
(535,401,o),
(473,458,cs),
(426,501,o),
(365,527,o),
(285,527,cs),
(124,527,o),
(13,410,o),
(13,256,cs),
(13,100,o),
(125,-14,o),
(292,-14,cs)
);
},
{
closed = 1;
nodes = (
(334,400,o),
(366,366,o),
(374,309,c),
(198,309,l),
(208,365,o),
(237,400,o),
(289,400,cs)
);
},
{
closed = 1;
nodes = (
(312,572,l),
(490,572,l),
(490,715,l),
(312,715,l)
);
},
{
closed = 1;
nodes = (
(84,572,l),
(262,572,l),
(262,715,l),
(84,715,l)
);
}
);
width = 575;
}
);
note = edieresis;
unicode = 235;
},
{
glyphname = iacute;
kernLeft = b;
layers = (
{
hints = (
{
horizontal = 1;
place = (0, 21);
target = up;
type = BottomGhost;
},
{
horizontal = 1;
place = (510, -20);
target = down;
type = TopGhost;
},
{
horizontal = 1;
place = (566, 155);
place = (566, 155);
type = Stem;
},
{
place = (34, 189);
place = (34, 189);
type = Stem;
}
);
layerId = m01;
shapes = (
{
closed = 1;
nodes = (
(34,0,l),
(223,0,l),
(223,510,l),
(34,510,l)
);
},
{
closed = 1;
nodes = (
(51,566,l),
(193,566,l),
(326,721,l),
(109,721,l)
);
}
);
width = 257;
}
);
note = iacute;
unicode = 237;
},
{
glyphname = igrave;
kernLeft = b;
layers = (
{
hints = (
{
horizontal = 1;
place = (0, 21);
target = up;
type = BottomGhost;
},
{
horizontal = 1;
place = (510, -20);
target = down;
type = TopGhost;
},
{
horizontal = 1;
place = (566, 155);
place = (566, 155);
type = Stem;
},
{
place = (34, 189);
place = (34, 189);
type = Stem;
}
);
layerId = m01;
shapes = (
{
closed = 1;
nodes = (
(34,0,l),
(223,0,l),
(223,510,l),
(34,510,l)
);
},
{
closed = 1;
nodes = (
(72,566,l),
(214,566,l),
(156,721,l),
(-61,721,l)
);
}
);
width = 257;
}
);
note = igrave;
unicode = 236;
},
{
glyphname = icircumflex;
kernLeft = b;
layers = (
{
hints = (
{
horizontal = 1;
place = (0, 21);
target = up;
type = BottomGhost;
},
{
horizontal = 1;
place = (510, -20);
target = down;
type = TopGhost;
},
{
horizontal = 1;
place = (566, 149);
place = (566, 149);
type = Stem;
},
{
place = (34, 189);
place = (34, 189);
type = Stem;
},
{
horizontal = 1;
place = (629, 86);
place = (629, 86);
type = Stem;
}
);
layerId = m01;
shapes = (
{
closed = 1;
nodes = (
(34,0,l),
(223,0,l),
(223,510,l),
(34,510,l)
);
},
{
closed = 1;
nodes = (
(-73,566,l),
(88,566,l),
(130,629,l),
(132,629,l),
(174,566,l),
(330,566,l),
(213,715,l),
(46,715,l)
);
}
);
width = 257;
}
);
note = icircumflex;
unicode = 238;
},
{
glyphname = idieresis;
kernLeft = b;
layers = (
{
hints = (
{
horizontal = 1;
place = (0, 21);
target = up;
type = BottomGhost;
},
{
horizontal = 1;
place = (510, -20);
target = down;
type = TopGhost;
},
{
horizontal = 1;
place = (572, 143);
place = (572, 143);
type = Stem;
},
{
place = (34, 189);
place = (34, 189);
type = Stem;
},
{
place = (149, 142);
place = (149, 142);
type = Stem;
},
{
place = (-35, 142);
place = (-35, 142);
type = Stem;
}
);
layerId = m01;
shapes = (
{
closed = 1;
nodes = (
(34,0,l),
(223,0,l),
(223,510,l),
(34,510,l)
);
},
{
closed = 1;
nodes = (
(149,572,l),
(291,572,l),
(291,715,l),
(149,715,l)
);
},
{
closed = 1;
nodes = (
(-35,572,l),
(107,572,l),
(107,715,l),
(-35,715,l)
);
}
);
width = 257;
}
);
note = idieresis;
unicode = 239;
},
{
glyphname = ntilde;
kernLeft = m;
kernRight = h;
layers = (
{
hints = (
{
horizontal = 1;
place = (0, 21);
target = up;
type = BottomGhost;
},
{
horizontal = 1;
place = (372, 138);
place = (372, 138);
type = Stem;
},
{
horizontal = 1;
place = (569, 147);
place = (569, 147);
type = Stem;
},
{
place = (34, 189);
place = (34, 189);
type = Stem;
},
{
place = (371, 189);
place = (371, 189);
type = Stem;
},
{
horizontal = 1;
place = (372, 154);
place = (372, 154);
type = Stem;
},
{
horizontal = 1;
place = (564, 152);
place = (564, 152);
type = Stem;
},
{
place = (122, 92);
place = (122, 92);
type = Stem;
},
{
horizontal = 1;
place = (606, 110);
place = (606, 110);
type = Stem;
},
{
place = (391, 96);
place = (391, 96);
type = Stem;
},
{
horizontal = 1;
place = (569, 109);
place = (569, 109);
type = Stem;
}
);
layerId = m01;
shapes = (
{
closed = 1;
nodes = (
(214,510,l),
(34,510,l),
(34,0,l),
(223,0,l),
(223,275,ls),
(223,330,o),
(252,372,o),
(300,372,cs),
(349,372,o),
(371,337,o),
(371,284,cs),
(371,0,l),
(560,0,l),
(560,330,ls),
(560,447,o),
(499,526,o),
(381,526,cs),
(310,526,o),
(258,496,o),
(217,440,c),
(214,440,l)
);
},
{
closed = 1;
nodes = (
(218,564,l),
(221,591,o),
(233,606,o),
(252,606,cs),
(270,606,o),
(279,599,o),
(309,585,cs),
(329,576,o),
(351,569,o),
(378,569,cs),
(451,569,o),
(487,628,o),
(487,716,c),
(391,716,l),
(389,693,o),
(382,678,o),
(359,678,cs),
(343,678,o),
(334,684,o),
(309,697,cs),
(289,707,o),
(265,716,o),
(238,716,cs),
(174,716,o),
(122,667,o),
(122,564,c)
);
}
);
width = 590;
}
);
note = ntilde;
unicode = 241;
},
{
glyphname = oacute;
kernLeft = c;
kernRight = o;
layers = (
{
hints = (
{
horizontal = 1;
place = (-16, 126);
place = (-16, 126);
type = Stem;
},
{
horizontal = 1;
place = (398, 127);
place = (398, 127);
type = Stem;
},
{
horizontal = 1;
place = (566, 155);
place = (566, 155);
type = Stem;
},
{
place = (13, 192);
place = (13, 192);
type = Stem;
},
{
place = (379, 192);
place = (379, 192);
type = Stem;
}
);
layerId = m01;
shapes = (
{
closed = 1;
nodes = (
(463,-16,o),
(571,99,o),
(571,254,cs),
(571,409,o),
(463,525,o),
(293,525,cs),
(123,525,o),
(13,409,o),
(13,254,cs),
(13,99,o),
(123,-16,o),
(293,-16,cs)
);
},
{
closed = 1;
nodes = (
(233,110,o),
(205,168,o),
(205,254,cs),
(205,340,o),
(233,398,o),
(291,398,cs),
(349,398,o),
(379,340,o),
(379,254,cs),
(379,168,o),
(349,110,o),
(291,110,cs)
);
},
{
closed = 1;
nodes = (
(215,566,l),
(357,566,l),
(490,721,l),
(273,721,l)
);
}
);
width = 584;
}
);
note = oacute;
unicode = 243;
},
{
glyphname = ograve;
kernLeft = c;
kernRight = o;
layers = (
{
hints = (
{
horizontal = 1;
place = (-16, 126);
place = (-16, 126);
type = Stem;
},
{
horizontal = 1;
place = (398, 127);
place = (398, 127);
type = Stem;
},
{
horizontal = 1;
place = (566, 155);
place = (566, 155);
type = Stem;
},
{
place = (13, 192);
place = (13, 192);
type = Stem;
},
{
place = (379, 192);
place = (379, 192);
type = Stem;
}
);
layerId = m01;
shapes = (
{
closed = 1;
nodes = (
(463,-16,o),
(571,99,o),
(571,254,cs),
(571,409,o),
(463,525,o),
(293,525,cs),
(123,525,o),
(13,409,o),
(13,254,cs),
(13,99,o),
(123,-16,o),
(293,-16,cs)
);
},
{
closed = 1;
nodes = (
(233,110,o),
(205,168,o),
(205,254,cs),
(205,340,o),
(233,398,o),
(291,398,cs),
(349,398,o),
(379,340,o),
(379,254,cs),
(379,168,o),
(349,110,o),
(291,110,cs)
);
},
{
closed = 1;
nodes = (
(236,566,l),
(378,566,l),
(320,721,l),
(103,721,l)
);
}
);
width = 584;
}
);
note = ograve;
unicode = 242;
},
{
glyphname = ocircumflex;
kernLeft = c;
kernRight = o;
layers = (
{
hints = (
{
horizontal = 1;
place = (-16, 126);
place = (-16, 126);
type = Stem;
},
{
horizontal = 1;
place = (398, 127);
place = (398, 127);
type = Stem;
},
{
horizontal = 1;
place = (566, 149);
place = (566, 149);
type = Stem;
},
{
place = (13, 192);
place = (13, 192);
type = Stem;
},
{
place = (379, 192);
place = (379, 192);
type = Stem;
},
{
horizontal = 1;
place = (629, 86);
place = (629, 86);
type = Stem;
}
);
layerId = m01;
shapes = (
{
closed = 1;
nodes = (
(463,-16,o),
(571,99,o),
(571,254,cs),
(571,409,o),
(463,525,o),
(293,525,cs),
(123,525,o),
(13,409,o),
(13,254,cs),
(13,99,o),
(123,-16,o),
(293,-16,cs)
);
},
{
closed = 1;
nodes = (
(233,110,o),
(205,168,o),
(205,254,cs),
(205,340,o),
(233,398,o),
(291,398,cs),
(349,398,o),
(379,340,o),
(379,254,cs),
(379,168,o),
(349,110,o),
(291,110,cs)
);
},
{
closed = 1;
nodes = (
(91,566,l),
(252,566,l),
(294,629,l),
(296,629,l),
(338,566,l),
(494,566,l),
(377,715,l),
(210,715,l)
);
}
);
width = 584;
}
);
note = ocircumflex;
unicode = 244;
},
{
glyphname = odieresis;
kernLeft = c;
kernRight = o;
layers = (
{
hints = (
{
horizontal = 1;
place = (-16, 126);
place = (-16, 126);
type = Stem;
},
{
horizontal = 1;
place = (398, 127);
place = (398, 127);
type = Stem;
},
{
horizontal = 1;
place = (572, 143);
place = (572, 143);
type = Stem;
},
{
place = (13, 192);
place = (13, 192);
type = Stem;
},
{
place = (379, 192);
place = (379, 192);
type = Stem;
},
{
place = (89, 178);
place = (89, 178);
type = Stem;
},
{
place = (317, 178);
place = (317, 178);
type = Stem;
}
);
layerId = m01;
shapes = (
{
closed = 1;
nodes = (
(463,-16,o),
(571,99,o),
(571,254,cs),
(571,409,o),
(463,525,o),
(293,525,cs),
(123,525,o),
(13,409,o),
(13,254,cs),
(13,99,o),
(123,-16,o),
(293,-16,cs)
);
},
{
closed = 1;
nodes = (
(233,110,o),
(205,168,o),
(205,254,cs),
(205,340,o),
(233,398,o),
(291,398,cs),
(349,398,o),
(379,340,o),
(379,254,cs),
(379,168,o),
(349,110,o),
(291,110,cs)
);
},
{
closed = 1;
nodes = (
(317,572,l),
(495,572,l),
(495,715,l),
(317,715,l)
);
},
{
closed = 1;
nodes = (
(89,572,l),
(267,572,l),
(267,715,l),
(89,715,l)
);
}
);
width = 584;
}
);
note = odieresis;
unicode = 246;
},
{
glyphname = otilde;
kernLeft = c;
kernRight = o;
layers = (
{
hints = (
{
horizontal = 1;
place = (-16, 126);
place = (-16, 126);
type = Stem;
},
{
horizontal = 1;
place = (398, 127);
place = (398, 127);
type = Stem;
},
{
horizontal = 1;
place = (569, 147);
place = (569, 147);
type = Stem;
},
{
place = (13, 192);
place = (13, 192);
type = Stem;
},
{
place = (379, 192);
place = (379, 192);
type = Stem;
},
{
horizontal = 1;
place = (564, 152);
place = (564, 152);
type = Stem;
},
{
place = (110, 96);
place = (110, 96);
type = Stem;
},
{
horizontal = 1;
place = (606, 110);
place = (606, 110);
type = Stem;
},
{
place = (379, 96);
place = (379, 96);
type = Stem;
},
{
horizontal = 1;
place = (569, 109);
place = (569, 109);
type = Stem;
}
);
layerId = m01;
shapes = (
{
closed = 1;
nodes = (
(463,-16,o),
(571,99,o),
(571,254,cs),
(571,409,o),
(463,525,o),
(293,525,cs),
(123,525,o),
(13,409,o),
(13,254,cs),
(13,99,o),
(123,-16,o),
(293,-16,cs)
);
},
{
closed = 1;
nodes = (
(233,110,o),
(205,168,o),
(205,254,cs),
(205,340,o),
(233,398,o),
(291,398,cs),
(349,398,o),
(379,340,o),
(379,254,cs),
(379,168,o),
(349,110,o),
(291,110,cs)
);
},
{
closed = 1;
nodes = (
(206,564,l),
(209,591,o),
(221,606,o),
(240,606,cs),
(258,606,o),
(267,599,o),
(297,585,cs),
(317,576,o),
(339,569,o),
(366,569,cs),
(439,569,o),
(475,628,o),
(475,716,c),
(379,716,l),
(377,693,o),
(370,678,o),
(347,678,cs),
(331,678,o),
(322,684,o),
(297,697,cs),
(277,707,o),
(253,716,o),
(226,716,cs),
(162,716,o),
(110,667,o),
(110,564,c)
);
}
);
width = 584;
}
);
note = otilde;
unicode = 245;
},
{
glyphname = uacute;
kernLeft = u;
kernRight = u;
layers = (
{
hints = (
{
horizontal = 1;
place = (0, 145);
place = (0, 145);
type = Stem;
},
{
horizontal = 1;
place = (510, -20);
target = down;
type = TopGhost;
},
{
horizontal = 1;
place = (566, 155);
place = (566, 155);
type = Stem;
},
{
place = (30, 189);
place = (30, 189);
type = Stem;
},
{
place = (365, 189);
place = (365, 189);
type = Stem;
},
{
horizontal = 1;
place = (-16, 161);
place = (-16, 161);
type = Stem;
}
);
layerId = m01;
shapes = (
{
closed = 1;
nodes = (
(554,0,l),
(554,510,l),
(365,510,l),
(365,235,ls),
(365,180,o),
(336,145,o),
(287,145,cs),
(242,145,o),
(219,173,o),
(219,226,cs),
(219,510,l),
(30,510,l),
(30,181,ls),
(30,64,o),
(90,-16,o),
(212,-16,cs),
(282,-16,o),
(332,13,o),
(371,66,c),
(374,66,l),
(374,0,l)
);
},
{
closed = 1;
nodes = (
(215,566,l),
(357,566,l),
(490,721,l),
(273,721,l)
);
}
);
width = 588;
}
);
note = uacute;
unicode = 250;
},
{
glyphname = ugrave;
kernLeft = u;
kernRight = u;
layers = (
{
hints = (
{
horizontal = 1;
place = (0, 145);
place = (0, 145);
type = Stem;
},
{
horizontal = 1;
place = (510, -20);
target = down;
type = TopGhost;
},
{
horizontal = 1;
place = (566, 155);
place = (566, 155);
type = Stem;
},
{
place = (30, 189);
place = (30, 189);
type = Stem;
},
{
place = (365, 189);
place = (365, 189);
type = Stem;
},
{
horizontal = 1;
place = (-16, 161);
place = (-16, 161);
type = Stem;
}
);
layerId = m01;
shapes = (
{
closed = 1;
nodes = (
(554,0,l),
(554,510,l),
(365,510,l),
(365,235,ls),
(365,180,o),
(336,145,o),
(287,145,cs),
(242,145,o),
(219,173,o),
(219,226,cs),
(219,510,l),
(30,510,l),
(30,181,ls),
(30,64,o),
(90,-16,o),
(212,-16,cs),
(282,-16,o),
(332,13,o),
(371,66,c),
(374,66,l),
(374,0,l)
);
},
{
closed = 1;
nodes = (
(236,566,l),
(378,566,l),
(320,721,l),
(103,721,l)
);
}
);
width = 588;
}
);
note = ugrave;
unicode = 249;
},
{
glyphname = ucircumflex;
kernLeft = u;
kernRight = u;
layers = (
{
hints = (
{
horizontal = 1;
place = (0, 145);
place = (0, 145);
type = Stem;
},
{
horizontal = 1;
place = (510, -20);
target = down;
type = TopGhost;
},
{
horizontal = 1;
place = (566, 149);
place = (566, 149);
type = Stem;
},
{
place = (30, 189);
place = (30, 189);
type = Stem;
},
{
place = (365, 189);
place = (365, 189);
type = Stem;
},
{
horizontal = 1;
place = (-16, 161);
place = (-16, 161);
type = Stem;
},
{
horizontal = 1;
place = (629, 86);
place = (629, 86);
type = Stem;
}
);
layerId = m01;
shapes = (
{
closed = 1;
nodes = (
(554,0,l),
(554,510,l),
(365,510,l),
(365,235,ls),
(365,180,o),
(336,145,o),
(287,145,cs),
(242,145,o),
(219,173,o),
(219,226,cs),
(219,510,l),
(30,510,l),
(30,181,ls),
(30,64,o),
(90,-16,o),
(212,-16,cs),
(282,-16,o),
(332,13,o),
(371,66,c),
(374,66,l),
(374,0,l)
);
},
{
closed = 1;
nodes = (
(91,566,l),
(252,566,l),
(294,629,l),
(296,629,l),
(338,566,l),
(494,566,l),
(377,715,l),
(210,715,l)
);
}
);
width = 588;
}
);
note = ucircumflex;
unicode = 251;
},
{
glyphname = udieresis;
kernLeft = u;
kernRight = u;
layers = (
{
hints = (
{
horizontal = 1;
place = (0, 145);
place = (0, 145);
type = Stem;
},
{
horizontal = 1;
place = (510, -20);
target = down;
type = TopGhost;
},
{
horizontal = 1;
place = (572, 143);
place = (572, 143);
type = Stem;
},
{
place = (30, 189);
place = (30, 189);
type = Stem;
},
{
place = (365, 189);
place = (365, 189);
type = Stem;
},
{
horizontal = 1;
place = (-16, 161);
place = (-16, 161);
type = Stem;
},
{
place = (89, 178);
place = (89, 178);
type = Stem;
},
{
place = (317, 178);
place = (317, 178);
type = Stem;
}
);
layerId = m01;
shapes = (
{
closed = 1;
nodes = (
(554,0,l),
(554,510,l),
(365,510,l),
(365,235,ls),
(365,180,o),
(336,145,o),
(287,145,cs),
(242,145,o),
(219,173,o),
(219,226,cs),
(219,510,l),
(30,510,l),
(30,181,ls),
(30,64,o),
(90,-16,o),
(212,-16,cs),
(282,-16,o),
(332,13,o),
(371,66,c),
(374,66,l),
(374,0,l)
);
},
{
closed = 1;
nodes = (
(317,572,l),
(495,572,l),
(495,715,l),
(317,715,l)
);
},
{
closed = 1;
nodes = (
(89,572,l),
(267,572,l),
(267,715,l),
(89,715,l)
);
}
);
width = 588;
}
);
note = udieresis;
unicode = 252;
},
{
glyphname = dagger;
layers = (
{
hints = (
{
horizontal = 1;
place = (-169, 21);
target = up;
type = BottomGhost;
},
{
horizontal = 1;
place = (349, 161);
place = (349, 161);
type = Stem;
},
{
horizontal = 1;
place = (715, -20);
target = down;
type = TopGhost;
},
{
place = (202, 209);
place = (202, 209);
type = Stem;
}
);
layerId = m01;
shapes = (
{
closed = 1;
nodes = (
(34,349,l),
(202,349,l),
(202,-169,l),
(411,-169,l),
(411,349,l),
(579,349,l),
(579,510,l),
(411,510,l),
(411,715,l),
(202,715,l),
(202,510,l),
(34,510,l)
);
}
);
width = 613;
}
);
note = dagger;
unicode = 8224;
},
{
glyphname = degree;
layers = (
{
hints = (
{
horizontal = 1;
place = (381, 93);
place = (381, 93);
type = Stem;
},
{
horizontal = 1;
place = (606, 93);
place = (606, 93);
type = Stem;
},
{
place = (31, 103);
place = (31, 103);
type = Stem;
},
{
place = (260, 103);
place = (260, 103);
type = Stem;
}
);
layerId = m01;
shapes = (
{
closed = 1;
nodes = (
(286,381,o),
(363,449,o),
(363,539,cs),
(363,629,o),
(286,699,o),
(197,699,cs),
(107,699,o),
(31,629,o),
(31,539,cs),
(31,449,o),
(107,381,o),
(197,381,cs)
);
},
{
closed = 1;
nodes = (
(157,474,o),
(134,505,o),
(134,539,cs),
(134,573,o),
(157,606,o),
(197,606,cs),
(236,606,o),
(260,573,o),
(260,539,cs),
(260,505,o),
(236,474,o),
(197,474,cs)
);
}
);
width = 394;
}
);
note = degree;
unicode = 176;
},
{
glyphname = cent;
layers = (
{
hints = (
{
horizontal = 1;
place = (-15, 21);
target = up;
type = BottomGhost;
},
{
horizontal = 1;
place = (524, -20);
target = down;
type = TopGhost;
},
{
place = (254, 62);
place = (254, 62);
type = Stem;
},
{
place = (370, 170);
place = (370, 170);
type = Stem;
},
{
horizontal = 1;
place = (-14, 21);
target = up;
type = BottomGhost;
},
{
horizontal = 1;
place = (523, -20);
target = down;
type = TopGhost;
},
{
place = (13, 181);
place = (13, 181);
type = Stem;
}
);
layerId = m01;
shapes = (
{
closed = 1;
nodes = (
(254,-114,l),
(316,-114,l),
(316,-15,l),
(453,-4,o),
(540,88,o),
(540,206,c),
(370,206,l),
(366,160,o),
(347,130,o),
(316,119,c),
(316,389,l),
(342,379,o),
(359,355,o),
(367,321,c),
(537,321,l),
(526,432,o),
(444,513,o),
(316,524,c),
(316,594,l),
(254,594,l),
(254,523,l),
(105,508,o),
(13,398,o),
(13,254,cs),
(13,109,o),
(105,0,o),
(254,-14,c)
);
},
{
closed = 1;
nodes = (
(194,324,o),
(215,373,o),
(254,389,c),
(254,121,l),
(215,138,o),
(194,185,o),
(194,254,cs)
);
}
);
width = 563;
}
);
note = cent;
unicode = 162;
},
{
glyphname = sterling;
layers = (
{
hints = (
{
horizontal = 1;
place = (-11, 21);
target = up;
type = BottomGhost;
},
{
horizontal = 1;
place = (287, 100);
place = (287, 100);
type = Stem;
},
{
horizontal = 1;
place = (546, 153);
place = (546, 153);
type = Stem;
},
{
place = (34, 208);
place = (34, 208);
type = Stem;
},
{
place = (402, 188);
place = (402, 188);
type = Stem;
},
{
horizontal = 1;
place = (34, 148);
place = (34, 148);
type = Stem;
},
{
place = (112, 190);
place = (112, 190);
type = Stem;
},
{
horizontal = 1;
place = (-16, 177);
place = (-16, 177);
type = Stem;
}
);
layerId = m01;
shapes = (
{
closed = 1;
nodes = (
(24,287,l),
(109,287,l),
(111,277,o),
(112,267,o),
(112,256,cs),
(112,211,o),
(75,165,o),
(18,130,c),
(110,-11,l),
(146,16,o),
(179,34,o),
(220,34,cs),
(298,34,o),
(329,-16,o),
(432,-16,cs),
(492,-16,o),
(551,10,o),
(589,43,c),
(513,198,l),
(495,182,o),
(465,161,o),
(428,161,cs),
(377,161,o),
(372,182,o),
(300,182,cs),
(272,182,o),
(249,177,o),
(232,170,c),
(230,173,l),
(279,206,o),
(302,242,o),
(302,282,cs),
(302,287,l),
(394,287,l),
(394,387,l),
(271,387,l),
(256,414,o),
(242,439,o),
(242,473,cs),
(242,516,o),
(265,546,o),
(315,546,cs),
(370,546,o),
(402,514,o),
(402,444,c),
(590,444,l),
(588,545,o),
(559,602,o),
(504,644,cs),
(456,681,o),
(393,699,o),
(311,699,cs),
(127,699,o),
(34,602,o),
(34,479,cs),
(34,440,o),
(45,412,o),
(59,387,c),
(24,387,l)
);
}
);
width = 603;
}
);
note = sterling;
unicode = 163;
},
{
glyphname = section;
layers = (
{
hints = (
{
horizontal = 1;
place = (-191, 141);
place = (-191, 141);
type = Stem;
},
{
horizontal = 1;
place = (592, 136);
place = (592, 136);
type = Stem;
},
{
place = (94, 166);
place = (94, 166);
type = Stem;
},
{
place = (407, 174);
place = (407, 174);
type = Stem;
},
{
place = (112, 178);
place = (112, 178);
type = Stem;
},
{
place = (459, 174);
place = (459, 174);
type = Stem;
},
{
place = (33, 163);
place = (33, 163);
type = Stem;
}
);
layerId = m01;
shapes = (
{
closed = 1;
nodes = (
(486,-191,o),
(581,-121,o),
(581,4,cs),
(581,57,o),
(560,95,o),
(524,124,c),
(587,142,o),
(633,182,o),
(633,265,cs),
(633,362,o),
(543,411,o),
(448,450,cs),
(339,494,o),
(290,505,o),
(290,545,cs),
(290,572,o),
(309,592,o),
(350,592,cs),
(403,592,o),
(420,565,o),
(423,523,c),
(581,523,l),
(577,665,o),
(473,728,o),
(340,728,cs),
(204,728,o),
(112,648,o),
(112,547,cs),
(112,494,o),
(126,469,o),
(150,444,c),
(84,426,o),
(33,375,o),
(33,295,cs),
(33,189,o),
(113,144,o),
(226,102,cs),
(345,58,o),
(407,49,o),
(407,3,cs),
(407,-28,o),
(384,-50,o),
(341,-50,cs),
(286,-50,o),
(260,-23,o),
(260,18,c),
(94,18,l),
(100,-126,o),
(201,-191,o),
(348,-191,cs)
);
},
{
closed = 1;
nodes = (
(423,279,o),
(459,266,o),
(459,238,cs),
(459,214,o),
(439,204,o),
(416,199,c),
(384,214,o),
(351,227,o),
(324,239,cs),
(232,278,o),
(196,291,o),
(196,319,cs),
(196,342,o),
(212,353,o),
(234,358,c),
(269,341,o),
(307,325,o),
(343,311,cs)
);
}
);
width = 658;
}
);
note = section;
unicode = 167;
},
{
glyphname = bullet;
layers = (
{
hints = (
{
horizontal = 1;
place = (158, 320);
place = (158, 320);
type = Stem;
},
{
place = (38, 320);
place = (38, 320);
type = Stem;
}
);
layerId = m01;
shapes = (
{
closed = 1;
nodes = (
(286,158,o),
(358,230,o),
(358,318,cs),
(358,406,o),
(286,478,o),
(198,478,cs),
(110,478,o),
(38,406,o),
(38,318,cs),
(38,230,o),
(110,158,o),
(198,158,cs)
);
}
);
width = 396;
}
);
note = bullet;
unicode = 8226;
},
{
glyphname = paragraph;
layers = (
{
hints = (
{
horizontal = 1;
place = (0, 21);
target = up;
type = BottomGhost;
},
{
horizontal = 1;
place = (603, 112);
place = (603, 112);
type = Stem;
},
{
place = (282, 117);
place = (282, 117);
type = Stem;
},
{
place = (458, 117);
place = (458, 117);
type = Stem;
}
);
layerId = m01;
shapes = (
{
closed = 1;
nodes = (
(282,329,l),
(282,0,l),
(399,0,l),
(399,603,l),
(458,603,l),
(458,0,l),
(575,0,l),
(575,715,l),
(239,715,ls),
(171,715,o),
(122,698,o),
(85,664,cs),
(47,629,o),
(26,578,o),
(26,517,cs),
(26,409,o),
(102,329,o),
(211,329,cs)
);
}
);
width = 627;
}
);
note = paragraph;
unicode = 182;
},
{
glyphname = germandbls;
kernLeft = germandbls;
kernRight = germandbls;
layers = (
{
hints = (
{
horizontal = 1;
place = (-9, 21);
target = up;
type = BottomGhost;
},
{
horizontal = 1;
place = (338, 103);
place = (338, 103);
type = Stem;
},
{
horizontal = 1;
place = (583, 145);
place = (583, 145);
type = Stem;
},
{
place = (34, 189);
place = (34, 189);
type = Stem;
},
{
place = (404, 187);
place = (404, 187);
type = Stem;
},
{
horizontal = 1;
place = (0, 21);
target = up;
type = BottomGhost;
},
{
place = (278, 191);
place = (278, 191);
type = Stem;
},
{
place = (378, 174);
place = (378, 174);
type = Stem;
},
{
horizontal = 1;
place = (0, 141);
place = (0, 141);
type = Stem;
}
);
layerId = m01;
shapes = (
{
closed = 1;
nodes = (
(495,-9,o),
(591,70,o),
(591,218,cs),
(591,314,o),
(544,373,o),
(469,399,c),
(469,402,l),
(529,427,o),
(552,474,o),
(552,535,cs),
(552,651,o),
(456,728,o),
(299,728,cs),
(136,728,o),
(34,645,o),
(34,503,cs),
(34,0,l),
(223,0,l),
(223,497,ls),
(223,553,o),
(258,583,o),
(304,583,cs),
(350,583,o),
(378,555,o),
(378,514,cs),
(378,462,o),
(340,441,o),
(278,441,c),
(278,338,l),
(301,338,ls),
(366,338,o),
(404,303,o),
(404,241,cs),
(404,171,o),
(360,132,o),
(275,141,c),
(275,4,l),
(299,-4,o),
(327,-9,o),
(363,-9,cs)
);
}
);
width = 604;
}
);
note = germandbls;
unicode = 223;
},
{
glyphname = registered;
kernLeft = registered;
layers = (
{
hints = (
{
horizontal = 1;
place = (244, 41);
place = (244, 41);
type = Stem;
},
{
horizontal = 1;
place = (446, 57);
place = (446, 57);
type = Stem;
},
{
horizontal = 1;
place = (552, 63);
place = (552, 63);
type = Stem;
},
{
horizontal = 1;
place = (686, 42);
place = (686, 42);
type = Stem;
},
{
place = (26, 48);
place = (26, 48);
type = Stem;
},
{
place = (157, 82);
place = (157, 82);
type = Stem;
},
{
place = (305, 81);
place = (305, 81);
type = Stem;
},
{
place = (458, 48);
place = (458, 48);
type = Stem;
}
);
layerId = m01;
shapes = (
{
closed = 1;
nodes = (
(400,244,o),
(506,347,o),
(506,486,cs),
(506,625,o),
(400,728,o),
(266,728,cs),
(132,728,o),
(26,625,o),
(26,486,cs),
(26,347,o),
(132,244,o),
(266,244,cs)
);
},
{
closed = 1;
nodes = (
(156,285,o),
(74,370,o),
(74,486,cs),
(74,601,o),
(156,686,o),
(266,686,cs),
(376,686,o),
(458,601,o),
(458,486,cs),
(458,370,o),
(376,285,o),
(266,285,cs)
);
},
{
closed = 1;
nodes = (
(157,360,l),
(239,360,l),
(239,446,l),
(267,446,ls),
(289,446,o),
(298,439,o),
(302,419,cs),
(307,395,o),
(305,364,o),
(312,360,c),
(393,360,l),
(393,366,l),
(382,371,o),
(387,403,o),
(380,433,cs),
(375,453,o),
(367,468,o),
(344,476,c),
(344,478,l),
(371,488,o),
(386,510,o),
(386,539,cs),
(386,591,o),
(338,615,o),
(285,615,cs),
(157,615,l)
);
},
{
closed = 1;
nodes = (
(239,552,l),
(273,552,ls),
(296,552,o),
(305,544,o),
(305,528,cs),
(305,511,o),
(294,503,o),
(273,503,cs),
(239,503,l)
);
}
);
width = 532;
}
);
note = registered;
unicode = 174;
},
{
glyphname = copyright;
kernLeft = copyright;
kernRight = copyright;
layers = (
{
hints = (
{
horizontal = 1;
place = (-17, 54);
place = (-17, 54);
type = Stem;
},
{
horizontal = 1;
place = (136, 115);
place = (136, 115);
type = Stem;
},
{
horizontal = 1;
place = (468, 115);
place = (468, 115);
type = Stem;
},
{
horizontal = 1;
place = (673, 55);
place = (673, 55);
type = Stem;
},
{
place = (40, 64);
place = (40, 64);
type = Stem;
},
{
place = (196, 140);
place = (196, 140);
type = Stem;
},
{
place = (714, 64);
place = (714, 64);
type = Stem;
}
);
layerId = m01;
shapes = (
{
closed = 1;
nodes = (
(615,-17,o),
(778,141,o),
(778,355,cs),
(778,569,o),
(615,728,o),
(409,728,cs),
(203,728,o),
(40,569,o),
(40,355,cs),
(40,141,o),
(203,-17,o),
(409,-17,cs)
);
},
{
closed = 1;
nodes = (
(235,37,o),
(104,173,o),
(104,355,cs),
(104,537,o),
(235,673,o),
(409,673,cs),
(583,673,o),
(714,537,o),
(714,355,cs),
(714,173,o),
(583,37,o),
(409,37,cs)
);
},
{
closed = 1;
nodes = (
(476,136,o),
(521,152,o),
(558,187,cs),
(588,216,o),
(610,258,o),
(614,306,c),
(481,306,l),
(477,276,o),
(454,251,o),
(415,251,cs),
(365,251,o),
(336,296,o),
(336,359,cs),
(336,422,o),
(360,468,o),
(413,468,cs),
(450,468,o),
(472,444,o),
(477,416,c),
(609,416,l),
(603,471,o),
(578,519,o),
(533,549,cs),
(501,570,o),
(460,583,o),
(413,583,cs),
(284,583,o),
(196,488,o),
(196,359,cs),
(196,231,o),
(282,136,o),
(413,136,cs)
);
}
);
width = 818;
}
);
note = copyright;
unicode = 169;
},
{
glyphname = trademark;
kernLeft = trademark;
layers = (
{
hints = (
{
horizontal = 1;
place = (634, 81);
place = (634, 81);
type = Stem;
},
{
place = (105, 99);
place = (105, 99);
type = Stem;
},
{
place = (314, 89);
place = (314, 89);
type = Stem;
},
{
place = (568, 92);
place = (568, 92);
type = Stem;
}
);
layerId = m01;
shapes = (
{
closed = 1;
nodes = (
(314,443,l),
(403,443,l),
(403,593,l),
(405,593,l),
(451,443,l),
(519,443,l),
(566,593,l),
(568,593,l),
(568,443,l),
(660,443,l),
(660,715,l),
(524,715,l),
(487,581,l),
(485,581,l),
(448,715,l),
(314,715,l)
);
},
{
closed = 1;
nodes = (
(31,634,l),
(105,634,l),
(105,443,l),
(204,443,l),
(204,634,l),
(278,634,l),
(278,715,l),
(31,715,l)
);
}
);
width = 718;
}
);
note = trademark;
unicode = 8482;
},
{
glyphname = acute;
layers = (
{
hints = (
{
horizontal = 1;
place = (566, 155);
place = (566, 155);
type = Stem;
},
{
place = (159, 275);
place = (159, 275);
type = Stem;
}
);
layerId = m01;
shapes = (
{
closed = 1;
nodes = (
(159,566,l),
(301,566,l),
(434,721,l),
(217,721,l)
);
}
);
width = 500;
}
);
note = acute;
unicode = 180;
},
{
glyphname = dieresis;
layers = (
{
hints = (
{
horizontal = 1;
place = (572, 143);
place = (572, 143);
type = Stem;
},
{
place = (47, 178);
place = (47, 178);
type = Stem;
},
{
place = (275, 178);
place = (275, 178);
type = Stem;
}
);
layerId = m01;
shapes = (
{
closed = 1;
nodes = (
(275,572,l),
(453,572,l),
(453,715,l),
(275,715,l)
);
},
{
closed = 1;
nodes = (
(47,572,l),
(225,572,l),
(225,715,l),
(47,715,l)
);
}
);
width = 500;
}
);
note = dieresis;
unicode = 168;
},
{
glyphname = notequal;
layers = (
{
hints = (
{
horizontal = 1;
place = (115, 151);
place = (115, 151);
type = Stem;
},
{
horizontal = 1;
place = (350, 151);
place = (350, 151);
type = Stem;
},
{
place = (45, 473);
place = (45, 473);
type = Stem;
}
);
layerId = m01;
shapes = (
{
closed = 1;
nodes = (
(45,350,l),
(249,350,l),
(210,266,l),
(45,266,l),
(45,115,l),
(139,115,l),
(103,38,l),
(217,38,l),
(253,115,l),
(518,115,l),
(518,266,l),
(324,266,l),
(363,350,l),
(518,350,l),
(518,501,l),
(434,501,l),
(473,583,l),
(359,583,l),
(320,501,l),
(45,501,l)
);
}
);
width = 563;
}
);
note = notequal;
unicode = 8800;
},
{
glyphname = AE;
kernLeft = AE;
kernRight = E;
layers = (
{
hints = (
{
horizontal = 1;
place = (0, 179);
place = (0, 179);
type = Stem;
},
{
horizontal = 1;
place = (291, 157);
place = (291, 157);
type = Stem;
},
{
horizontal = 1;
place = (545, 170);
place = (545, 170);
type = Stem;
},
{
place = (436, 209);
place = (436, 209);
type = Stem;
},
{
horizontal = 1;
place = (99, 140);
place = (99, 140);
type = Stem;
}
);
layerId = m01;
shapes = (
{
closed = 1;
nodes = (
(-6,0,l),
(197,0,l),
(227,99,l),
(436,99,l),
(436,0,l),
(991,0,l),
(991,179,l),
(645,179,l),
(645,291,l),
(924,291,l),
(924,448,l),
(645,448,l),
(645,545,l),
(981,545,l),
(981,715,l),
(230,715,l)
);
},
{
closed = 1;
nodes = (
(366,545,l),
(436,545,l),
(436,239,l),
(271,239,l)
);
}
);
width = 1018;
}
);
note = AE;
unicode = 198;
},
{
glyphname = Oslash;
kernLeft = C;
kernRight = O;
layers = (
{
hints = (
{
horizontal = 1;
place = (-17, 167);
place = (-17, 167);
type = Stem;
},
{
horizontal = 1;
place = (524, -20);
target = down;
type = TopGhost;
},
{
horizontal = 1;
place = (561, 167);
place = (561, 167);
type = Stem;
},
{
place = (15, 212);
place = (15, 212);
type = Stem;
},
{
place = (529, 212);
place = (529, 212);
type = Stem;
}
);
layerId = m01;
shapes = (
{
closed = 1;
nodes = (
(75,-48,l),
(160,48,l),
(218,7,o),
(291,-17,o),
(377,-17,cs),
(599,-17,o),
(741,141,o),
(741,355,cs),
(741,453,o),
(711,540,o),
(657,605,c),
(743,702,l),
(681,758,l),
(595,662,l),
(537,704,o),
(463,728,o),
(377,728,cs),
(155,728,o),
(15,569,o),
(15,355,cs),
(15,256,o),
(45,169,o),
(99,104,c),
(13,8,l)
);
},
{
closed = 1;
nodes = (
(227,472,o),
(278,561,o),
(378,561,cs),
(417,561,o),
(448,547,o),
(472,524,c),
(239,262,l),
(231,290,o),
(227,321,o),
(227,355,cs)
);
},
{
closed = 1;
nodes = (
(339,150,o),
(308,163,o),
(284,186,c),
(516,447,l),
(525,420,o),
(529,388,o),
(529,355,cs),
(529,238,o),
(478,150,o),
(378,150,cs)
);
}
);
width = 756;
}
);
note = Oslash;
unicode = 216;
},
{
glyphname = infinity;
layers = (
{
hints = (
{
horizontal = 1;
place = (113, 136);
place = (113, 136);
type = Stem;
},
{
horizontal = 1;
place = (359, 137);
place = (359, 137);
type = Stem;
},
{
place = (17, 142);
place = (17, 142);
type = Stem;
},
{
place = (568, 140);
place = (568, 140);
type = Stem;
}
);
layerId = m01;
shapes = (
{
closed = 1;
nodes = (
(271,113,o),
(319,155,o),
(365,214,c),
(411,155,o),
(456,113,o),
(538,113,cs),
(636,113,o),
(708,185,o),
(708,305,cs),
(708,424,o),
(636,496,o),
(538,496,cs),
(456,496,o),
(411,454,o),
(365,395,c),
(319,454,o),
(271,496,o),
(186,496,cs),
(80,496,o),
(17,412,o),
(17,305,cs),
(17,197,o),
(79,113,o),
(186,113,cs)
);
},
{
closed = 1;
nodes = (
(232,359,o),
(253,333,o),
(270,304,c),
(253,275,o),
(232,249,o),
(203,249,cs),
(173,249,o),
(159,274,o),
(159,305,cs),
(159,335,o),
(173,359,o),
(203,359,cs)
);
},
{
closed = 1;
nodes = (
(495,249,o),
(475,275,o),
(458,304,c),
(475,333,o),
(495,359,o),
(523,359,cs),
(553,359,o),
(568,335,o),
(568,305,cs),
(568,274,o),
(553,249,o),
(523,249,cs)
);
}
);
width = 725;
}
);
note = infinity;
unicode = 8734;
},
{
glyphname = plusminus;
layers = (
{
hints = (
{
horizontal = 1;
place = (0, 148);
place = (0, 148);
type = Stem;
},
{
horizontal = 1;
place = (300, 159);
place = (300, 159);
type = Stem;
},
{
place = (198, 167);
place = (198, 167);
type = Stem;
}
);
layerId = m01;
shapes = (
{
closed = 1;
nodes = (
(45,300,l),
(198,300,l),
(198,181,l),
(365,181,l),
(365,300,l),
(518,300,l),
(518,459,l),
(365,459,l),
(365,576,l),
(198,576,l),
(198,459,l),
(45,459,l)
);
},
{
closed = 1;
nodes = (
(45,0,l),
(518,0,l),
(518,148,l),
(45,148,l)
);
}
);
width = 563;
}
);
note = plusminus;
unicode = 177;
},
{
glyphname = lessequal;
layers = (
{
hints = (
{
horizontal = 1;
place = (0, 128);
place = (0, 128);
type = Stem;
},
{
place = (41, 413);
place = (41, 413);
type = Stem;
}
);
layerId = m01;
shapes = (
{
closed = 1;
nodes = (
(41,0,l),
(454,0,l),
(454,128,l),
(41,128,l)
);
},
{
closed = 1;
nodes = (
(454,136,l),
(454,293,l),
(306,330,ls),
(265,340,o),
(211,351,o),
(211,351,c),
(211,353,l),
(211,353,o),
(266,367,o),
(306,378,cs),
(454,419,l),
(454,571,l),
(41,444,l),
(41,263,l)
);
}
);
width = 503;
}
);
note = lessequal;
unicode = 8804;
},
{
glyphname = greaterequal;
layers = (
{
hints = (
{
horizontal = 1;
place = (0, 128);
place = (0, 128);
type = Stem;
},
{
place = (49, 413);
place = (49, 413);
type = Stem;
}
);
layerId = m01;
shapes = (
{
closed = 1;
nodes = (
(462,128,l),
(49,128,l),
(49,0,l),
(462,0,l)
);
},
{
closed = 1;
nodes = (
(462,263,l),
(462,444,l),
(49,571,l),
(49,419,l),
(197,378,ls),
(237,367,o),
(292,353,o),
(292,353,c),
(292,351,l),
(292,351,o),
(238,340,o),
(197,330,cs),
(49,293,l),
(49,136,l)
);
}
);
width = 503;
}
);
note = greaterequal;
unicode = 8805;
},
{
glyphname = yen;
layers = (
{
hints = (
{
horizontal = 1;
place = (0, 184);
place = (0, 184);
type = Stem;
},
{
horizontal = 1;
place = (235, 70);
place = (235, 70);
type = Stem;
},
{
horizontal = 1;
place = (686, -20);
target = down;
type = TopGhost;
},
{
place = (237, 193);
place = (237, 193);
type = Stem;
},
{
horizontal = 1;
place = (114, 70);
place = (114, 70);
type = Stem;
}
);
layerId = m01;
shapes = (
{
closed = 1;
nodes = (
(74,235,l),
(237,235,l),
(237,184,l),
(74,184,l),
(74,114,l),
(237,114,l),
(237,0,l),
(430,0,l),
(430,114,l),
(593,114,l),
(593,184,l),
(430,184,l),
(430,235,l),
(593,235,l),
(593,305,l),
(455,305,l),
(670,686,l),
(457,686,l),
(384,538,ls),
(359,487,o),
(337,430,o),
(337,430,c),
(335,430,l),
(335,430,o),
(314,487,o),
(289,538,cs),
(216,686,l),
(-2,686,l),
(212,305,l),
(74,305,l)
);
}
);
width = 674;
}
);
note = yen;
unicode = 165;
},
{
glyphname = mu;
layers = (
{
hints = (
{
horizontal = 1;
place = (-169, 21);
target = up;
type = BottomGhost;
},
{
horizontal = 1;
place = (-11, 21);
target = up;
type = BottomGhost;
},
{
horizontal = 1;
place = (510, -20);
target = down;
type = TopGhost;
},
{
place = (34, 189);
place = (34, 189);
type = Stem;
},
{
place = (369, 189);
place = (369, 189);
type = Stem;
},
{
horizontal = 1;
place = (0, 142);
place = (0, 142);
type = Stem;
}
);
layerId = m01;
shapes = (
{
closed = 1;
nodes = (
(34,-169,l),
(218,-169,l),
(218,1,l),
(220,1,l),
(229,-5,o),
(243,-11,o),
(261,-11,cs),
(308,-11,o),
(347,13,o),
(375,66,c),
(378,66,l),
(378,0,l),
(558,0,l),
(558,510,l),
(369,510,l),
(369,232,ls),
(369,177,o),
(340,142,o),
(291,142,cs),
(246,142,o),
(223,170,o),
(223,223,cs),
(223,510,l),
(34,510,l)
);
}
);
width = 592;
}
);
note = mu;
unicode = 181;
},
{
glyphname = partialdiff;
layers = (
{
hints = (
{
horizontal = 1;
place = (-16, 126);
place = (-16, 126);
type = Stem;
},
{
horizontal = 1;
place = (356, 123);
place = (356, 123);
type = Stem;
},
{
horizontal = 1;
place = (722, -20);
target = down;
type = TopGhost;
},
{
place = (11, 190);
place = (11, 190);
type = Stem;
},
{
place = (370, 202);
place = (370, 202);
type = Stem;
}
);
layerId = m01;
shapes = (
{
closed = 1;
nodes = (
(349,470,o),
(315,479,o),
(269,479,cs),
(114,479,o),
(11,369,o),
(11,214,cs),
(11,83,o),
(102,-16,o),
(270,-16,cs),
(473,-16,o),
(572,108,o),
(572,323,cs),
(572,581,o),
(441,709,o),
(159,722,c),
(159,564,l),
(286,550,o),
(353,510,o),
(374,448,c)
);
},
{
closed = 1;
nodes = (
(226,110,o),
(201,149,o),
(201,216,cs),
(201,298,o),
(238,356,o),
(300,356,cs),
(346,356,o),
(370,321,o),
(370,259,cs),
(370,187,o),
(341,110,o),
(272,110,cs)
);
}
);
width = 588;
}
);
note = partialdiff;
unicode = 8706;
},
{
glyphname = summation;
layers = (
{
hints = (
{
horizontal = 1;
place = (-100, 167);
place = (-100, 167);
type = Stem;
},
{
horizontal = 1;
place = (557, 158);
place = (557, 158);
type = Stem;
},
{
place = (29, 567);
place = (29, 567);
type = Stem;
}
);
layerId = m01;
shapes = (
{
closed = 1;
nodes = (
(596,-100,l),
(596,67,l),
(258,67,l),
(258,69,l),
(450,279,l),
(450,359,l),
(265,555,l),
(265,557,l),
(586,557,l),
(586,715,l),
(29,715,l),
(29,560,l),
(251,317,l),
(251,315,l),
(29,65,l),
(29,-100,l)
);
}
);
width = 614;
}
);
note = summation;
unicode = 8721;
},
{
glyphname = product;
layers = (
{
hints = (
{
horizontal = 1;
place = (547, 168);
place = (547, 168);
type = Stem;
},
{
place = (48, 203);
place = (48, 203);
type = Stem;
},
{
place = (486, 203);
place = (486, 203);
type = Stem;
}
);
layerId = m01;
shapes = (
{
closed = 1;
nodes = (
(48,715,l),
(48,-100,l),
(251,-100,l),
(251,547,l),
(486,547,l),
(486,-100,l),
(689,-100,l),
(689,715,l)
);
}
);
width = 737;
}
);
note = product;
unicode = 8719;
},
{
glyphname = pi;
layers = (
{
hints = (
{
horizontal = 1;
place = (0, 21);
target = up;
type = BottomGhost;
},
{
horizontal = 1;
place = (396, 114);
place = (396, 114);
type = Stem;
},
{
place = (79, 185);
place = (79, 185);
type = Stem;
},
{
place = (377, 185);
place = (377, 185);
type = Stem;
},
{
horizontal = 1;
place = (-8, 138);
place = (-8, 138);
type = Stem;
}
);
layerId = m01;
shapes = (
{
closed = 1;
nodes = (
(264,396,l),
(377,396,l),
(377,140,ls),
(377,30,o),
(438,-8,o),
(538,-8,cs),
(577,-8,o),
(596,-4,o),
(618,2,c),
(618,130,l),
(576,126,o),
(562,130,o),
(562,165,cs),
(562,396,l),
(628,396,l),
(628,510,l),
(14,510,l),
(14,396,l),
(79,396,l),
(79,0,l),
(264,0,l)
);
}
);
width = 654;
}
);
note = pi;
unicode = 960;
},
{
glyphname = integral;
layers = (
{
hints = (
{
horizontal = 1;
place = (-175, 149);
place = (-175, 149);
type = Stem;
},
{
horizontal = 1;
place = (592, 149);
place = (592, 149);
type = Stem;
},
{
place = (102, 189);
place = (102, 189);
type = Stem;
}
);
layerId = m01;
shapes = (
{
closed = 1;
nodes = (
(102,23,ls),
(102,-29,o),
(69,-30,o),
(5,-26,c),
(5,-165,l),
(36,-172,o),
(78,-175,o),
(107,-175,cs),
(172,-175,o),
(217,-161,o),
(248,-129,cs),
(274,-102,o),
(291,-63,o),
(291,13,cs),
(291,543,ls),
(291,595,o),
(324,596,o),
(388,592,c),
(388,731,l),
(357,738,o),
(315,741,o),
(288,741,cs),
(221,741,o),
(176,727,o),
(145,695,cs),
(119,668,o),
(102,629,o),
(102,553,cs)
);
}
);
width = 393;
}
);
note = integral;
unicode = 8747;
},
{
glyphname = ordfeminine;
layers = (
{
hints = (
{
horizontal = 1;
place = (236, 8);
place = (236, 8);
type = Stem;
},
{
horizontal = 1;
place = (537, 162);
place = (537, 162);
type = Stem;
},
{
place = (314, 164);
place = (314, 164);
type = Stem;
},
{
horizontal = 1;
place = (225, 98);
place = (225, 98);
type = Stem;
},
{
horizontal = 1;
place = (591, 108);
place = (591, 108);
type = Stem;
},
{
place = (20, 159);
place = (20, 159);
type = Stem;
}
);
layerId = m01;
shapes = (
{
closed = 1;
nodes = (
(494,236,l),
(494,244,l),
(480,253,o),
(478,273,o),
(478,311,cs),
(478,534,ls),
(478,594,o),
(454,640,o),
(407,669,cs),
(373,690,o),
(327,699,o),
(257,699,cs),
(114,699,o),
(42,626,o),
(38,537,c),
(199,537,l),
(203,570,o),
(220,591,o),
(260,591,cs),
(300,591,o),
(310,572,o),
(310,548,cs),
(310,519,o),
(286,511,o),
(185,497,cs),
(95,485,o),
(20,460,o),
(20,359,cs),
(20,272,o),
(86,225,o),
(173,225,cs),
(235,225,o),
(282,244,o),
(312,285,c),
(314,285,l),
(317,261,o),
(323,246,o),
(329,236,c)
);
},
{
closed = 1;
nodes = (
(204,323,o),
(179,336,o),
(179,366,cs),
(179,393,o),
(190,406,o),
(245,417,cs),
(274,423,o),
(299,431,o),
(314,439,c),
(314,399,ls),
(314,345,o),
(274,323,o),
(233,323,cs)
);
}
);
width = 522;
}
);
note = ordfeminine;
unicode = 170;
},
{
glyphname = ordmasculine;
layers = (
{
hints = (
{
horizontal = 1;
place = (223, 111);
place = (223, 111);
type = Stem;
},
{
horizontal = 1;
place = (587, 112);
place = (587, 112);
type = Stem;
},
{
place = (11, 172);
place = (11, 172);
type = Stem;
},
{
place = (335, 171);
place = (335, 171);
type = Stem;
}
);
layerId = m01;
shapes = (
{
closed = 1;
nodes = (
(410,223,o),
(506,324,o),
(506,461,cs),
(506,597,o),
(410,699,o),
(260,699,cs),
(109,699,o),
(11,597,o),
(11,461,cs),
(11,324,o),
(109,223,o),
(260,223,cs)
);
},
{
closed = 1;
nodes = (
(208,334,o),
(183,385,o),
(183,461,cs),
(183,536,o),
(208,587,o),
(258,587,cs),
(308,587,o),
(335,536,o),
(335,461,cs),
(335,385,o),
(308,334,o),
(258,334,cs)
);
}
);
width = 518;
}
);
note = ordmasculine;
unicode = 186;
},
{
glyphname = Omega;
layers = (
{
hints = (
{
horizontal = 1;
place = (0, 155);
place = (0, 155);
type = Stem;
},
{
horizontal = 1;
place = (561, 167);
place = (561, 167);
type = Stem;
},
{
place = (18, 212);
place = (18, 212);
type = Stem;
},
{
place = (514, 212);
place = (514, 212);
type = Stem;
},
{
place = (401, 316);
place = (401, 316);
type = Stem;
},
{
place = (27, 316);
place = (27, 316);
type = Stem;
}
);
layerId = m01;
shapes = (
{
closed = 1;
nodes = (
(466,561,o),
(514,490,o),
(514,363,cs),
(514,238,o),
(481,162,o),
(401,149,c),
(401,0,l),
(717,0,l),
(717,155,l),
(629,155,l),
(629,158,l),
(695,206,o),
(726,282,o),
(726,386,cs),
(726,583,o),
(582,728,o),
(372,728,cs),
(162,728,o),
(18,583,o),
(18,386,cs),
(18,282,o),
(49,206,o),
(115,158,c),
(115,155,l),
(27,155,l),
(27,0,l),
(343,0,l),
(343,149,l),
(263,162,o),
(230,238,o),
(230,363,cs),
(230,490,o),
(278,561,o),
(372,561,cs)
);
}
);
width = 744;
}
);
note = Omega;
unicode = 8486;
},
{
glyphname = ae;
kernLeft = a;
kernRight = e;
layers = (
{
hints = (
{
horizontal = 1;
place = (-16, 115);
place = (-16, 115);
type = Stem;
},
{
horizontal = 1;
place = (209, 100);
place = (209, 100);
type = Stem;
},
{
horizontal = 1;
place = (403, 123);
place = (403, 123);
type = Stem;
},
{
place = (11, 178);
place = (11, 178);
type = Stem;
},
{
horizontal = 1;
place = (-14, 128);
place = (-14, 128);
type = Stem;
},
{
horizontal = 1;
place = (-14, 166);
place = (-14, 166);
type = Stem;
},
{
horizontal = 1;
place = (400, 127);
place = (400, 127);
type = Stem;
},
{
horizontal = 1;
place = (342, 184);
place = (342, 184);
type = Stem;
}
);
layerId = m01;
shapes = (
{
closed = 1;
nodes = (
(316,-16,o),
(375,11,o),
(421,61,c),
(465,14,o),
(530,-14,o),
(613,-14,cs),
(678,-14,o),
(729,-1,o),
(776,29,cs),
(826,61,o),
(862,106,o),
(873,152,c),
(690,152,l),
(676,127,o),
(652,114,o),
(619,114,cs),
(562,114,o),
(530,150,o),
(519,209,c),
(883,209,l),
(885,310,o),
(856,401,o),
(794,458,cs),
(747,501,o),
(686,527,o),
(606,527,cs),
(541,527,o),
(488,508,o),
(447,476,c),
(430,491,l),
(395,516,o),
(359,526,o),
(280,526,cs),
(117,526,o),
(36,443,o),
(32,342,c),
(211,342,l),
(216,379,o),
(238,403,o),
(283,403,cs),
(328,403,o),
(341,382,o),
(341,354,cs),
(341,322,o),
(314,312,o),
(199,297,cs),
(97,284,o),
(11,254,o),
(11,140,cs),
(11,41,o),
(91,-16,o),
(213,-16,cs)
);
},
{
closed = 1;
nodes = (
(220,99,o),
(189,114,o),
(189,148,cs),
(189,178,o),
(204,193,o),
(267,206,cs),
(300,213,o),
(328,221,o),
(346,230,c),
(346,185,ls),
(346,124,o),
(300,99,o),
(253,99,cs)
);
},
{
closed = 1;
nodes = (
(655,400,o),
(687,366,o),
(695,309,c),
(519,309,l),
(529,365,o),
(558,400,o),
(610,400,cs)
);
}
);
width = 897;
}
);
note = ae;
unicode = 230;
},
{
glyphname = oslash;
kernLeft = c;
kernRight = o;
layers = (
{
hints = (
{
horizontal = 1;
place = (-16, 126);
place = (-16, 126);
type = Stem;
},
{
horizontal = 1;
place = (398, 127);
place = (398, 127);
type = Stem;
},
{
place = (13, 192);
place = (13, 192);
type = Stem;
},
{
place = (379, 192);
place = (379, 192);
type = Stem;
}
);
layerId = m01;
shapes = (
{
closed = 1;
nodes = (
(79,-35,l),
(133,26,l),
(177,-1,o),
(231,-16,o),
(293,-16,cs),
(463,-16,o),
(571,99,o),
(571,254,cs),
(571,327,o),
(547,392,o),
(503,440,c),
(554,497,l),
(505,544,l),
(450,483,l),
(407,509,o),
(354,525,o),
(293,525,cs),
(123,525,o),
(13,409,o),
(13,254,cs),
(13,181,o),
(37,116,o),
(81,69,c),
(30,12,l)
);
},
{
closed = 1;
nodes = (
(267,110,o),
(247,120,o),
(233,138,c),
(376,298,l),
(378,284,o),
(379,269,o),
(379,254,cs),
(379,168,o),
(349,110,o),
(291,110,cs)
);
},
{
closed = 1;
nodes = (
(205,340,o),
(233,398,o),
(291,398,cs),
(315,398,o),
(334,388,o),
(349,369,c),
(207,211,l),
(205,224,o),
(205,239,o),
(205,254,cs)
);
}
);
width = 584;
}
);
note = oslash;
unicode = 248;
},
{
glyphname = questiondown;
kernRight = questiondown;
layers = (
{
hints = (
{
horizontal = 1;
place = (-140, 155);
place = (-140, 155);
type = Stem;
},
{
horizontal = 1;
place = (397, 191);
place = (397, 191);
type = Stem;
},
{
place = (18, 207);
place = (18, 207);
type = Stem;
},
{
place = (366, 192);
place = (366, 192);
type = Stem;
},
{
place = (204, 195);
place = (204, 195);
type = Stem;
},
{
place = (213, 167);
place = (213, 167);
type = Stem;
}
);
layerId = m01;
shapes = (
{
closed = 1;
nodes = (
(444,-140,o),
(556,-53,o),
(558,97,c),
(366,97,l),
(366,46,o),
(334,15,o),
(289,15,cs),
(254,15,o),
(225,34,o),
(225,67,cs),
(225,129,o),
(300,135,o),
(346,185,cs),
(380,222,o),
(380,243,o),
(380,330,c),
(213,330,l),
(213,301,o),
(211,285,o),
(198,267,cs),
(184,248,o),
(157,237,o),
(112,212,cs),
(66,186,o),
(18,148,o),
(18,60,cs),
(18,-64,o),
(129,-140,o),
(274,-140,cs)
);
},
{
closed = 1;
nodes = (
(204,397,l),
(399,397,l),
(399,588,l),
(204,588,l)
);
}
);
width = 568;
}
);
note = questiondown;
unicode = 191;
},
{
glyphname = exclamdown;
kernRight = exclamdown;
layers = (
{
hints = (
{
horizontal = 1;
place = (397, 191);
place = (397, 191);
type = Stem;
},
{
place = (39, 195);
place = (39, 195);
type = Stem;
}
);
layerId = m01;
shapes = (
{
closed = 1;
nodes = (
(39,-127,l),
(234,-127,l),
(234,54,l),
(187,330,l),
(86,330,l),
(39,54,l)
);
},
{
closed = 1;
nodes = (
(39,397,l),
(234,397,l),
(234,588,l),
(39,588,l)
);
}
);
width = 273;
}
);
note = exclamdown;
unicode = 161;
},
{
glyphname = logicalnot;
layers = (
{
hints = (
{
horizontal = 1;
place = (279, 163);
place = (279, 163);
type = Stem;
},
{
place = (305, 175);
place = (305, 175);
type = Stem;
}
);
layerId = m01;
shapes = (
{
closed = 1;
nodes = (
(45,279,l),
(305,279,l),
(305,123,l),
(480,123,l),
(480,442,l),
(45,442,l)
);
}
);
width = 535;
}
);
note = logicalnot;
unicode = 172;
},
{
glyphname = radical;
layers = (
{
hints = (
{
horizontal = 1;
place = (185, 158);
place = (185, 158);
type = Stem;
},
{
horizontal = 1;
place = (715, -20);
target = down;
type = TopGhost;
},
{
place = (11, 663);
place = (11, 663);
type = Stem;
}
);
layerId = m01;
shapes = (
{
closed = 1;
nodes = (
(11,185,l),
(76,185,l),
(205,-100,l),
(400,-100,l),
(674,715,l),
(480,715,l),
(325,235,ls),
(306,177,o),
(294,123,o),
(294,123,c),
(292,123,l),
(292,123,o),
(277,176,o),
(254,234,cs),
(210,343,l),
(11,343,l)
);
}
);
width = 682;
}
);
note = radical;
unicode = 8730;
},
{
glyphname = florin;
layers = (
{
hints = (
{
horizontal = 1;
place = (-158, 125);
place = (-158, 125);
type = Stem;
},
{
horizontal = 1;
place = (306, 114);
place = (306, 114);
type = Stem;
},
{
horizontal = 1;
place = (562, 135);
place = (562, 135);
type = Stem;
},
{
place = (28, 382);
place = (28, 382);
type = Stem;
},
{
horizontal = 1;
place = (691, -20);
target = down;
type = TopGhost;
},
{
place = (-19, 448);
place = (-19, 448);
type = Stem;
}
);
layerId = m01;
shapes = (
{
closed = 1;
nodes = (
(28,306,l),
(103,306,l),
(61,19,ls),
(53,-35,o),
(30,-35,o),
(-19,-33,c),
(-19,-151,l),
(54,-160,o),
(142,-169,o),
(195,-127,cs),
(232,-98,o),
(245,-58,o),
(253,-3,cs),
(298,306,l),
(410,306,l),
(410,420,l),
(315,420,l),
(329,514,ls),
(337,568,o),
(370,565,o),
(429,562,c),
(429,691,l),
(348,701,o),
(256,704,o),
(200,660,cs),
(163,631,o),
(145,591,o),
(137,536,cs),
(120,420,l),
(28,420,l)
);
}
);
width = 451;
}
);
note = florin;
unicode = 402;
},
{
glyphname = approxequal;
layers = (
{
hints = (
{
horizontal = 1;
place = (328, 195);
place = (328, 195);
type = Stem;
},
{
place = (15, 118);
place = (15, 118);
type = Stem;
},
{
horizontal = 1;
place = (367, 156);
place = (367, 156);
type = Stem;
},
{
horizontal = 1;
place = (335, 154);
place = (335, 154);
type = Stem;
},
{
horizontal = 1;
place = (105, 195);
place = (105, 195);
type = Stem;
},
{
horizontal = 1;
place = (112, 188);
place = (112, 188);
type = Stem;
}
);
layerId = m01;
shapes = (
{
closed = 1;
nodes = (
(133,328,l),
(137,355,o),
(150,367,o),
(172,367,cs),
(220,367,o),
(304,335,o),
(377,335,cs),
(474,335,o),
(514,397,o),
(514,523,c),
(395,523,l),
(393,499,o),
(385,489,o),
(359,489,cs),
(315,489,o),
(232,523,o),
(159,523,cs),
(74,523,o),
(15,471,o),
(15,328,c)
);
},
{
closed = 1;
nodes = (
(133,105,l),
(137,132,o),
(150,144,o),
(172,144,cs),
(220,144,o),
(304,112,o),
(377,112,cs),
(474,112,o),
(514,174,o),
(514,300,c),
(395,300,l),
(393,276,o),
(385,266,o),
(359,266,cs),
(315,266,o),
(232,300,o),
(159,300,cs),
(74,300,o),
(15,248,o),
(15,105,c)
);
}
);
width = 529;
}
);
note = approxequal;
unicode = 8776;
},
{
glyphname = Delta;
layers = (
{
hints = (
{
horizontal = 1;
place = (0, 153);
place = (0, 153);
type = Stem;
},
{
horizontal = 1;
place = (715, -20);
target = down;
type = TopGhost;
},
{
place = (22, 652);
place = (22, 652);
type = Stem;
}
);
layerId = m01;
shapes = (
{
closed = 1;
nodes = (
(674,0,l),
(674,122,l),
(454,715,l),
(241,715,l),
(22,122,l),
(22,0,l)
);
},
{
closed = 1;
nodes = (
(315,412,ls),
(327,447,o),
(342,504,o),
(342,504,c),
(344,504,l),
(344,504,o),
(360,447,o),
(371,412,cs),
(455,153,l),
(229,153,l)
);
}
);
width = 696;
}
);
note = Delta;
unicode = 8710;
},
{
glyphname = guillemotleft;
kernLeft = guillemotleft;
kernRight = guillemotleft;
layers = (
{
hints = (
{
horizontal = 1;
place = (24, 441);
place = (24, 441);
type = Stem;
},
{
place = (34, 163);
place = (34, 163);
type = Stem;
},
{
place = (231, 159);
place = (231, 159);
type = Stem;
}
);
layerId = m01;
shapes = (
{
closed = 1;
nodes = (
(197,24,l),
(197,178,l),
(115,242,l),
(115,244,l),
(197,308,l),
(197,465,l),
(34,336,l),
(34,156,l)
);
},
{
closed = 1;
nodes = (
(390,24,l),
(390,178,l),
(312,242,l),
(312,244,l),
(390,308,l),
(390,465,l),
(231,336,l),
(231,156,l)
);
}
);
width = 432;
}
);
note = guillemotleft;
unicode = 171;
},
{
glyphname = guillemotright;
kernLeft = guillemotright;
kernRight = guillemotright;
layers = (
{
hints = (
{
horizontal = 1;
place = (24, 441);
place = (24, 441);
type = Stem;
},
{
place = (42, 159);
place = (42, 159);
type = Stem;
},
{
place = (235, 163);
place = (235, 163);
type = Stem;
}
);
layerId = m01;
shapes = (
{
closed = 1;
nodes = (
(235,24,l),
(398,153,l),
(398,333,l),
(235,465,l),
(235,311,l),
(317,247,l),
(317,245,l),
(235,181,l)
);
},
{
closed = 1;
nodes = (
(42,24,l),
(201,153,l),
(201,333,l),
(42,465,l),
(42,311,l),
(120,247,l),
(120,245,l),
(42,181,l)
);
}
);
width = 432;
}
);
note = guillemotright;
unicode = 187;
},
{
glyphname = ellipsis;
kernLeft = comma;
kernRight = comma;
layers = (
{
hints = (
{
horizontal = 1;
place = (0, 191);
place = (0, 191);
type = Stem;
},
{
place = (28, 195);
place = (28, 195);
type = Stem;
},
{
place = (298, 195);
place = (298, 195);
type = Stem;
},
{
place = (567, 195);
place = (567, 195);
type = Stem;
}
);
layerId = m01;
shapes = (
{
closed = 1;
nodes = (
(567,0,l),
(762,0,l),
(762,191,l),
(567,191,l)
);
},
{
closed = 1;
nodes = (
(298,0,l),
(493,0,l),
(493,191,l),
(298,191,l)
);
},
{
closed = 1;
nodes = (
(28,0,l),
(223,0,l),
(223,191,l),
(28,191,l)
);
}
);
width = 790;
}
);
note = ellipsis;
unicode = 8230;
},
{
glyphname = Agrave;
kernLeft = A;
kernRight = A;
layers = (
{
hints = (
{
horizontal = 1;
place = (0, 21);
target = up;
type = BottomGhost;
},
{
horizontal = 1;
place = (105, 144);
place = (105, 144);
type = Stem;
},
{
horizontal = 1;
place = (715, -20);
target = down;
type = TopGhost;
},
{
horizontal = 1;
place = (746, 135);
place = (746, 135);
type = Stem;
},
{
place = (-4, 742);
place = (-4, 742);
type = Stem;
}
);
layerId = m01;
shapes = (
{
closed = 1;
nodes = (
(-4,0,l),
(204,0,l),
(239,105,l),
(481,105,l),
(516,0,l),
(738,0,l),
(473,715,l),
(260,715,l)
);
},
{
closed = 1;
nodes = (
(333,389,ls),
(345,424,o),
(360,481,o),
(360,481,c),
(362,481,l),
(362,481,o),
(378,424,o),
(389,389,cs),
(434,249,l),
(286,249,l)
);
},
{
closed = 1;
nodes = (
(311,746,l),
(453,746,l),
(410,881,l),
(195,881,l)
);
}
);
width = 734;
}
);
note = Agrave;
unicode = 192;
},
{
glyphname = Atilde;
kernLeft = A;
kernRight = A;
layers = (
{
hints = (
{
horizontal = 1;
place = (0, 21);
target = up;
type = BottomGhost;
},
{
horizontal = 1;
place = (105, 144);
place = (105, 144);
type = Stem;
},
{
horizontal = 1;
place = (715, -20);
target = down;
type = TopGhost;
},
{
horizontal = 1;
place = (749, 147);
place = (749, 147);
type = Stem;
},
{
place = (185, 96);
place = (185, 96);
type = Stem;
},
{
place = (454, 96);
place = (454, 96);
type = Stem;
}
);
layerId = m01;
shapes = (
{
closed = 1;
nodes = (
(-4,0,l),
(204,0,l),
(239,105,l),
(481,105,l),
(516,0,l),
(738,0,l),
(473,715,l),
(260,715,l)
);
},
{
closed = 1;
nodes = (
(333,389,ls),
(345,424,o),
(360,481,o),
(360,481,c),
(362,481,l),
(362,481,o),
(378,424,o),
(389,389,cs),
(434,249,l),
(286,249,l)
);
},
{
closed = 1;
nodes = (
(281,744,l),
(284,771,o),
(296,786,o),
(315,786,cs),
(333,786,o),
(342,779,o),
(372,765,cs),
(392,756,o),
(414,749,o),
(441,749,cs),
(514,749,o),
(550,808,o),
(550,896,c),
(454,896,l),
(452,873,o),
(445,858,o),
(422,858,cs),
(406,858,o),
(397,864,o),
(372,877,cs),
(352,887,o),
(328,896,o),
(301,896,cs),
(237,896,o),
(185,847,o),
(185,744,c)
);
}
);
width = 734;
}
);
note = Atilde;
unicode = 195;
},
{
glyphname = Otilde;
kernLeft = C;
kernRight = O;
layers = (
{
hints = (
{
horizontal = 1;
place = (-17, 167);
place = (-17, 167);
type = Stem;
},
{
horizontal = 1;
place = (561, 167);
place = (561, 167);
type = Stem;
},
{
place = (15, 212);
place = (15, 212);
type = Stem;
},
{
place = (529, 212);
place = (529, 212);
type = Stem;
},
{
horizontal = 1;
place = (749, 147);
place = (749, 147);
type = Stem;
},
{
place = (196, 96);
place = (196, 96);
type = Stem;
},
{
place = (465, 96);
place = (465, 96);
type = Stem;
}
);
layerId = m01;
shapes = (
{
closed = 1;
nodes = (
(599,-17,o),
(741,141,o),
(741,355,cs),
(741,569,o),
(599,728,o),
(377,728,cs),
(155,728,o),
(15,569,o),
(15,355,cs),
(15,141,o),
(155,-17,o),
(377,-17,cs)
);
},
{
closed = 1;
nodes = (
(278,150,o),
(227,238,o),
(227,355,cs),
(227,472,o),
(278,561,o),
(378,561,cs),
(478,561,o),
(529,472,o),
(529,355,cs),
(529,238,o),
(478,150,o),
(378,150,cs)
);
},
{
closed = 1;
nodes = (
(292,744,l),
(295,771,o),
(307,786,o),
(326,786,cs),
(344,786,o),
(353,779,o),
(383,765,cs),
(403,756,o),
(425,749,o),
(452,749,cs),
(525,749,o),
(561,808,o),
(561,896,c),
(465,896,l),
(463,873,o),
(456,858,o),
(433,858,cs),
(417,858,o),
(408,864,o),
(383,877,cs),
(363,887,o),
(339,896,o),
(312,896,cs),
(248,896,o),
(196,847,o),
(196,744,c)
);
}
);
width = 756;
}
);
note = Otilde;
unicode = 213;
},
{
glyphname = OE;
kernLeft = C;
kernRight = E;
layers = (
{
hints = (
{
horizontal = 1;
place = (-17, 167);
place = (-17, 167);
type = Stem;
},
{
horizontal = 1;
place = (291, 157);
place = (291, 157);
type = Stem;
},
{
horizontal = 1;
place = (545, 170);
place = (545, 170);
type = Stem;
},
{
place = (15, 212);
place = (15, 212);
type = Stem;
},
{
place = (521, 215);
place = (521, 215);
type = Stem;
},
{
horizontal = 1;
place = (0, 179);
place = (0, 179);
type = Stem;
},
{
horizontal = 1;
place = (561, 167);
place = (561, 167);
type = Stem;
}
);
layerId = m01;
shapes = (
{
closed = 1;
nodes = (
(448,-17,o),
(505,7,o),
(547,48,c),
(547,0,l),
(1074,0,l),
(1074,179,l),
(736,179,l),
(736,291,l),
(1007,291,l),
(1007,448,l),
(736,448,l),
(736,545,l),
(1064,545,l),
(1064,715,l),
(547,715,l),
(547,665,l),
(505,705,o),
(448,728,o),
(373,728,cs),
(151,728,o),
(15,569,o),
(15,355,cs),
(15,141,o),
(151,-17,o),
(373,-17,cs)
);
},
{
closed = 1;
nodes = (
(276,150,o),
(227,238,o),
(227,355,cs),
(227,472,o),
(276,561,o),
(374,561,cs),
(472,561,o),
(521,472,o),
(521,355,cs),
(521,238,o),
(472,150,o),
(374,150,cs)
);
}
);
width = 1101;
}
);
note = OE;
unicode = 338;
},
{
glyphname = oe;
kernLeft = c;
kernRight = e;
layers = (
{
hints = (
{
horizontal = 1;
place = (-16, 126);
place = (-16, 126);
type = Stem;
},
{
horizontal = 1;
place = (209, 100);
place = (209, 100);
type = Stem;
},
{
horizontal = 1;
place = (398, 127);
place = (398, 127);
type = Stem;
},
{
place = (13, 192);
place = (13, 192);
type = Stem;
},
{
horizontal = 1;
place = (-14, 128);
place = (-14, 128);
type = Stem;
},
{
horizontal = 1;
place = (-14, 166);
place = (-14, 166);
type = Stem;
},
{
horizontal = 1;
place = (400, 127);
place = (400, 127);
type = Stem;
}
);
layerId = m01;
shapes = (
{
closed = 1;
nodes = (
(370,-16,o),
(429,7,o),
(471,47,c),
(514,8,o),
(573,-14,o),
(648,-14,cs),
(713,-14,o),
(764,-1,o),
(811,29,cs),
(861,61,o),
(897,106,o),
(908,152,c),
(725,152,l),
(711,127,o),
(687,114,o),
(654,114,cs),
(597,114,o),
(565,150,o),
(554,209,c),
(918,209,l),
(920,310,o),
(891,401,o),
(829,458,cs),
(782,501,o),
(721,527,o),
(641,527,cs),
(569,527,o),
(510,503,o),
(468,463,c),
(427,502,o),
(368,525,o),
(293,525,cs),
(123,525,o),
(13,409,o),
(13,254,cs),
(13,99,o),
(123,-16,o),
(293,-16,cs)
);
},
{
closed = 1;
nodes = (
(233,110,o),
(205,168,o),
(205,254,cs),
(205,340,o),
(233,398,o),
(291,398,cs),
(349,398,o),
(379,340,o),
(379,254,cs),
(379,168,o),
(349,110,o),
(291,110,cs)
);
},
{
closed = 1;
nodes = (
(690,400,o),
(722,366,o),
(730,309,c),
(554,309,l),
(564,365,o),
(593,400,o),
(645,400,cs)
);
}
);
width = 932;
}
);
note = oe;
unicode = 339;
},
{
glyphname = endash;
kernLeft = hyphen;
kernRight = hyphen;
layers = (
{
hints = (
{
horizontal = 1;
place = (173, 163);
place = (173, 163);
type = Stem;
},
{
place = (42, 503);
place = (42, 503);
type = Stem;
}
);
layerId = m01;
shapes = (
{
closed = 1;
nodes = (
(42,173,l),
(545,173,l),
(545,336,l),
(42,336,l)
);
}
);
width = 587;
}
);
note = endash;
unicode = 8211;
},
{
glyphname = emdash;
kernLeft = hyphen;
kernRight = hyphen;
layers = (
{
hints = (
{
horizontal = 1;
place = (173, 163);
place = (173, 163);
type = Stem;
},
{
place = (42, 893);
place = (42, 893);
type = Stem;
}
);
layerId = m01;
shapes = (
{
closed = 1;
nodes = (
(42,173,l),
(935,173,l),
(935,336,l),
(42,336,l)
);
}
);
width = 977;
}
);
note = emdash;
unicode = 8212;
},
{
glyphname = quotedblleft;
kernLeft = quotedblleft;
kernRight = quotedblleft;
layers = (
{
hints = (
{
horizontal = 1;
place = (391, 168);
place = (391, 168);
type = Stem;
},
{
horizontal = 1;
place = (718, -20);
target = down;
type = TopGhost;
},
{
place = (36, 162);
place = (36, 162);
type = Stem;
},
{
place = (258, 162);
place = (258, 162);
type = Stem;
},
{
horizontal = 1;
place = (648, 70);
place = (648, 70);
type = Stem;
}
);
layerId = m01;
shapes = (
{
closed = 1;
nodes = (
(258,391,l),
(420,391,l),
(420,559,l),
(350,559,l),
(350,599,o),
(378,635,o),
(424,648,c),
(424,718,l),
(378,715,o),
(329,695,o),
(300,663,cs),
(273,633,o),
(258,594,o),
(258,535,cs)
);
},
{
closed = 1;
nodes = (
(36,391,l),
(198,391,l),
(198,559,l),
(128,559,l),
(128,599,o),
(156,635,o),
(202,648,c),
(202,718,l),
(156,715,o),
(107,695,o),
(78,663,cs),
(51,633,o),
(36,594,o),
(36,535,cs)
);
}
);
width = 456;
}
);
note = quotedblleft;
unicode = 8220;
},
{
glyphname = quotedblright;
kernLeft = quotedblright;
kernRight = quotedblright;
layers = (
{
hints = (
{
horizontal = 1;
place = (547, 168);
place = (547, 168);
type = Stem;
},
{
place = (36, 162);
place = (36, 162);
type = Stem;
},
{
place = (258, 162);
place = (258, 162);
type = Stem;
}
);
layerId = m01;
shapes = (
{
closed = 1;
nodes = (
(254,388,l),
(300,391,o),
(349,411,o),
(378,443,cs),
(405,473,o),
(420,512,o),
(420,571,cs),
(420,715,l),
(258,715,l),
(258,547,l),
(328,547,l),
(328,507,o),
(300,471,o),
(254,458,c)
);
},
{
closed = 1;
nodes = (
(32,388,l),
(78,391,o),
(127,411,o),
(156,443,cs),
(183,473,o),
(198,512,o),
(198,571,cs),
(198,715,l),
(36,715,l),
(36,547,l),
(106,547,l),
(106,507,o),
(78,471,o),
(32,458,c)
);
}
);
width = 456;
}
);
note = quotedblright;
unicode = 8221;
},
{
glyphname = quoteleft;
kernLeft = quotedblleft;
kernRight = quotedblleft;
layers = (
{
hints = (
{
horizontal = 1;
place = (391, 168);
place = (391, 168);
type = Stem;
},
{
horizontal = 1;
place = (718, -20);
target = down;
type = TopGhost;
},
{
place = (36, 162);
place = (36, 162);
type = Stem;
}
);
layerId = m01;
shapes = (
{
closed = 1;
nodes = (
(36,391,l),
(198,391,l),
(198,559,l),
(128,559,l),
(128,599,o),
(156,635,o),
(202,648,c),
(202,718,l),
(156,715,o),
(107,695,o),
(78,663,cs),
(51,633,o),
(36,594,o),
(36,535,cs)
);
}
);
width = 234;
}
);
note = quoteleft;
unicode = 8216;
},
{
glyphname = quoteright;
kernLeft = quotedblright;
kernRight = quotedblright;
layers = (
{
hints = (
{
horizontal = 1;
place = (547, 168);
place = (547, 168);
type = Stem;
},
{
place = (36, 162);
place = (36, 162);
type = Stem;
}
);
layerId = m01;
shapes = (
{
closed = 1;
nodes = (
(32,388,l),
(78,391,o),
(127,411,o),
(156,443,cs),
(183,473,o),
(198,512,o),
(198,571,cs),
(198,715,l),
(36,715,l),
(36,547,l),
(106,547,l),
(106,507,o),
(78,471,o),
(32,458,c)
);
}
);
width = 234;
}
);
note = quoteright;
unicode = 8217;
},
{
glyphname = divide;
kernLeft = minus;
kernRight = minus;
layers = (
{
hints = (
{
place = (44, 165);
place = (44, 165);
type = Stem;
},
{
place = (253, 155);
place = (253, 155);
type = Stem;
},
{
place = (452, 165);
place = (452, 165);
type = Stem;
},
{
place = (184, 195);
place = (184, 195);
type = Stem;
}
);
layerId = m01;
shapes = (
{
closed = 1;
nodes = (
(45,253,l),
(518,253,l),
(518,408,l),
(45,408,l)
);
},
{
closed = 1;
nodes = (
(184,452,l),
(379,452,l),
(379,617,l),
(184,617,l)
);
},
{
closed = 1;
nodes = (
(184,44,l),
(379,44,l),
(379,209,l),
(184,209,l)
);
}
);
width = 563;
}
);
note = divide;
unicode = 247;
},
{
glyphname = lozenge;
layers = (
{
hints = (
{
horizontal = 1;
place = (0, 21);
target = up;
type = BottomGhost;
},
{
horizontal = 1;
place = (715, -20);
target = down;
type = TopGhost;
},
{
place = (14, 604);
place = (14, 604);
type = Stem;
},
{
horizontal = 1;
place = (0, 155);
place = (0, 155);
type = Stem;
},
{
horizontal = 1;
place = (560, 155);
place = (560, 155);
type = Stem;
}
);
layerId = m01;
shapes = (
{
closed = 1;
nodes = (
(416,715,l),
(215,715,l),
(14,358,l),
(216,0,l),
(417,0,l),
(618,357,l)
);
},
{
closed = 1;
nodes = (
(314,560,l),
(316,560,l),
(422,354,l),
(318,155,l),
(316,155,l),
(209,360,l)
);
}
);
width = 632;
}
);
note = lozenge;
unicode = 9674;
},
{
glyphname = ydieresis;
kernLeft = yacute;
kernRight = yacute;
layers = (
{
hints = (
{
horizontal = 1;
place = (-169, 146);
place = (-169, 146);
type = Stem;
},
{
horizontal = 1;
place = (510, -20);
target = down;
type = TopGhost;
},
{
horizontal = 1;
place = (572, 143);
place = (572, 143);
type = Stem;
},
{
place = (83, 178);
place = (83, 178);
type = Stem;
},
{
place = (311, 178);
place = (311, 178);
type = Stem;
}
);
layerId = m01;
shapes = (
{
closed = 1;
nodes = (
(57,-169,l),
(188,-169,ls),
(291,-169,o),
(351,-126,o),
(394,0,cs),
(568,510,l),
(380,510,l),
(318,305,ls),
(302,253,o),
(287,181,o),
(287,181,c),
(285,181,l),
(285,181,o),
(271,253,o),
(255,305,cs),
(192,510,l),
(-7,510,l),
(156,88,ls),
(168,58,o),
(179,31,o),
(179,15,cs),
(179,-12,o),
(162,-23,o),
(120,-23,cs),
(57,-23,l)
);
},
{
closed = 1;
nodes = (
(311,572,l),
(489,572,l),
(489,715,l),
(311,715,l)
);
},
{
closed = 1;
nodes = (
(83,572,l),
(261,572,l),
(261,715,l),
(83,715,l)
);
}
);
width = 561;
}
);
note = ydieresis;
unicode = 255;
},
{
glyphname = Ydieresis;
kernLeft = Yacute;
kernRight = Yacute;
layers = (
{
hints = (
{
horizontal = 1;
place = (0, 21);
target = up;
type = BottomGhost;
},
{
horizontal = 1;
place = (715, -20);
target = down;
type = TopGhost;
},
{
horizontal = 1;
place = (752, 143);
place = (752, 143);
type = Stem;
},
{
place = (243, 209);
place = (243, 209);
type = Stem;
},
{
place = (148, 178);
place = (148, 178);
type = Stem;
},
{
place = (376, 178);
place = (376, 178);
type = Stem;
}
);
layerId = m01;
shapes = (
{
closed = 1;
nodes = (
(243,0,l),
(452,0,l),
(452,251,l),
(698,715,l),
(476,715,l),
(400,556,ls),
(374,502,o),
(351,441,o),
(351,441,c),
(349,441,l),
(349,441,o),
(327,502,o),
(301,556,cs),
(225,715,l),
(-2,715,l),
(243,251,l)
);
},
{
closed = 1;
nodes = (
(376,752,l),
(554,752,l),
(554,895,l),
(376,895,l)
);
},
{
closed = 1;
nodes = (
(148,752,l),
(326,752,l),
(326,895,l),
(148,895,l)
);
}
);
width = 696;
}
);
note = Ydieresis;
unicode = 376;
},
{
glyphname = fraction;
layers = (
{
hints = (
{
horizontal = 1;
place = (0, 21);
target = up;
type = BottomGhost;
},
{
horizontal = 1;
place = (715, -20);
target = down;
type = TopGhost;
},
{
place = (-161, 645);
place = (-161, 645);
type = Stem;
}
);
layerId = m01;
shapes = (
{
closed = 1;
nodes = (
(-161,0,l),
(-47,0,l),
(484,715,l),
(371,715,l)
);
}
);
width = 324;
}
);
note = fraction;
unicode = 8260;
},
{
glyphname = Euro;
layers = (
{
hints = (
{
horizontal = 1;
place = (-16, 154);
place = (-16, 154);
type = Stem;
},
{
horizontal = 1;
place = (242, 70);
place = (242, 70);
type = Stem;
},
{
horizontal = 1;
place = (363, 70);
place = (363, 70);
type = Stem;
},
{
horizontal = 1;
place = (546, 153);
place = (546, 153);
type = Stem;
},
{
place = (57, 204);
place = (57, 204);
type = Stem;
},
{
place = (471, 193);
place = (471, 193);
type = Stem;
},
{
place = (463, 196);
place = (463, 196);
type = Stem;
}
);
layerId = m01;
shapes = (
{
closed = 1;
nodes = (
(12,363,l),
(57,363,l),
(57,341,ls),
(57,331,o),
(57,321,o),
(58,312,c),
(12,312,l),
(12,242,l),
(67,242,l),
(101,88,o),
(214,-16,o),
(375,-16,cs),
(556,-16,o),
(654,91,o),
(664,248,c),
(471,248,l),
(465,191,o),
(438,138,o),
(374,138,cs),
(317,138,o),
(284,175,o),
(269,242,c),
(399,242,l),
(399,312,l),
(261,312,l),
(261,363,l),
(399,363,l),
(399,433,l),
(268,433,l),
(281,502,o),
(312,546,o),
(371,546,cs),
(427,546,o),
(456,502,o),
(463,439,c),
(659,439,l),
(649,589,o),
(555,699,o),
(374,699,cs),
(213,699,o),
(98,590,o),
(66,433,c),
(12,433,l)
);
}
);
width = 672;
}
);
note = Euro;
unicode = 8364;
},
{
glyphname = guilsinglleft;
kernLeft = guillemotleft;
kernRight = guillemotleft;
layers = (
{
hints = (
{
horizontal = 1;
place = (12, 465);
place = (12, 465);
type = Stem;
},
{
place = (34, 176);
place = (34, 176);
type = Stem;
}
);
layerId = m01;
shapes = (
{
closed = 1;
nodes = (
(210,12,l),
(210,179,l),
(128,243,l),
(128,245,l),
(210,309,l),
(210,477,l),
(34,336,l),
(34,154,l)
);
}
);
width = 252;
}
);
note = guilsinglleft;
unicode = 8249;
},
{
glyphname = guilsinglright;
kernLeft = guillemotright;
kernRight = guillemotright;
layers = (
{
hints = (
{
horizontal = 1;
place = (12, 465);
place = (12, 465);
type = Stem;
},
{
place = (42, 176);
place = (42, 176);
type = Stem;
}
);
layerId = m01;
shapes = (
{
closed = 1;
nodes = (
(42,12,l),
(218,153,l),
(218,335,l),
(42,477,l),
(42,310,l),
(124,246,l),
(124,244,l),
(42,180,l)
);
}
);
width = 252;
}
);
note = guilsinglright;
unicode = 8250;
},
{
glyphname = fi;
kernLeft = f;
layers = (
{
hints = (
{
horizontal = 1;
place = (0, 21);
target = up;
type = BottomGhost;
},
{
horizontal = 1;
place = (396, 114);
place = (396, 114);
type = Stem;
},
{
horizontal = 1;
place = (572, 143);
place = (572, 143);
type = Stem;
},
{
place = (70, 189);
place = (70, 189);
type = Stem;
},
{
place = (402, 189);
place = (402, 189);
type = Stem;
},
{
horizontal = 1;
place = (584, 129);
place = (584, 129);
type = Stem;
},
{
horizontal = 1;
place = (584, 125);
place = (584, 125);
type = Stem;
}
);
layerId = m01;
shapes = (
{
closed = 1;
nodes = (
(7,396,l),
(70,396,l),
(70,0,l),
(259,0,l),
(259,396,l),
(359,396,l),
(359,510,l),
(259,510,l),
(259,523,ls),
(259,584,o),
(300,585,o),
(359,584,c),
(359,709,l),
(264,719,o),
(162,713,o),
(114,667,cs),
(85,639,o),
(70,597,o),
(70,538,cs),
(70,510,l),
(7,510,l)
);
},
{
closed = 1;
nodes = (
(402,0,l),
(591,0,l),
(591,510,l),
(402,510,l)
);
},
{
closed = 1;
nodes = (
(402,572,l),
(591,572,l),
(591,715,l),
(402,715,l)
);
}
);
width = 625;
}
);
note = fi;
unicode = 64257;
},
{
glyphname = fl;
kernLeft = f;
layers = (
{
hints = (
{
horizontal = 1;
place = (0, 21);
target = up;
type = BottomGhost;
},
{
horizontal = 1;
place = (396, 114);
place = (396, 114);
type = Stem;
},
{
horizontal = 1;
place = (584, 129);
place = (584, 129);
type = Stem;
},
{
place = (70, 189);
place = (70, 189);
type = Stem;
},
{
place = (402, 194);
place = (402, 194);
type = Stem;
},
{
horizontal = 1;
place = (584, 125);
place = (584, 125);
type = Stem;
},
{
horizontal = 1;
place = (584, 131);
place = (584, 131);
type = Stem;
}
);
layerId = m01;
shapes = (
{
closed = 1;
nodes = (
(7,396,l),
(70,396,l),
(70,0,l),
(259,0,l),
(259,396,l),
(359,396,l),
(359,510,l),
(259,510,l),
(259,523,ls),
(259,584,o),
(300,585,o),
(359,584,c),
(359,709,l),
(264,719,o),
(162,713,o),
(114,667,cs),
(85,639,o),
(70,597,o),
(70,538,cs),
(70,510,l),
(7,510,l)
);
},
{
closed = 1;
nodes = (
(402,0,l),
(596,0,l),
(596,715,l),
(402,715,l)
);
}
);
width = 630;
}
);
note = fl;
unicode = 64258;
},
{
glyphname = daggerdbl;
layers = (
{
hints = (
{
horizontal = 1;
place = (-169, 21);
target = up;
type = BottomGhost;
},
{
horizontal = 1;
place = (36, 161);
place = (36, 161);
type = Stem;
},
{
horizontal = 1;
place = (349, 161);
place = (349, 161);
type = Stem;
},
{
horizontal = 1;
place = (715, -20);
target = down;
type = TopGhost;
},
{
place = (202, 209);
place = (202, 209);
type = Stem;
}
);
layerId = m01;
shapes = (
{
closed = 1;
nodes = (
(34,349,l),
(202,349,l),
(202,197,l),
(34,197,l),
(34,36,l),
(202,36,l),
(202,-169,l),
(411,-169,l),
(411,36,l),
(579,36,l),
(579,197,l),
(411,197,l),
(411,349,l),
(579,349,l),
(579,510,l),
(411,510,l),
(411,715,l),
(202,715,l),
(202,510,l),
(34,510,l)
);
}
);
width = 614;
}
);
note = daggerdbl;
unicode = 8225;
},
{
glyphname = periodcentered;
kernLeft = periodcentered;
kernRight = periodcentered;
layers = (
{
hints = (
{
horizontal = 1;
place = (224, 191);
place = (224, 191);
type = Stem;
},
{
place = (28, 195);
place = (28, 195);
type = Stem;
}
);
layerId = m01;
shapes = (
{
closed = 1;
nodes = (
(28,224,l),
(223,224,l),
(223,415,l),
(28,415,l)
);
}
);
width = 251;
}
);
note = periodcentered;
unicode = 183;
},
{
glyphname = quotesinglbase;
kernRight = quotesinglbase;
layers = (
{
hints = (
{
horizontal = 1;
place = (0, 168);
place = (0, 168);
type = Stem;
},
{
place = (36, 162);
place = (36, 162);
type = Stem;
}
);
layerId = m01;
shapes = (
{
closed = 1;
nodes = (
(32,-159,l),
(78,-156,o),
(127,-136,o),
(156,-104,cs),
(183,-74,o),
(198,-35,o),
(198,24,cs),
(198,168,l),
(36,168,l),
(36,0,l),
(106,0,l),
(106,-40,o),
(78,-76,o),
(32,-89,c)
);
}
);
width = 234;
}
);
note = quotesinglbase;
unicode = 8218;
},
{
glyphname = quotedblbase;
kernRight = quotesinglbase;
layers = (
{
hints = (
{
horizontal = 1;
place = (0, 168);
place = (0, 168);
type = Stem;
},
{
place = (36, 162);
place = (36, 162);
type = Stem;
},
{
place = (258, 162);
place = (258, 162);
type = Stem;
}
);
layerId = m01;
shapes = (
{
closed = 1;
nodes = (
(254,-159,l),
(300,-156,o),
(349,-136,o),
(378,-104,cs),
(405,-74,o),
(420,-35,o),
(420,24,cs),
(420,168,l),
(258,168,l),
(258,0,l),
(328,0,l),
(328,-40,o),
(300,-76,o),
(254,-89,c)
);
},
{
closed = 1;
nodes = (
(32,-159,l),
(78,-156,o),
(127,-136,o),
(156,-104,cs),
(183,-74,o),
(198,-35,o),
(198,24,cs),
(198,168,l),
(36,168,l),
(36,0,l),
(106,0,l),
(106,-40,o),
(78,-76,o),
(32,-89,c)
);
}
);
width = 456;
}
);
note = quotedblbase;
unicode = 8222;
},
{
glyphname = perthousand;
kernLeft = percent;
layers = (
{
hints = (
{
horizontal = 1;
place = (-17, 96);
place = (-17, 96);
type = Stem;
},
{
horizontal = 1;
place = (297, 96);
place = (297, 96);
type = Stem;
},
{
horizontal = 1;
place = (605, 94);
place = (605, 94);
type = Stem;
},
{
place = (20, 140);
place = (20, 140);
type = Stem;
},
{
place = (262, 140);
place = (262, 140);
type = Stem;
},
{
place = (497, 140);
place = (497, 140);
type = Stem;
},
{
place = (739, 140);
place = (739, 140);
type = Stem;
},
{
horizontal = 1;
place = (291, 94);
place = (291, 94);
type = Stem;
},
{
place = (911, 140);
place = (911, 140);
type = Stem;
},
{
place = (1153, 140);
place = (1153, 140);
type = Stem;
},
{
horizontal = 1;
place = (0, 21);
target = up;
type = BottomGhost;
},
{
horizontal = 1;
place = (686, -20);
target = down;
type = TopGhost;
}
);
layerId = m01;
shapes = (
{
closed = 1;
nodes = (
(320,297,o),
(402,376,o),
(402,498,cs),
(402,619,o),
(324,699,o),
(210,699,cs),
(100,699,o),
(20,619,o),
(20,498,cs),
(20,376,o),
(102,297,o),
(210,297,cs)
);
},
{
closed = 1;
nodes = (
(797,-17,o),
(879,62,o),
(879,184,cs),
(879,305,o),
(801,385,o),
(687,385,cs),
(577,385,o),
(497,305,o),
(497,184,cs),
(497,62,o),
(579,-17,o),
(687,-17,cs)
);
},
{
closed = 1;
nodes = (
(1211,-17,o),
(1293,62,o),
(1293,184,cs),
(1293,305,o),
(1215,385,o),
(1101,385,cs),
(991,385,o),
(911,305,o),
(911,184,cs),
(911,62,o),
(993,-17,o),
(1101,-17,cs)
);
},
{
closed = 1;
nodes = (
(204,0,l),
(306,0,l),
(694,686,l),
(592,686,l)
);
},
{
closed = 1;
nodes = (
(650,79,o),
(637,122,o),
(637,184,cs),
(637,245,o),
(650,291,o),
(688,291,cs),
(725,291,o),
(739,245,o),
(739,184,cs),
(739,122,o),
(725,79,o),
(688,79,cs)
);
},
{
closed = 1;
nodes = (
(173,393,o),
(160,436,o),
(160,498,cs),
(160,559,o),
(173,605,o),
(211,605,cs),
(248,605,o),
(262,559,o),
(262,498,cs),
(262,436,o),
(248,393,o),
(211,393,cs)
);
},
{
closed = 1;
nodes = (
(1064,79,o),
(1051,122,o),
(1051,184,cs),
(1051,245,o),
(1064,291,o),
(1102,291,cs),
(1139,291,o),
(1153,245,o),
(1153,184,cs),
(1153,122,o),
(1139,79,o),
(1102,79,cs)
);
}
);
width = 1313;
}
);
note = perthousand;
unicode = 8240;
},
{
glyphname = Acircumflex;
kernLeft = A;
kernRight = A;
layers = (
{
hints = (
{
horizontal = 1;
place = (0, 21);
target = up;
type = BottomGhost;
},
{
horizontal = 1;
place = (105, 144);
place = (105, 144);
type = Stem;
},
{
horizontal = 1;
place = (715, -20);
target = down;
type = TopGhost;
},
{
horizontal = 1;
place = (746, 137);
place = (746, 137);
type = Stem;
},
{
place = (-4, 742);
place = (-4, 742);
type = Stem;
}
);
layerId = m01;
shapes = (
{
closed = 1;
nodes = (
(-4,0,l),
(204,0,l),
(239,105,l),
(481,105,l),
(516,0,l),
(738,0,l),
(473,715,l),
(260,715,l)
);
},
{
closed = 1;
nodes = (
(333,389,ls),
(345,424,o),
(360,481,o),
(360,481,c),
(362,481,l),
(362,481,o),
(378,424,o),
(389,389,cs),
(434,249,l),
(286,249,l)
);
},
{
closed = 1;
nodes = (
(166,746,l),
(327,746,l),
(369,797,l),
(371,797,l),
(413,746,l),
(569,746,l),
(452,883,l),
(285,883,l)
);
}
);
width = 734;
}
);
note = Acircumflex;
unicode = 194;
},
{
glyphname = Ecircumflex;
kernRight = E;
layers = (
{
hints = (
{
horizontal = 1;
place = (0, 179);
place = (0, 179);
type = Stem;
},
{
horizontal = 1;
place = (291, 157);
place = (291, 157);
type = Stem;
},
{
horizontal = 1;
place = (545, 170);
place = (545, 170);
type = Stem;
},
{
horizontal = 1;
place = (746, 137);
place = (746, 137);
type = Stem;
},
{
place = (43, 209);
place = (43, 209);
type = Stem;
}
);
layerId = m01;
shapes = (
{
closed = 1;
nodes = (
(43,0,l),
(610,0,l),
(610,179,l),
(252,179,l),
(252,291,l),
(543,291,l),
(543,448,l),
(252,448,l),
(252,545,l),
(600,545,l),
(600,715,l),
(43,715,l)
);
},
{
closed = 1;
nodes = (
(132,746,l),
(293,746,l),
(335,797,l),
(337,797,l),
(379,746,l),
(535,746,l),
(418,883,l),
(251,883,l)
);
}
);
width = 637;
}
);
note = Ecircumflex;
unicode = 202;
},
{
glyphname = Aacute;
kernLeft = A;
kernRight = A;
layers = (
{
hints = (
{
horizontal = 1;
place = (0, 21);
target = up;
type = BottomGhost;
},
{
horizontal = 1;
place = (105, 144);
place = (105, 144);
type = Stem;
},
{
horizontal = 1;
place = (715, -20);
target = down;
type = TopGhost;
},
{
horizontal = 1;
place = (746, 135);
place = (746, 135);
type = Stem;
},
{
place = (-4, 742);
place = (-4, 742);
type = Stem;
}
);
layerId = m01;
shapes = (
{
closed = 1;
nodes = (
(-4,0,l),
(204,0,l),
(239,105,l),
(481,105,l),
(516,0,l),
(738,0,l),
(473,715,l),
(260,715,l)
);
},
{
closed = 1;
nodes = (
(333,389,ls),
(345,424,o),
(360,481,o),
(360,481,c),
(362,481,l),
(362,481,o),
(378,424,o),
(389,389,cs),
(434,249,l),
(286,249,l)
);
},
{
closed = 1;
nodes = (
(548,881,l),
(333,881,l),
(290,746,l),
(432,746,l)
);
}
);
width = 734;
}
);
note = Aacute;
unicode = 193;
},
{
glyphname = Edieresis;
kernRight = E;
layers = (
{
hints = (
{
horizontal = 1;
place = (0, 179);
place = (0, 179);
type = Stem;
},
{
horizontal = 1;
place = (291, 157);
place = (291, 157);
type = Stem;
},
{
horizontal = 1;
place = (545, 170);
place = (545, 170);
type = Stem;
},
{
horizontal = 1;
place = (752, 143);
place = (752, 143);
type = Stem;
},
{
place = (43, 209);
place = (43, 209);
type = Stem;
},
{
place = (358, 178);
place = (358, 178);
type = Stem;
},
{
place = (130, 178);
place = (130, 178);
type = Stem;
}
);
layerId = m01;
shapes = (
{
closed = 1;
nodes = (
(43,0,l),
(610,0,l),
(610,179,l),
(252,179,l),
(252,291,l),
(543,291,l),
(543,448,l),
(252,448,l),
(252,545,l),
(600,545,l),
(600,715,l),
(43,715,l)
);
},
{
closed = 1;
nodes = (
(358,752,l),
(536,752,l),
(536,895,l),
(358,895,l)
);
},
{
closed = 1;
nodes = (
(130,752,l),
(308,752,l),
(308,895,l),
(130,895,l)
);
}
);
width = 637;
}
);
note = Edieresis;
unicode = 203;
},
{
glyphname = Egrave;
kernRight = E;
layers = (
{
hints = (
{
horizontal = 1;
place = (0, 179);
place = (0, 179);
type = Stem;
},
{
horizontal = 1;
place = (291, 157);
place = (291, 157);
type = Stem;
},
{
horizontal = 1;
place = (545, 170);
place = (545, 170);
type = Stem;
},
{
horizontal = 1;
place = (746, 135);
place = (746, 135);
type = Stem;
},
{
place = (43, 209);
place = (43, 209);
type = Stem;
}
);
layerId = m01;
shapes = (
{
closed = 1;
nodes = (
(43,0,l),
(610,0,l),
(610,179,l),
(252,179,l),
(252,291,l),
(543,291,l),
(543,448,l),
(252,448,l),
(252,545,l),
(600,545,l),
(600,715,l),
(43,715,l)
);
},
{
closed = 1;
nodes = (
(277,746,l),
(419,746,l),
(376,881,l),
(161,881,l)
);
}
);
width = 637;
}
);
note = Egrave;
unicode = 200;
},
{
glyphname = Iacute;
kernRight = H;
layers = (
{
hints = (
{
horizontal = 1;
place = (0, 21);
target = up;
type = BottomGhost;
},
{
horizontal = 1;
place = (715, -20);
target = down;
type = TopGhost;
},
{
horizontal = 1;
place = (746, 135);
place = (746, 135);
type = Stem;
},
{
place = (43, 209);
place = (43, 209);
type = Stem;
}
);
layerId = m01;
shapes = (
{
closed = 1;
nodes = (
(43,0,l),
(252,0,l),
(252,715,l),
(43,715,l)
);
},
{
closed = 1;
nodes = (
(328,881,l),
(113,881,l),
(70,746,l),
(212,746,l)
);
}
);
width = 295;
}
);
note = Iacute;
unicode = 205;
},
{
glyphname = Icircumflex;
kernRight = H;
layers = (
{
hints = (
{
horizontal = 1;
place = (0, 21);
target = up;
type = BottomGhost;
},
{
horizontal = 1;
place = (715, -20);
target = down;
type = TopGhost;
},
{
horizontal = 1;
place = (746, 137);
place = (746, 137);
type = Stem;
},
{
place = (43, 209);
place = (43, 209);
type = Stem;
}
);
layerId = m01;
shapes = (
{
closed = 1;
nodes = (
(43,0,l),
(252,0,l),
(252,715,l),
(43,715,l)
);
},
{
closed = 1;
nodes = (
(-54,746,l),
(107,746,l),
(149,797,l),
(151,797,l),
(193,746,l),
(349,746,l),
(232,883,l),
(65,883,l)
);
}
);
width = 295;
}
);
note = Icircumflex;
unicode = 206;
},
{
glyphname = Idieresis;
kernRight = H;
layers = (
{
hints = (
{
horizontal = 1;
place = (0, 21);
target = up;
type = BottomGhost;
},
{
horizontal = 1;
place = (715, -20);
target = down;
type = TopGhost;
},
{
horizontal = 1;
place = (752, 143);
place = (752, 143);
type = Stem;
},
{
place = (43, 209);
place = (43, 209);
type = Stem;
},
{
place = (172, 178);
place = (172, 178);
type = Stem;
},
{
place = (-56, 178);
place = (-56, 178);
type = Stem;
}
);
layerId = m01;
shapes = (
{
closed = 1;
nodes = (
(43,0,l),
(252,0,l),
(252,715,l),
(43,715,l)
);
},
{
closed = 1;
nodes = (
(172,752,l),
(350,752,l),
(350,895,l),
(172,895,l)
);
},
{
closed = 1;
nodes = (
(-56,752,l),
(122,752,l),
(122,895,l),
(-56,895,l)
);
}
);
width = 295;
}
);
note = Idieresis;
unicode = 207;
},
{
glyphname = Igrave;
kernRight = H;
layers = (
{
hints = (
{
horizontal = 1;
place = (0, 21);
target = up;
type = BottomGhost;
},
{
horizontal = 1;
place = (715, -20);
target = down;
type = TopGhost;
},
{
horizontal = 1;
place = (746, 135);
place = (746, 135);
type = Stem;
},
{
place = (43, 209);
place = (43, 209);
type = Stem;
}
);
layerId = m01;
shapes = (
{
closed = 1;
nodes = (
(43,0,l),
(252,0,l),
(252,715,l),
(43,715,l)
);
},
{
closed = 1;
nodes = (
(91,746,l),
(233,746,l),
(190,881,l),
(-25,881,l)
);
}
);
width = 295;
}
);
note = Igrave;
unicode = 204;
},
{
glyphname = Oacute;
kernLeft = C;
kernRight = O;
layers = (
{
hints = (
{
horizontal = 1;
place = (-17, 167);
place = (-17, 167);
type = Stem;
},
{
horizontal = 1;
place = (561, 167);
place = (561, 167);
type = Stem;
},
{
place = (15, 212);
place = (15, 212);
type = Stem;
},
{
place = (529, 212);
place = (529, 212);
type = Stem;
},
{
horizontal = 1;
place = (746, 135);
place = (746, 135);
type = Stem;
}
);
layerId = m01;
shapes = (
{
closed = 1;
nodes = (
(599,-17,o),
(741,141,o),
(741,355,cs),
(741,569,o),
(599,728,o),
(377,728,cs),
(155,728,o),
(15,569,o),
(15,355,cs),
(15,141,o),
(155,-17,o),
(377,-17,cs)
);
},
{
closed = 1;
nodes = (
(278,150,o),
(227,238,o),
(227,355,cs),
(227,472,o),
(278,561,o),
(378,561,cs),
(478,561,o),
(529,472,o),
(529,355,cs),
(529,238,o),
(478,150,o),
(378,150,cs)
);
},
{
closed = 1;
nodes = (
(559,881,l),
(344,881,l),
(301,746,l),
(443,746,l)
);
}
);
width = 756;
}
);
note = Oacute;
unicode = 211;
},
{
glyphname = Ocircumflex;
kernLeft = C;
kernRight = O;
layers = (
{
hints = (
{
horizontal = 1;
place = (-17, 167);
place = (-17, 167);
type = Stem;
},
{
horizontal = 1;
place = (561, 167);
place = (561, 167);
type = Stem;
},
{
place = (15, 212);
place = (15, 212);
type = Stem;
},
{
place = (529, 212);
place = (529, 212);
type = Stem;
},
{
horizontal = 1;
place = (746, 137);
place = (746, 137);
type = Stem;
}
);
layerId = m01;
shapes = (
{
closed = 1;
nodes = (
(599,-17,o),
(741,141,o),
(741,355,cs),
(741,569,o),
(599,728,o),
(377,728,cs),
(155,728,o),
(15,569,o),
(15,355,cs),
(15,141,o),
(155,-17,o),
(377,-17,cs)
);
},
{
closed = 1;
nodes = (
(278,150,o),
(227,238,o),
(227,355,cs),
(227,472,o),
(278,561,o),
(378,561,cs),
(478,561,o),
(529,472,o),
(529,355,cs),
(529,238,o),
(478,150,o),
(378,150,cs)
);
},
{
closed = 1;
nodes = (
(177,746,l),
(338,746,l),
(380,797,l),
(382,797,l),
(424,746,l),
(580,746,l),
(463,883,l),
(296,883,l)
);
}
);
width = 756;
}
);
note = Ocircumflex;
unicode = 212;
},
{
glyphname = Ograve;
kernLeft = C;
kernRight = O;
layers = (
{
hints = (
{
horizontal = 1;
place = (-17, 167);
place = (-17, 167);
type = Stem;
},
{
horizontal = 1;
place = (561, 167);
place = (561, 167);
type = Stem;
},
{
place = (15, 212);
place = (15, 212);
type = Stem;
},
{
place = (529, 212);
place = (529, 212);
type = Stem;
},
{
horizontal = 1;
place = (746, 135);
place = (746, 135);
type = Stem;
}
);
layerId = m01;
shapes = (
{
closed = 1;
nodes = (
(599,-17,o),
(741,141,o),
(741,355,cs),
(741,569,o),
(599,728,o),
(377,728,cs),
(155,728,o),
(15,569,o),
(15,355,cs),
(15,141,o),
(155,-17,o),
(377,-17,cs)
);
},
{
closed = 1;
nodes = (
(278,150,o),
(227,238,o),
(227,355,cs),
(227,472,o),
(278,561,o),
(378,561,cs),
(478,561,o),
(529,472,o),
(529,355,cs),
(529,238,o),
(478,150,o),
(378,150,cs)
);
},
{
closed = 1;
nodes = (
(322,746,l),
(464,746,l),
(421,881,l),
(206,881,l)
);
}
);
width = 756;
}
);
note = Ograve;
unicode = 210;
},
{
glyphname = Uacute;
kernLeft = U;
kernRight = U;
layers = (
{
hints = (
{
horizontal = 1;
place = (-13, 167);
place = (-13, 167);
type = Stem;
},
{
horizontal = 1;
place = (715, -20);
target = down;
type = TopGhost;
},
{
horizontal = 1;
place = (746, 135);
place = (746, 135);
type = Stem;
},
{
place = (38, 209);
place = (38, 209);
type = Stem;
},
{
place = (467, 209);
place = (467, 209);
type = Stem;
}
);
layerId = m01;
shapes = (
{
closed = 1;
nodes = (
(571,-13,o),
(676,97,o),
(676,273,cs),
(676,715,l),
(467,715,l),
(467,265,ls),
(467,200,o),
(431,154,o),
(360,154,cs),
(283,154,o),
(247,195,o),
(247,261,cs),
(247,715,l),
(38,715,l),
(38,273,ls),
(38,94,o),
(142,-13,o),
(357,-13,cs)
);
},
{
closed = 1;
nodes = (
(538,881,l),
(323,881,l),
(280,746,l),
(422,746,l)
);
}
);
width = 714;
}
);
note = Uacute;
unicode = 218;
},
{
glyphname = Ucircumflex;
kernLeft = U;
kernRight = U;
layers = (
{
hints = (
{
horizontal = 1;
place = (-13, 167);
place = (-13, 167);
type = Stem;
},
{
horizontal = 1;
place = (715, -20);
target = down;
type = TopGhost;
},
{
horizontal = 1;
place = (746, 137);
place = (746, 137);
type = Stem;
},
{
place = (38, 209);
place = (38, 209);
type = Stem;
},
{
place = (467, 209);
place = (467, 209);
type = Stem;
}
);
layerId = m01;
shapes = (
{
closed = 1;
nodes = (
(571,-13,o),
(676,97,o),
(676,273,cs),
(676,715,l),
(467,715,l),
(467,265,ls),
(467,200,o),
(431,154,o),
(360,154,cs),
(283,154,o),
(247,195,o),
(247,261,cs),
(247,715,l),
(38,715,l),
(38,273,ls),
(38,94,o),
(142,-13,o),
(357,-13,cs)
);
},
{
closed = 1;
nodes = (
(156,746,l),
(317,746,l),
(359,797,l),
(361,797,l),
(403,746,l),
(559,746,l),
(442,883,l),
(275,883,l)
);
}
);
width = 714;
}
);
note = Ucircumflex;
unicode = 219;
},
{
glyphname = Ugrave;
kernLeft = U;
kernRight = U;
layers = (
{
hints = (
{
horizontal = 1;
place = (-13, 167);
place = (-13, 167);
type = Stem;
},
{
horizontal = 1;
place = (715, -20);
target = down;
type = TopGhost;
},
{
horizontal = 1;
place = (746, 135);
place = (746, 135);
type = Stem;
},
{
place = (38, 209);
place = (38, 209);
type = Stem;
},
{
place = (467, 209);
place = (467, 209);
type = Stem;
}
);
layerId = m01;
shapes = (
{
closed = 1;
nodes = (
(571,-13,o),
(676,97,o),
(676,273,cs),
(676,715,l),
(467,715,l),
(467,265,ls),
(467,200,o),
(431,154,o),
(360,154,cs),
(283,154,o),
(247,195,o),
(247,261,cs),
(247,715,l),
(38,715,l),
(38,273,ls),
(38,94,o),
(142,-13,o),
(357,-13,cs)
);
},
{
closed = 1;
nodes = (
(301,746,l),
(443,746,l),
(400,881,l),
(185,881,l)
);
}
);
width = 714;
}
);
note = Ugrave;
unicode = 217;
},
{
glyphname = dotlessi;
kernLeft = m;
kernRight = u;
layers = (
{
hints = (
{
horizontal = 1;
place = (0, 21);
target = up;
type = BottomGhost;
},
{
horizontal = 1;
place = (510, -20);
target = down;
type = TopGhost;
},
{
place = (34, 189);
place = (34, 189);
type = Stem;
}
);
layerId = m01;
shapes = (
{
closed = 1;
nodes = (
(34,0,l),
(223,0,l),
(223,510,l),
(34,510,l)
);
}
);
width = 257;
}
);
note = dotlessi;
unicode = 305;
},
